<svg width="769" height="53" fill="none" xmlns="http://www.w3.org/2000/svg"><path d="M8.008 7.6V46H.968V1.2h22.208V46h-7.168V7.6h-8zm27.376 3.904v24.192c0 2.944 1.216 4.416 3.648 4.416 2.432 0 3.648-1.472 3.648-4.416V11.504c0-2.944-1.216-4.416-3.648-4.416-2.432 0-3.648 1.472-3.648 4.416zm-7.04 23.744V11.952c0-3.584.917-6.357 2.752-8.32 1.835-1.963 4.48-2.944 7.936-2.944 3.456 0 6.101.981 7.936 2.944s2.752 4.736 2.752 8.32v23.296c0 3.584-.917 6.357-2.752 8.32-1.835 1.963-4.48 2.944-7.936 2.944-3.456 0-6.101-.981-7.936-2.944s-2.752-4.736-2.752-8.32zm40.159-20.544v-2.496c0-1.92-.32-3.243-.96-3.968-.597-.768-1.493-1.152-2.688-1.152-2.475 0-3.712 1.472-3.712 4.416v3.648h-6.464v-3.328c0-3.627.875-6.379 2.624-8.256 1.75-1.92 4.33-2.88 7.744-2.88 3.413 0 6.016.981 7.808 2.944 1.792 1.92 2.688 4.693 2.688 8.32v1.152c0 4.779-1.643 7.85-4.928 9.216 3.285 1.45 4.928 4.587 4.928 9.408v3.52c0 3.627-.896 6.421-2.688 8.384-1.792 1.92-4.395 2.88-7.808 2.88-3.413 0-6.016-.96-7.808-2.88-1.792-1.963-2.688-4.757-2.688-8.384V30.32h6.656v5.376c0 2.944 1.216 4.416 3.648 4.416 1.195 0 2.09-.363 2.688-1.088.64-.768.96-2.09.96-3.968v-3.52c0-2.048-.363-3.499-1.088-4.352-.725-.896-1.899-1.344-3.52-1.344h-1.728v-6.4h2.112c1.408 0 2.453-.363 3.136-1.088.725-.725 1.088-1.941 1.088-3.648zm39.775 37.312h-6.976V46h-15.04v6.016h-6.848V39.728h2.752c1.024-1.28 1.6-3.221 1.728-5.824l1.6-32.704h19.712v38.528h3.072v12.288zM92.086 7.6l-1.28 26.176c-.17 2.859-.832 4.843-1.984 5.952h9.216V7.6h-5.952zm31.122-6.4c6.997 0 10.496 3.69 10.496 11.072v5.824c0 7.381-3.499 11.072-10.496 11.072h-3.328V46h-7.04V1.2h10.368zm0 6.4h-3.328v15.168h3.328c1.152 0 2.005-.32 2.56-.96.597-.64.896-1.728.896-3.264v-6.72c0-1.536-.299-2.624-.896-3.264-.555-.64-1.408-.96-2.56-.96zm30.013-6.4l7.168 44.8h-7.104l-1.216-8.128h-8.64L142.213 46h-6.464l7.168-44.8h10.304zm-5.504 7.936l-3.392 22.656h6.784l-3.392-22.656zM174.931 1.2c3.627 0 6.272.853 7.936 2.56 1.664 1.664 2.496 4.245 2.496 7.744v1.6c0 4.608-1.514 7.616-4.544 9.024 3.499 1.365 5.248 4.565 5.248 9.6v3.648c0 3.456-.917 6.101-2.752 7.936-1.792 1.792-4.437 2.688-7.936 2.688h-11.072V1.2h10.624zm-.448 24.64h-3.136V39.6h4.032c1.238 0 2.155-.32 2.752-.96.598-.683.896-1.835.896-3.456V31.28c0-2.048-.362-3.456-1.088-4.224-.682-.81-1.834-1.216-3.456-1.216zm.256-18.24h-3.392v11.84h2.752c1.408 0 2.454-.363 3.136-1.088.726-.725 1.088-1.941 1.088-3.648v-2.496c0-3.072-1.194-4.608-3.584-4.608zm14.224 38.464v-6.4c1.707 0 2.838-.256 3.392-.768.598-.555.918-1.835.96-3.84L194.467 1.2h19.904V46h-7.168V7.6h-6.144l-.768 27.072c-.128 4.096-.981 7.019-2.56 8.768-1.578 1.75-4.138 2.624-7.68 2.624h-1.088zM226.288 46h-7.168c.512-1.195.768-3.008.768-5.44v-6.912c0-5.035 1.557-8.213 4.672-9.536-3.072-1.45-4.608-4.48-4.608-9.088v-3.52c0-3.499.832-6.08 2.496-7.744 1.664-1.707 4.309-2.56 7.936-2.56h10.624V46h-7.04V27.76h-2.432c-1.621 0-2.795.448-3.52 1.344-.725.853-1.088 2.304-1.088 4.352v7.04c0 2.39-.213 4.224-.64 5.504zm7.68-38.4h-3.392c-2.389 0-3.584 1.536-3.584 4.608v4.416c0 1.707.341 2.923 1.024 3.648.725.725 1.792 1.088 3.2 1.088h2.752V7.6zm25.11 27.648V26.8h-5.248V46h-7.04V1.2h7.04v19.2h5.248v-8.448c0-3.584.917-6.357 2.752-8.32 1.835-1.963 4.48-2.944 7.936-2.944 3.456 0 6.101.981 7.936 2.944s2.752 4.736 2.752 8.32v23.296c0 3.584-.917 6.357-2.752 8.32-1.835 1.963-4.48 2.944-7.936 2.944-3.456 0-6.101-.981-7.936-2.944s-2.752-4.736-2.752-8.32zm7.04-23.744v24.192c0 2.944 1.216 4.416 3.648 4.416 2.432 0 3.648-1.472 3.648-4.416V11.504c0-2.944-1.216-4.416-3.648-4.416-2.432 0-3.648 1.472-3.648 4.416zm25.768 24.576h-5.248l-.896-16.192V1.2h7.04v18.688l-.896 16.192zm-6.016 3.136h6.784V46h-6.784v-6.784z" fill="#424241"/><path d="M319.771 1.2c3.627 0 6.272.853 7.936 2.56 1.664 1.664 2.496 4.245 2.496 7.744v1.6c0 4.608-1.514 7.616-4.544 9.024 3.499 1.365 5.248 4.565 5.248 9.6v3.648c0 3.456-.917 6.101-2.752 7.936-1.792 1.792-4.437 2.688-7.936 2.688h-11.072V1.2h10.624zm-.448 24.64h-3.136V39.6h4.032c1.238 0 2.155-.32 2.752-.96.598-.683.896-1.835.896-3.456V31.28c0-2.048-.362-3.456-1.088-4.224-.682-.81-1.834-1.216-3.456-1.216zm.256-18.24h-3.392v11.84h2.752c1.408 0 2.454-.363 3.136-1.088.726-.725 1.088-1.941 1.088-3.648v-2.496c0-3.072-1.194-4.608-3.584-4.608zM346.156 46h-10.368V1.2h7.04v16.832h3.328c6.997 0 10.496 3.69 10.496 11.072v5.824c0 7.381-3.499 11.072-10.496 11.072zm-3.328-6.4h3.328c1.152 0 2.005-.32 2.56-.96.597-.64.896-1.728.896-3.264v-6.72c0-1.536-.299-2.624-.896-3.264-.555-.64-1.408-.96-2.56-.96h-3.328V39.6zm24.896 6.4h-7.04V1.2h7.04V46zm29.912-31.296v-2.496c0-1.92-.32-3.243-.96-3.968-.598-.768-1.494-1.152-2.688-1.152-2.475 0-3.712 1.472-3.712 4.416v3.648h-6.464v-3.328c0-3.627.874-6.379 2.624-8.256 1.749-1.92 4.33-2.88 7.744-2.88 3.413 0 6.016.981 7.808 2.944 1.792 1.92 2.688 4.693 2.688 8.32v1.152c0 4.779-1.643 7.85-4.928 9.216 3.285 1.45 4.928 4.587 4.928 9.408v3.52c0 3.627-.896 6.421-2.688 8.384-1.792 1.92-4.395 2.88-7.808 2.88-3.414 0-6.016-.96-7.808-2.88-1.792-1.963-2.688-4.757-2.688-8.384V30.32h6.656v5.376c0 2.944 1.216 4.416 3.648 4.416 1.194 0 2.09-.363 2.688-1.088.64-.768.96-2.09.96-3.968v-3.52c0-2.048-.363-3.499-1.088-4.352-.726-.896-1.899-1.344-3.52-1.344H391.3v-6.4h2.112c1.408 0 2.453-.363 3.136-1.088.725-.725 1.088-1.941 1.088-3.648zM425.698 1.2l7.168 44.8h-7.104l-1.216-8.128h-8.64L414.69 46h-6.464l7.168-44.8h10.304zm-5.504 7.936l-3.392 22.656h6.784l-3.392-22.656zM443.825 7.6V46h-7.04V1.2h22.208V46h-7.168V7.6h-8zm27.376 3.904v24.192c0 2.944 1.216 4.416 3.648 4.416 2.432 0 3.648-1.472 3.648-4.416V11.504c0-2.944-1.216-4.416-3.648-4.416-2.432 0-3.648 1.472-3.648 4.416zm-7.04 23.744V11.952c0-3.584.918-6.357 2.752-8.32 1.835-1.963 4.48-2.944 7.936-2.944 3.456 0 6.102.981 7.936 2.944 1.835 1.963 2.752 4.736 2.752 8.32v23.296c0 3.584-.917 6.357-2.752 8.32-1.834 1.963-4.48 2.944-7.936 2.944-3.456 0-6.101-.981-7.936-2.944-1.834-1.963-2.752-4.736-2.752-8.32zm24.608 10.816v-6.4c1.706 0 2.837-.256 3.392-.768.597-.555.917-1.835.96-3.84L494.273 1.2h19.904V46h-7.168V7.6h-6.144l-.768 27.072c-.128 4.096-.982 7.019-2.56 8.768-1.579 1.75-4.139 2.624-7.68 2.624h-1.088zM527.245 26.8V46h-7.04V1.2h7.04v19.2h8V1.2h7.168V46h-7.168V26.8h-8zm34.033-1.344L555.39 46h-7.232V1.2h6.272v28.352l2.56-9.856L562.75 1.2h7.744V46h-6.336V14.448l-2.88 11.008zm12.848 20.608v-6.4c1.707 0 2.837-.256 3.392-.768.597-.555.917-1.835.96-3.84L579.63 1.2h19.904V46h-7.168V7.6h-6.144l-.768 27.072c-.128 4.096-.981 7.019-2.56 8.768-1.579 1.75-4.139 2.624-7.68 2.624h-1.088zm44.556-20.608L612.794 46h-7.232V1.2h6.272v28.352l2.56-9.856 5.76-18.496h7.744V46h-6.336V14.448l-2.88 11.008zM655.292 46h-11.136V1.2h19.712v6.4h-12.672v11.456h4.096c3.499 0 6.144.96 7.936 2.88 1.792 1.877 2.688 4.608 2.688 8.192v4.8c0 3.584-.896 6.336-2.688 8.256-1.792 1.877-4.437 2.816-7.936 2.816zm-4.096-6.4h4.096c2.39 0 3.584-1.408 3.584-4.224V29.68c0-2.816-1.194-4.224-3.584-4.224h-4.096V39.6zm30.467-38.4c6.997 0 10.496 3.69 10.496 11.072v5.824c0 7.381-3.499 11.072-10.496 11.072h-3.328V46h-7.04V1.2h10.368zm0 6.4h-3.328v15.168h3.328c1.152 0 2.005-.32 2.56-.96.597-.64.896-1.728.896-3.264v-6.72c0-1.536-.299-2.624-.896-3.264-.555-.64-1.408-.96-2.56-.96zm27.517 17.856L703.292 46h-7.232V1.2h6.272v28.352l2.56-9.856 5.76-18.496h7.744V46h-6.336V14.448l-2.88 11.008zM736.557 46v-5.056h-2.624c-6.998 0-10.496-3.69-10.496-11.072V17.648c0-7.381 3.498-11.072 10.496-11.072h2.624V1.2h6.912v5.376h2.624c6.997 0 10.496 3.69 10.496 11.072v12.224c0 7.381-3.499 11.072-10.496 11.072h-2.624V46h-6.912zm9.536-33.216h-2.624V34.8h2.624c2.346 0 3.52-1.493 3.52-4.48V17.2c0-2.944-1.174-4.416-3.52-4.416zM736.557 34.8V12.784h-2.624c-2.347 0-3.52 1.472-3.52 4.416v13.12c0 2.987 1.173 4.48 3.52 4.48h2.624zm31.552 1.28h-5.248l-.896-16.192V1.2h7.04v18.688l-.896 16.192zm-6.016 3.136h6.784V46h-6.784v-6.784z" fill="#7ECFDA"/></svg>