<?xml version="1.0" encoding="utf-8"?>
<!-- Generator: Adobe Illustrator 25.4.1, SVG Export Plug-In . SVG Version: 6.00 Build 0)  -->
<svg version="1.1" id="Layer_1" xmlns="http://www.w3.org/2000/svg" xmlns:xlink="http://www.w3.org/1999/xlink" x="0px" y="0px"
	 viewBox="0 0 39 38" style="enable-background:new 0 0 39 38;" xml:space="preserve">
<style type="text/css">
	.st0{fill:#FFFFFF;}
</style>
<path class="st0" d="M38.5,17.5c0-0.9-0.3-1.6-1-2.2C32,10.4,26.4,5.5,20.9,0.6c-0.9-0.8-1.9-0.8-2.8,0C12.6,5.5,7,10.5,1.5,15.4
	c-0.7,0.6-1,1.2-1,2.1c0,3.5,0,7,0,10.5c0,2.6,0,5.2,0,7.8c0,0.7,0.2,1.3,0.8,1.8c0.4,0.3,1,0.4,1.5,0.4c5.6,0,11.1,0,16.7,0
	c1.5,0,3,0,4.5,0c4.1,0,8.2,0,12.2,0c0.7,0,1.3-0.1,1.8-0.7c0.4-0.5,0.5-1,0.5-1.6C38.5,29.7,38.5,23.6,38.5,17.5z M23,34.2
	c-2.3,0-4.6,0-6.8,0c-0.3,0-0.4-0.1-0.4-0.4c0-1.3,0-2.5,0-3.8c0,0,0,0,0,0c0-1.2,0-2.5,0-3.7c0.1-1.9,1.8-3.4,3.8-3.4
	c2,0,3.7,1.5,3.7,3.4c0.1,2.5,0,5.1,0,7.6C23.3,34.1,23.2,34.2,23,34.2z M34.2,34.2c-2.2,0-4.4,0-6.7,0c-0.4,0-0.4-0.1-0.4-0.4
	c0-2.3,0-4.6,0-6.9c0-3.9-2.5-6.7-5.5-7.5c-4.9-1.4-9.6,2.2-9.7,7.4c0,2.3,0,4.7,0,7c0,0.4-0.1,0.5-0.5,0.5c-2.2,0-4.4,0-6.6,0
	c-0.3,0-0.5-0.1-0.5-0.4c0-5.1,0-10.3,0-15.4c0-0.2,0.1-0.4,0.3-0.6c4.9-4.3,9.8-8.7,14.6-13c0.2-0.2,0.3-0.2,0.5,0
	c4.9,4.3,9.7,8.7,14.6,13c0.2,0.2,0.3,0.4,0.3,0.7c0,2.6,0,5.1,0,7.7c0,2.5,0,5.1,0,7.6C34.7,34,34.6,34.2,34.2,34.2z"/>
</svg>
