<svg width="19" height="9" viewBox="0 0 19 9" fill="none" xmlns="http://www.w3.org/2000/svg">
<path d="M17.2463 2.30679H1.6064C1.34715 2.30679 1.09852 2.2038 0.915207 2.02049C0.731892 1.83717 0.628906 1.58855 0.628906 1.3293C0.628906 1.07005 0.731892 0.821422 0.915207 0.638107C1.09852 0.454792 1.34715 0.351807 1.6064 0.351807H17.2463C17.5055 0.351807 17.7541 0.454792 17.9375 0.638107C18.1208 0.821422 18.2238 1.07005 18.2238 1.3293C18.2238 1.58855 18.1208 1.83717 17.9375 2.02049C17.7541 2.2038 17.5055 2.30679 17.2463 2.30679ZM10.7297 8.17174H1.6064C1.34715 8.17174 1.09852 8.06875 0.915207 7.88544C0.731892 7.70212 0.628906 7.45349 0.628906 7.19425C0.628906 6.935 0.731892 6.68637 0.915207 6.50306C1.09852 6.31974 1.34715 6.21676 1.6064 6.21676H10.7297C10.9889 6.21676 11.2375 6.31974 11.4208 6.50306C11.6042 6.68637 11.7071 6.935 11.7071 7.19425C11.7071 7.45349 11.6042 7.70212 11.4208 7.88544C11.2375 8.06875 10.9889 8.17174 10.7297 8.17174Z" fill="#424241"/>
</svg>
