<svg width="323" height="159" fill="none" xmlns="http://www.w3.org/2000/svg"><path d="M16.144 26H11.5l-6.993-9.774V26H.43V6.722h4.077v9.342l6.912-9.342h4.347l-7.02 9.261L16.144 26zM28.237 6.722c2.484 0 4.293.54 5.427 1.62 1.152 1.062 1.728 2.529 1.728 4.401a7.186 7.186 0 01-.702 3.159c-.468.972-1.251 1.755-2.35 2.349-1.08.594-2.555.891-4.427.891h-1.755V26H22.08V6.722h6.156zm-.216 3.348h-1.863v5.724h1.35c1.152 0 2.06-.225 2.727-.675.684-.468 1.026-1.215 1.026-2.241 0-1.872-1.08-2.808-3.24-2.808zM53.64 26H42.546V6.722h11.097v3.348h-7.02v4.239h6.534v3.348h-6.534v4.968h7.02V26zm19.321 0l-1.404-4.59h-7.02L63.134 26h-4.4l6.803-19.359h4.995L77.363 26h-4.4zm-2.376-8.019l-1.404-4.482c-.09-.306-.207-.693-.35-1.161-.145-.468-.289-.945-.433-1.431a31.126 31.126 0 01-.35-1.269c-.09.36-.217.81-.379 1.35a83.322 83.322 0 01-.432 1.512c-.126.468-.225.801-.297.999l-1.377 4.482h5.022zM88.841 26h-4.077V10.124h-5.238V6.722H94.08v3.402h-5.238V26zm11.721-19.278h3.672v9.315c0 .45-.009.954-.027 1.512l-.054 1.647c-.018.522-.036.981-.054 1.377-.018.378-.036.639-.054.783h.081l8.91-14.634h4.887V26h-3.645v-9.261c0-.486.009-1.017.027-1.593l.054-1.701c.036-.54.063-1.008.081-1.404.036-.414.063-.684.081-.81h-.108L105.476 26h-4.914V6.722zm25.738 0h5.994c2.556 0 4.491.36 5.805 1.08 1.332.72 1.998 1.989 1.998 3.807 0 1.098-.261 2.025-.783 2.781-.504.756-1.233 1.215-2.187 1.377v.135c.63.144 1.206.378 1.728.702.54.306.963.765 1.269 1.377.306.612.459 1.422.459 2.43 0 1.746-.639 3.114-1.917 4.104-1.26.99-2.979 1.485-5.157 1.485H126.3V6.722zm4.077 7.641h2.376c1.188 0 2.007-.18 2.457-.54.468-.378.702-.936.702-1.674 0-.738-.27-1.269-.81-1.593-.54-.324-1.395-.486-2.565-.486h-2.16v4.293zm0 3.24v5.022h2.673c1.224 0 2.079-.234 2.565-.702.486-.486.729-1.125.729-1.917 0-.72-.252-1.296-.756-1.728-.486-.45-1.377-.675-2.673-.675h-2.538zM163.745 26h-4.077v-8.316h-7.641V26h-4.077V6.722h4.077v7.56h7.641v-7.56h4.077V26zm8.361 0V6.722h4.077v7.398h1.323c1.782 0 3.24.252 4.374.756 1.152.504 2.007 1.197 2.565 2.079.558.882.837 1.89.837 3.024 0 1.908-.63 3.393-1.89 4.455-1.26 1.044-3.267 1.566-6.021 1.566h-5.265zm15.525 0V6.722h4.077V26h-4.077zm-11.448-3.348h1.08c1.206 0 2.151-.198 2.835-.594.702-.396 1.053-1.089 1.053-2.079 0-1.026-.36-1.701-1.08-2.025-.702-.324-1.701-.486-2.997-.486h-.891v5.184zm23.901-15.93h3.672v9.315c0 .45-.009.954-.027 1.512l-.054 1.647c-.018.522-.036.981-.054 1.377-.018.378-.036.639-.054.783h.081l8.91-14.634h4.887V26H213.8v-9.261c0-.486.009-1.017.027-1.593l.054-1.701c.036-.54.063-1.008.081-1.404.036-.414.063-.684.081-.81h-.108L204.998 26h-4.914V6.722zM215.609.377c-.09.936-.351 1.764-.783 2.484-.432.702-1.107 1.251-2.025 1.647-.918.396-2.151.594-3.699.594-1.584 0-2.826-.189-3.726-.567-.882-.378-1.512-.918-1.89-1.62-.378-.72-.603-1.566-.675-2.538h3.591c.072.99.315 1.647.729 1.971.432.324 1.116.486 2.052.486.774 0 1.404-.171 1.89-.513.504-.36.801-1.008.891-1.944h3.645zM235.766 26V6.722h12.177v3.375h-8.1v4.023h1.62c1.818 0 3.303.252 4.455.756 1.17.504 2.034 1.197 2.592 2.079.558.882.837 1.89.837 3.024 0 1.908-.639 3.393-1.917 4.455-1.26 1.044-3.276 1.566-6.048 1.566h-5.616zm4.077-3.348h1.377c1.242 0 2.214-.198 2.916-.594.72-.396 1.08-1.089 1.08-2.079 0-1.026-.387-1.701-1.161-2.025-.774-.324-1.827-.486-3.159-.486h-1.053v5.184zm22.806-15.93c2.484 0 4.293.54 5.427 1.62 1.152 1.062 1.728 2.529 1.728 4.401a7.186 7.186 0 01-.702 3.159c-.468.972-1.251 1.755-2.349 2.349-1.08.594-2.556.891-4.428.891h-1.755V26h-4.077V6.722h6.156zm-.216 3.348h-1.863v5.724h1.35c1.152 0 2.061-.225 2.727-.675.684-.468 1.026-1.215 1.026-2.241 0-1.872-1.08-2.808-3.24-2.808zm14.524-3.348h3.672v9.315c0 .45-.009.954-.027 1.512l-.054 1.647c-.018.522-.036.981-.054 1.377-.018.378-.036.639-.054.783h.081l8.91-14.634h4.887V26h-3.645v-9.261c0-.486.009-1.017.027-1.593l.054-1.701c.036-.54.063-1.008.081-1.404.036-.414.063-.684.081-.81h-.108L281.871 26h-4.914V6.722zm36.754-.27v2.376c2.088.054 3.762.423 5.022 1.107 1.26.666 2.16 1.53 2.7 2.592.558 1.062.837 2.223.837 3.483 0 .81-.144 1.638-.432 2.484-.27.846-.738 1.629-1.404 2.349-.648.702-1.521 1.278-2.619 1.728-1.098.45-2.466.693-4.104.729v2.97h-3.672V23.3c-1.656-.036-3.042-.279-4.158-.729-1.098-.45-1.971-1.035-2.619-1.755-.648-.72-1.107-1.494-1.377-2.322a8.144 8.144 0 01-.405-2.484c0-1.26.27-2.421.81-3.483.558-1.062 1.458-1.926 2.7-2.592 1.26-.684 2.943-1.053 5.049-1.107V6.452h3.672zm-3.672 5.562c-1.764.072-2.997.477-3.699 1.215-.684.738-1.026 1.656-1.026 2.754 0 1.206.369 2.187 1.107 2.943.756.738 1.962 1.143 3.618 1.215v-8.127zm3.672 0v8.127c1.656-.072 2.853-.477 3.591-1.215.756-.756 1.134-1.737 1.134-2.943 0-1.098-.351-2.016-1.053-2.754-.684-.738-1.908-1.143-3.672-1.215zM7.6 78.8V98H.56V53.2H7.6v19.2h8V53.2h7.168V98H15.6V78.8h-8zm36.529-25.6L51.297 98h-7.104l-1.216-8.128h-8.64L33.12 98h-6.463l7.168-44.8h10.303zm-5.505 7.936l-3.392 22.656h6.785l-3.393-22.656zM76.16 53.2c6.998 0 10.496 3.69 10.496 11.072v5.824c0 7.381-3.498 11.072-10.496 11.072h-3.328V98h-7.04V53.2H76.16zm0 6.4h-3.328v15.168h3.329c1.151 0 2.005-.32 2.56-.96.597-.64.895-1.728.895-3.264v-6.72c0-1.536-.298-2.624-.895-3.264-.555-.64-1.409-.96-2.56-.96zm30.013-6.4l7.168 44.8h-7.104l-1.216-8.128h-8.64L95.166 98h-6.464l7.169-44.8h10.303zm-5.504 7.936l-3.391 22.656h6.783l-3.392-22.656zm30.159 5.568v-2.496c0-1.92-.32-3.243-.96-3.968-.597-.768-1.493-1.152-2.688-1.152-2.475 0-3.712 1.472-3.712 4.416v3.648h-6.464v-3.328c0-3.627.875-6.379 2.624-8.256 1.749-1.92 4.331-2.88 7.744-2.88 3.413 0 6.016.981 7.808 2.944 1.792 1.92 2.688 4.693 2.688 8.32v1.152c0 4.779-1.643 7.85-4.928 9.216 3.285 1.45 4.928 4.587 4.928 9.408v3.52c0 3.627-.896 6.421-2.688 8.384-1.792 1.92-4.395 2.88-7.808 2.88-3.413 0-6.016-.96-7.808-2.88-1.792-1.963-2.688-4.757-2.688-8.384V82.32h6.656v5.376c0 2.944 1.216 4.416 3.648 4.416 1.195 0 2.091-.363 2.688-1.088.64-.768.96-2.09.96-3.968v-3.52c0-2.048-.363-3.499-1.088-4.352-.725-.896-1.899-1.344-3.52-1.344h-1.728v-6.4h2.112c1.408 0 2.453-.363 3.136-1.088.725-.725 1.088-1.941 1.088-3.648zM153.643 53.2c6.997 0 10.496 3.69 10.496 11.072v5.824c0 7.381-3.499 11.072-10.496 11.072h-3.328V98h-7.04V53.2h10.368zm0 6.4h-3.328v15.168h3.328c1.152 0 2.005-.32 2.56-.96.597-.64.896-1.728.896-3.264v-6.72c0-1.536-.299-2.624-.896-3.264-.555-.64-1.408-.96-2.56-.96zm30.013-6.4l7.168 44.8h-7.104l-1.216-8.128h-8.64L172.648 98h-6.464l7.168-44.8h10.304zm-5.504 7.936l-3.392 22.656h6.784l-3.392-22.656zM205.942 98h-11.136V53.2h19.712v6.4h-12.672v11.456h4.096c3.499 0 6.144.96 7.936 2.88 1.792 1.877 2.688 4.608 2.688 8.192v4.8c0 3.584-.896 6.336-2.688 8.256-1.792 1.877-4.437 2.816-7.936 2.816zm-4.096-6.4h4.096c2.39 0 3.584-1.408 3.584-4.224V81.68c0-2.816-1.194-4.224-3.584-4.224h-4.096V91.6zm26.563-28.096v24.192c0 2.944 1.216 4.416 3.648 4.416 2.432 0 3.648-1.472 3.648-4.416V63.504c0-2.944-1.216-4.416-3.648-4.416-2.432 0-3.648 1.472-3.648 4.416zm-7.04 23.744V63.952c0-3.584.917-6.357 2.752-8.32 1.835-1.963 4.48-2.944 7.936-2.944 3.456 0 6.101.981 7.936 2.944s2.752 4.736 2.752 8.32v23.296c0 3.584-.917 6.357-2.752 8.32-1.835 1.963-4.48 2.944-7.936 2.944-3.456 0-6.101-.981-7.936-2.944s-2.752-4.736-2.752-8.32zM245.912 59.6v-6.4h21.76v6.4h-7.36V98h-7.04V59.6h-7.36zM287.477 98l-6.848-17.856-2.176 4.096V98h-7.04V53.2h7.04v19.52l9.216-19.52h7.04l-9.792 19.968L294.709 98h-7.232zm34.243-44.8l-7.552 33.408c-.896 4.352-2.325 7.424-4.288 9.216-1.962 1.792-5.269 2.539-9.92 2.24v-6.272c1.92.128 3.371-.064 4.352-.576.982-.512 1.6-1.536 1.856-3.072l.064-.384-9.728-34.56h6.976l3.84 15.296 2.176 10.496 1.664-10.432 3.2-15.36h7.36z" fill="#424241"/><path d="M.56 158v-44.8H7.6v38.4h11.584v6.4H.56zm41.783-44.8l7.168 44.8h-7.104l-1.215-8.128h-8.64L31.335 158h-6.464l7.167-44.8h10.304zm-5.504 7.936l-3.392 22.656h6.784l-3.392-22.656zM72.31 158l-8.768-32.448V158h-6.336v-44.8h8.832l7.232 26.816V113.2h6.272V158H72.31zm16.752 0v-44.8H100.2c6.997 0 10.496 3.691 10.496 11.072v22.656c0 7.381-3.499 11.072-10.496 11.072H89.063zm11.009-38.4h-3.968v32h3.968c2.389 0 3.584-1.451 3.584-4.352v-23.296c0-2.901-1.195-4.352-3.584-4.352zm19.596 38.4v-44.8h7.04V158h-7.04zm31.708 0l-8.768-32.448V158h-6.336v-44.8h8.832l7.232 26.816V113.2h6.272V158h-7.232zm27.313-18.56v-6.4h9.856v14.208c0 3.627-.896 6.421-2.688 8.384-1.792 1.92-4.395 2.88-7.808 2.88-3.414 0-6.016-.96-7.808-2.88-1.792-1.963-2.688-4.757-2.688-8.384v-23.296c0-3.627.896-6.4 2.688-8.32 1.792-1.963 4.394-2.944 7.808-2.944 3.413 0 6.016.981 7.808 2.944 1.792 1.92 2.688 4.693 2.688 8.32v4.352h-6.656v-4.8c0-2.944-1.216-4.416-3.648-4.416-2.432 0-3.648 1.472-3.648 4.416v24.192c0 2.901 1.216 4.352 3.648 4.352 2.432 0 3.648-1.451 3.648-4.352v-8.256h-3.2zm43.642-26.24c6.998 0 10.496 3.691 10.496 11.072v5.824c0 7.381-3.498 11.072-10.496 11.072h-3.328V158h-7.04v-44.8h10.368zm0 6.4h-3.328v15.168h3.328c1.152 0 2.006-.32 2.56-.96.598-.64.896-1.728.896-3.264v-6.72c0-1.536-.298-2.624-.896-3.264-.554-.64-1.408-.96-2.56-.96zm33.354-6.4l7.168 44.8h-7.104l-1.216-8.128h-8.64L244.676 158h-6.464l7.168-44.8h10.304zm-5.504 7.936l-3.392 22.656h6.784l-3.392-22.656zm30.99 18.304v-6.4h9.856v14.208c0 3.627-.896 6.421-2.688 8.384-1.792 1.92-4.395 2.88-7.808 2.88-3.413 0-6.016-.96-7.808-2.88-1.792-1.963-2.688-4.757-2.688-8.384v-23.296c0-3.627.896-6.4 2.688-8.32 1.792-1.963 4.395-2.944 7.808-2.944 3.413 0 6.016.981 7.808 2.944 1.792 1.92 2.688 4.693 2.688 8.32v4.352h-6.656v-4.8c0-2.944-1.216-4.416-3.648-4.416-2.432 0-3.648 1.472-3.648 4.416v24.192c0 2.901 1.216 4.352 3.648 4.352 2.432 0 3.648-1.451 3.648-4.352v-8.256h-3.2zm25.897-19.84v12.48h9.665v6.4h-9.665v13.12h12.16v6.4h-19.2v-44.8h19.2v6.4h-12.16z" fill="#7ECFDA"/></svg>