<svg width="329" height="302" viewBox="0 0 329 302" fill="none" xmlns="http://www.w3.org/2000/svg">
<path d="M18.144 45H13.5L6.507 35.226V45H2.43V25.722H6.507V35.064L13.419 25.722H17.766L10.746 34.983L18.144 45ZM30.2366 25.722C32.7206 25.722 34.5296 26.262 35.6636 27.342C36.8156 28.404 37.3916 29.871 37.3916 31.743C37.3916 32.877 37.1576 33.93 36.6896 34.902C36.2216 35.874 35.4386 36.657 34.3406 37.251C33.2606 37.845 31.7846 38.142 29.9126 38.142H28.1576V45H24.0806V25.722H30.2366ZM30.0206 29.07H28.1576V34.794H29.5076C30.6596 34.794 31.5686 34.569 32.2346 34.119C32.9186 33.651 33.2606 32.904 33.2606 31.878C33.2606 30.006 32.1806 29.07 30.0206 29.07ZM55.6417 45H44.5447V25.722H55.6417V29.07H48.6217V33.309H55.1557V36.657H48.6217V41.625H55.6417V45ZM74.9621 45L73.5581 40.41H66.5381L65.1341 45H60.7331L67.5371 25.641H72.5321L79.3631 45H74.9621ZM72.5861 36.981L71.1821 32.499C71.0921 32.193 70.9751 31.806 70.8311 31.338C70.6871 30.87 70.5431 30.393 70.3991 29.907C70.2551 29.421 70.1381 28.998 70.0481 28.638C69.9581 28.998 69.8321 29.448 69.6701 29.988C69.5261 30.51 69.3821 31.014 69.2381 31.5C69.1121 31.968 69.0131 32.301 68.9411 32.499L67.5641 36.981H72.5861ZM90.8413 45H86.7643V29.124H81.5263V25.722H96.0793V29.124H90.8413V45ZM102.562 25.722H106.234V35.037C106.234 35.487 106.225 35.991 106.207 36.549C106.189 37.107 106.171 37.656 106.153 38.196C106.135 38.718 106.117 39.177 106.099 39.573C106.081 39.951 106.063 40.212 106.045 40.356H106.126L115.036 25.722H119.923V45H116.278V35.739C116.278 35.253 116.287 34.722 116.305 34.146C116.323 33.552 116.341 32.985 116.359 32.445C116.395 31.905 116.422 31.437 116.44 31.041C116.476 30.627 116.503 30.357 116.521 30.231H116.413L107.476 45H102.562V25.722ZM128.3 25.722H134.294C136.85 25.722 138.785 26.082 140.099 26.802C141.431 27.522 142.097 28.791 142.097 30.609C142.097 31.707 141.836 32.634 141.314 33.39C140.81 34.146 140.081 34.605 139.127 34.767V34.902C139.757 35.046 140.333 35.28 140.855 35.604C141.395 35.91 141.818 36.369 142.124 36.981C142.43 37.593 142.583 38.403 142.583 39.411C142.583 41.157 141.944 42.525 140.666 43.515C139.406 44.505 137.687 45 135.509 45H128.3V25.722ZM132.377 33.363H134.753C135.941 33.363 136.76 33.183 137.21 32.823C137.678 32.445 137.912 31.887 137.912 31.149C137.912 30.411 137.642 29.88 137.102 29.556C136.562 29.232 135.707 29.07 134.537 29.07H132.377V33.363ZM132.377 36.603V41.625H135.05C136.274 41.625 137.129 41.391 137.615 40.923C138.101 40.437 138.344 39.798 138.344 39.006C138.344 38.286 138.092 37.71 137.588 37.278C137.102 36.828 136.211 36.603 134.915 36.603H132.377ZM165.745 45H161.668V36.684H154.027V45H149.95V25.722H154.027V33.282H161.668V25.722H165.745V45ZM174.106 45V25.722H178.183V33.12H179.506C181.288 33.12 182.746 33.372 183.88 33.876C185.032 34.38 185.887 35.073 186.445 35.955C187.003 36.837 187.282 37.845 187.282 38.979C187.282 40.887 186.652 42.372 185.392 43.434C184.132 44.478 182.125 45 179.371 45H174.106ZM189.631 45V25.722H193.708V45H189.631ZM178.183 41.652H179.263C180.469 41.652 181.414 41.454 182.098 41.058C182.8 40.662 183.151 39.969 183.151 38.979C183.151 37.953 182.791 37.278 182.071 36.954C181.369 36.63 180.37 36.468 179.074 36.468H178.183V41.652ZM202.084 25.722H205.756V35.037C205.756 35.487 205.747 35.991 205.729 36.549C205.711 37.107 205.693 37.656 205.675 38.196C205.657 38.718 205.639 39.177 205.621 39.573C205.603 39.951 205.585 40.212 205.567 40.356H205.648L214.558 25.722H219.445V45H215.8V35.739C215.8 35.253 215.809 34.722 215.827 34.146C215.845 33.552 215.863 32.985 215.881 32.445C215.917 31.905 215.944 31.437 215.962 31.041C215.998 30.627 216.025 30.357 216.043 30.231H215.935L206.998 45H202.084V25.722ZM217.609 19.377C217.519 20.313 217.258 21.141 216.826 21.861C216.394 22.563 215.719 23.112 214.801 23.508C213.883 23.904 212.65 24.102 211.102 24.102C209.518 24.102 208.276 23.913 207.376 23.535C206.494 23.157 205.864 22.617 205.486 21.915C205.108 21.195 204.883 20.349 204.811 19.377H208.402C208.474 20.367 208.717 21.024 209.131 21.348C209.563 21.672 210.247 21.834 211.183 21.834C211.957 21.834 212.587 21.663 213.073 21.321C213.577 20.961 213.874 20.313 213.964 19.377H217.609ZM237.766 45V25.722H249.943V29.097H241.843V33.12H243.463C245.281 33.12 246.766 33.372 247.918 33.876C249.088 34.38 249.952 35.073 250.51 35.955C251.068 36.837 251.347 37.845 251.347 38.979C251.347 40.887 250.708 42.372 249.43 43.434C248.17 44.478 246.154 45 243.382 45H237.766ZM241.843 41.652H243.22C244.462 41.652 245.434 41.454 246.136 41.058C246.856 40.662 247.216 39.969 247.216 38.979C247.216 37.953 246.829 37.278 246.055 36.954C245.281 36.63 244.228 36.468 242.896 36.468H241.843V41.652ZM264.649 25.722C267.133 25.722 268.942 26.262 270.076 27.342C271.228 28.404 271.804 29.871 271.804 31.743C271.804 32.877 271.57 33.93 271.102 34.902C270.634 35.874 269.851 36.657 268.753 37.251C267.673 37.845 266.197 38.142 264.325 38.142H262.57V45H258.493V25.722H264.649ZM264.433 29.07H262.57V34.794H263.92C265.072 34.794 265.981 34.569 266.647 34.119C267.331 33.651 267.673 32.904 267.673 31.878C267.673 30.006 266.593 29.07 264.433 29.07ZM278.957 25.722H282.629V35.037C282.629 35.487 282.62 35.991 282.602 36.549C282.584 37.107 282.566 37.656 282.548 38.196C282.53 38.718 282.512 39.177 282.494 39.573C282.476 39.951 282.458 40.212 282.44 40.356H282.521L291.431 25.722H296.318V45H292.673V35.739C292.673 35.253 292.682 34.722 292.7 34.146C292.718 33.552 292.736 32.985 292.754 32.445C292.79 31.905 292.817 31.437 292.835 31.041C292.871 30.627 292.898 30.357 292.916 30.231H292.808L283.871 45H278.957V25.722ZM315.711 25.452V27.828C317.799 27.882 319.473 28.251 320.733 28.935C321.993 29.601 322.893 30.465 323.433 31.527C323.991 32.589 324.27 33.75 324.27 35.01C324.27 35.82 324.126 36.648 323.838 37.494C323.568 38.34 323.1 39.123 322.434 39.843C321.786 40.545 320.913 41.121 319.815 41.571C318.717 42.021 317.349 42.264 315.711 42.3V45.27H312.039V42.3C310.383 42.264 308.997 42.021 307.881 41.571C306.783 41.121 305.91 40.536 305.262 39.816C304.614 39.096 304.155 38.322 303.885 37.494C303.615 36.648 303.48 35.82 303.48 35.01C303.48 33.75 303.75 32.589 304.29 31.527C304.848 30.465 305.748 29.601 306.99 28.935C308.25 28.251 309.933 27.882 312.039 27.828V25.452H315.711ZM312.039 31.014C310.275 31.086 309.042 31.491 308.34 32.229C307.656 32.967 307.314 33.885 307.314 34.983C307.314 36.189 307.683 37.17 308.421 37.926C309.177 38.664 310.383 39.069 312.039 39.141V31.014ZM315.711 31.014V39.141C317.367 39.069 318.564 38.664 319.302 37.926C320.058 37.17 320.436 36.189 320.436 34.983C320.436 33.885 320.085 32.967 319.383 32.229C318.699 31.491 317.475 31.086 315.711 31.014ZM9.6 97.8V117H2.56V72.2H9.6V91.4H17.6V72.2H24.768V117H17.6V97.8H9.6ZM46.1285 72.2L53.2965 117H46.1925L44.9765 108.872H36.3365L35.1205 117H28.6565L35.8245 72.2H46.1285ZM40.6245 80.136L37.2325 102.792H44.0165L40.6245 80.136ZM78.1605 72.2C85.1578 72.2 88.6565 75.8907 88.6565 83.272V89.096C88.6565 96.4773 85.1578 100.168 78.1605 100.168H74.8325V117H67.7925V72.2H78.1605ZM78.1605 78.6H74.8325V93.768H78.1605C79.3125 93.768 80.1658 93.448 80.7205 92.808C81.3178 92.168 81.6165 91.08 81.6165 89.544V82.824C81.6165 81.288 81.3178 80.2 80.7205 79.56C80.1658 78.92 79.3125 78.6 78.1605 78.6ZM108.173 72.2L115.341 117H108.237L107.021 108.872H98.3815L97.1655 117H90.7015L97.8695 72.2H108.173ZM102.669 80.136L99.2775 102.792H106.061L102.669 80.136ZM132.828 85.704V83.208C132.828 81.288 132.508 79.9653 131.868 79.24C131.271 78.472 130.375 78.088 129.18 78.088C126.705 78.088 125.468 79.56 125.468 82.504V86.152H119.004V82.824C119.004 79.1973 119.879 76.4453 121.628 74.568C123.377 72.648 125.959 71.688 129.372 71.688C132.785 71.688 135.388 72.6693 137.18 74.632C138.972 76.552 139.868 79.3253 139.868 82.952V84.104C139.868 88.8827 138.225 91.9547 134.94 93.32C138.225 94.7707 139.868 97.9067 139.868 102.728V106.248C139.868 109.875 138.972 112.669 137.18 114.632C135.388 116.552 132.785 117.512 129.372 117.512C125.959 117.512 123.356 116.552 121.564 114.632C119.772 112.669 118.876 109.875 118.876 106.248V101.32H125.532V106.696C125.532 109.64 126.748 111.112 129.18 111.112C130.375 111.112 131.271 110.749 131.868 110.024C132.508 109.256 132.828 107.933 132.828 106.056V102.536C132.828 100.488 132.465 99.0373 131.74 98.184C131.015 97.288 129.841 96.84 128.22 96.84H126.492V90.44H128.604C130.012 90.44 131.057 90.0773 131.74 89.352C132.465 88.6267 132.828 87.4107 132.828 85.704ZM155.643 72.2C162.64 72.2 166.139 75.8907 166.139 83.272V89.096C166.139 96.4773 162.64 100.168 155.643 100.168H152.315V117H145.275V72.2H155.643ZM155.643 78.6H152.315V93.768H155.643C156.795 93.768 157.648 93.448 158.203 92.808C158.8 92.168 159.099 91.08 159.099 89.544V82.824C159.099 81.288 158.8 80.2 158.203 79.56C157.648 78.92 156.795 78.6 155.643 78.6ZM185.656 72.2L192.824 117H185.72L184.504 108.872H175.864L174.648 117H168.184L175.352 72.2H185.656ZM180.152 80.136L176.76 102.792H183.544L180.152 80.136ZM207.942 117H196.806V72.2H216.518V78.6H203.846V90.056H207.942C211.441 90.056 214.086 91.016 215.878 92.936C217.67 94.8133 218.566 97.544 218.566 101.128V105.928C218.566 109.512 217.67 112.264 215.878 114.184C214.086 116.061 211.441 117 207.942 117ZM203.846 110.6H207.942C210.332 110.6 211.526 109.192 211.526 106.376V100.68C211.526 97.864 210.332 96.456 207.942 96.456H203.846V110.6ZM230.409 82.504V106.696C230.409 109.64 231.625 111.112 234.057 111.112C236.489 111.112 237.705 109.64 237.705 106.696V82.504C237.705 79.56 236.489 78.088 234.057 78.088C231.625 78.088 230.409 79.56 230.409 82.504ZM223.369 106.248V82.952C223.369 79.368 224.286 76.5947 226.121 74.632C227.956 72.6693 230.601 71.688 234.057 71.688C237.513 71.688 240.158 72.6693 241.993 74.632C243.828 76.5947 244.745 79.368 244.745 82.952V106.248C244.745 109.832 243.828 112.605 241.993 114.568C240.158 116.531 237.513 117.512 234.057 117.512C230.601 117.512 227.956 116.531 226.121 114.568C224.286 112.605 223.369 109.832 223.369 106.248ZM247.912 78.6V72.2H269.672V78.6H262.312V117H255.272V78.6H247.912ZM289.477 117L282.629 99.144L280.453 103.24V117H273.413V72.2H280.453V91.72L289.669 72.2H296.709L286.917 92.168L296.709 117H289.477ZM323.72 72.2L316.168 105.608C315.272 109.96 313.843 113.032 311.88 114.824C309.918 116.616 306.611 117.363 301.96 117.064V110.792C303.88 110.92 305.331 110.728 306.312 110.216C307.294 109.704 307.912 108.68 308.168 107.144L308.232 106.76L298.504 72.2H305.48L309.32 87.496L311.496 97.992L313.16 87.56L316.36 72.2H323.72Z" fill="#424241"/>
<path d="M12.288 132.2L17.472 164.008L22.272 132.2H32.064V177H25.408V144.872L20.544 177H13.888L8.64 145.32V177H2.496V132.2H12.288ZM44.865 157.8V177H37.825V132.2H44.865V151.4H52.865V132.2H60.033V177H52.865V157.8H44.865ZM72.2415 142.504V166.696C72.2415 169.64 73.4575 171.112 75.8895 171.112C78.3215 171.112 79.5375 169.64 79.5375 166.696V142.504C79.5375 139.56 78.3215 138.088 75.8895 138.088C73.4575 138.088 72.2415 139.56 72.2415 142.504ZM65.2015 166.248V142.952C65.2015 139.368 66.1188 136.595 67.9535 134.632C69.7882 132.669 72.4335 131.688 75.8895 131.688C79.3455 131.688 81.9908 132.669 83.8255 134.632C85.6602 136.595 86.5775 139.368 86.5775 142.952V166.248C86.5775 169.832 85.6602 172.605 83.8255 174.568C81.9908 176.531 79.3455 177.512 75.8895 177.512C72.4335 177.512 69.7882 176.531 67.9535 174.568C66.1188 172.605 65.2015 169.832 65.2015 166.248ZM98.8965 177H91.8565V132.2H110.417V138.6H98.8965V177ZM122.271 142.504V166.696C122.271 169.64 123.487 171.112 125.919 171.112C128.351 171.112 129.567 169.64 129.567 166.696V142.504C129.567 139.56 128.351 138.088 125.919 138.088C123.487 138.088 122.271 139.56 122.271 142.504ZM115.231 166.248V142.952C115.231 139.368 116.149 136.595 117.983 134.632C119.818 132.669 122.463 131.688 125.919 131.688C129.375 131.688 132.021 132.669 133.855 134.632C135.69 136.595 136.607 139.368 136.607 142.952V166.248C136.607 169.832 135.69 172.605 133.855 174.568C132.021 176.531 129.375 177.512 125.919 177.512C122.463 177.512 119.818 176.531 117.983 174.568C116.149 172.605 115.231 169.832 115.231 166.248ZM141.502 157.8V151.4H154.302V157.8H141.502ZM16.32 220.296H22.976V226.248C22.976 229.875 22.08 232.669 20.288 234.632C18.496 236.552 15.8933 237.512 12.48 237.512C9.06667 237.512 6.464 236.552 4.672 234.632C2.88 232.669 1.984 229.875 1.984 226.248V202.952C1.984 199.325 2.88 196.552 4.672 194.632C6.464 192.669 9.06667 191.688 12.48 191.688C15.8933 191.688 18.496 192.669 20.288 194.632C22.08 196.552 22.976 199.325 22.976 202.952V207.304H16.32V202.504C16.32 199.56 15.104 198.088 12.672 198.088C10.24 198.088 9.024 199.56 9.024 202.504V226.696C9.024 229.597 10.24 231.048 12.672 231.048C15.104 231.048 16.32 229.597 16.32 226.696V220.296ZM25.8395 198.6V192.2H47.5995V198.6H40.2395V237H33.1995V198.6H25.8395ZM61.708 192.2C68.7053 192.2 72.204 195.891 72.204 203.272V209.096C72.204 216.477 68.7053 220.168 61.708 220.168H58.38V237H51.34V192.2H61.708ZM61.708 198.6H58.38V213.768H61.708C62.86 213.768 63.7133 213.448 64.268 212.808C64.8653 212.168 65.164 211.08 65.164 209.544V202.824C65.164 201.288 64.8653 200.2 64.268 199.56C63.7133 198.92 62.86 198.6 61.708 198.6ZM91.721 192.2L98.889 237H91.785L90.569 228.872H81.929L80.713 237H74.249L81.417 192.2H91.721ZM86.217 200.136L82.825 222.792H89.609L86.217 200.136ZM109.847 217.8V237H102.807V192.2H109.847V211.4H117.847V192.2H125.015V237H117.847V217.8H109.847ZM143.88 216.456L137.992 237H130.76V192.2H137.032V220.552L139.592 210.696L145.352 192.2H153.096V237H146.76V205.448L143.88 216.456ZM173.048 192.2H180.088V237H173.048V218.952C171.512 220.616 169.507 221.448 167.032 221.448C164.216 221.448 162.04 220.531 160.504 218.696C159.011 216.819 158.264 214.301 158.264 211.144V192.2H165.304V210.568C165.304 212.019 165.688 213.128 166.456 213.896C167.224 214.621 168.206 214.984 169.4 214.984C170.552 214.984 171.448 214.6 172.088 213.832C172.728 213.021 173.048 211.869 173.048 210.376V192.2ZM192.955 217.8V237H185.915V192.2H192.955V211.4H200.955V192.2H208.123V237H200.955V217.8H192.955ZM220.331 202.504V226.696C220.331 229.64 221.547 231.112 223.979 231.112C226.411 231.112 227.627 229.64 227.627 226.696V202.504C227.627 199.56 226.411 198.088 223.979 198.088C221.547 198.088 220.331 199.56 220.331 202.504ZM213.291 226.248V202.952C213.291 199.368 214.209 196.595 216.043 194.632C217.878 192.669 220.523 191.688 223.979 191.688C227.435 191.688 230.081 192.669 231.915 194.632C233.75 196.595 234.667 199.368 234.667 202.952V226.248C234.667 229.832 233.75 232.605 231.915 234.568C230.081 236.531 227.435 237.512 223.979 237.512C220.523 237.512 217.878 236.531 216.043 234.568C214.209 232.605 213.291 229.832 213.291 226.248ZM246.986 237H239.946V192.2H258.506V198.6H246.986V237ZM270.361 202.504V226.696C270.361 229.64 271.577 231.112 274.009 231.112C276.441 231.112 277.657 229.64 277.657 226.696V202.504C277.657 199.56 276.441 198.088 274.009 198.088C271.577 198.088 270.361 199.56 270.361 202.504ZM263.321 226.248V202.952C263.321 199.368 264.239 196.595 266.073 194.632C267.908 192.669 270.553 191.688 274.009 191.688C277.465 191.688 280.111 192.669 281.945 194.632C283.78 196.595 284.697 199.368 284.697 202.952V226.248C284.697 229.832 283.78 232.605 281.945 234.568C280.111 236.531 277.465 237.512 274.009 237.512C270.553 237.512 267.908 236.531 266.073 234.568C264.239 232.605 263.321 229.832 263.321 226.248ZM16.32 280.296H22.976V286.248C22.976 289.875 22.08 292.669 20.288 294.632C18.496 296.552 15.8933 297.512 12.48 297.512C9.06667 297.512 6.464 296.552 4.672 294.632C2.88 292.669 1.984 289.875 1.984 286.248V262.952C1.984 259.325 2.88 256.552 4.672 254.632C6.464 252.669 9.06667 251.688 12.48 251.688C15.8933 251.688 18.496 252.669 20.288 254.632C22.08 256.552 22.976 259.325 22.976 262.952V267.304H16.32V262.504C16.32 259.56 15.104 258.088 12.672 258.088C10.24 258.088 9.024 259.56 9.024 262.504V286.696C9.024 289.597 10.24 291.048 12.672 291.048C15.104 291.048 16.32 289.597 16.32 286.696V280.296ZM43.5035 252.2L50.6715 297H43.5675L42.3515 288.872H33.7115L32.4955 297H26.0315L33.1995 252.2H43.5035ZM37.9995 260.136L34.6075 282.792H41.3915L37.9995 260.136ZM61.822 297H54.59V252.2H60.862V280.552L63.422 270.696L69.182 252.2H76.926V297H70.59V265.448L67.71 276.456L61.822 297ZM69.054 242.216C68.9687 243.325 68.67 244.093 68.158 244.52C67.646 244.947 66.878 245.16 65.854 245.16C64.8727 245.16 64.1473 244.968 63.678 244.584C63.2087 244.157 62.9313 243.368 62.846 242.216H58.494C58.5793 244.477 59.2193 246.227 60.414 247.464C61.6513 248.701 63.4647 249.32 65.854 249.32C68.286 249.32 70.142 248.701 71.422 247.464C72.702 246.184 73.342 244.435 73.342 242.216H69.054ZM80.6195 258.6V252.2H102.379V258.6H95.0195V297H87.9795V258.6H80.6195ZM121.736 252.2L128.904 297H121.8L120.584 288.872H111.944L110.728 297H104.264L111.432 252.2H121.736ZM116.232 260.136L112.84 282.792H119.624L116.232 260.136Z" fill="#7ECFDA"/>
</svg>
