<svg width="858" height="173" viewBox="0 0 858 173" fill="none" xmlns="http://www.w3.org/2000/svg">
<path d="M186.921 38H182.105L174.853 27.864V38H170.625V18.008H174.853V27.696L182.021 18.008H186.529L179.249 27.612L186.921 38ZM212.622 18.008C215.198 18.008 217.074 18.568 218.25 19.688C219.444 20.7893 220.042 22.3107 220.042 24.252C220.042 25.428 219.799 26.52 219.314 27.528C218.828 28.536 218.016 29.348 216.878 29.964C215.758 30.58 214.227 30.888 212.286 30.888H210.466V38H206.238V18.008H212.622ZM212.398 21.48H210.466V27.416H211.866C213.06 27.416 214.003 27.1827 214.694 26.716C215.403 26.2307 215.758 25.456 215.758 24.392C215.758 22.4507 214.638 21.48 212.398 21.48ZM252.128 38H240.62V18.008H252.128V21.48H244.848V25.876H251.624V29.348H244.848V34.5H252.128V38ZM285.324 38L283.868 33.24H276.588L275.132 38H270.568L277.624 17.924H282.804L289.888 38H285.324ZM282.86 29.684L281.404 25.036C281.31 24.7187 281.189 24.3173 281.04 23.832C280.89 23.3467 280.741 22.852 280.592 22.348C280.442 21.844 280.321 21.4053 280.228 21.032C280.134 21.4053 280.004 21.872 279.836 22.432C279.686 22.9733 279.537 23.496 279.388 24C279.257 24.4853 279.154 24.8307 279.08 25.036L277.652 29.684H282.86ZM314.951 38H310.723V21.536H305.291V18.008H320.383V21.536H314.951V38ZM340.266 18.008H344.074V27.668C344.074 28.1347 344.064 28.6573 344.046 29.236C344.027 29.8147 344.008 30.384 343.99 30.944C343.971 31.4853 343.952 31.9613 343.934 32.372C343.915 32.764 343.896 33.0347 343.878 33.184H343.962L353.202 18.008H358.27V38H354.49V28.396C354.49 27.892 354.499 27.3413 354.518 26.744C354.536 26.128 354.555 25.54 354.574 24.98C354.611 24.42 354.639 23.9347 354.658 23.524C354.695 23.0947 354.723 22.8147 354.742 22.684H354.63L345.362 38H340.266V18.008ZM380.116 18.008H386.332C388.983 18.008 390.99 18.3813 392.352 19.128C393.734 19.8747 394.424 21.1907 394.424 23.076C394.424 24.2147 394.154 25.176 393.612 25.96C393.09 26.744 392.334 27.22 391.344 27.388V27.528C391.998 27.6773 392.595 27.92 393.136 28.256C393.696 28.5733 394.135 29.0493 394.452 29.684C394.77 30.3187 394.928 31.1587 394.928 32.204C394.928 34.0147 394.266 35.4333 392.94 36.46C391.634 37.4867 389.851 38 387.592 38H380.116V18.008ZM384.344 25.932H386.808C388.04 25.932 388.89 25.7453 389.356 25.372C389.842 24.98 390.084 24.4013 390.084 23.636C390.084 22.8707 389.804 22.32 389.244 21.984C388.684 21.648 387.798 21.48 386.584 21.48H384.344V25.932ZM384.344 29.292V34.5H387.116C388.386 34.5 389.272 34.2573 389.776 33.772C390.28 33.268 390.532 32.6053 390.532 31.784C390.532 31.0373 390.271 30.44 389.748 29.992C389.244 29.5253 388.32 29.292 386.976 29.292H384.344ZM432.109 38H427.881V29.376H419.957V38H415.729V18.008H419.957V25.848H427.881V18.008H432.109V38ZM453.939 38V18.008H458.167V25.68H459.539C461.387 25.68 462.899 25.9413 464.075 26.464C465.27 26.9867 466.156 27.7053 466.735 28.62C467.314 29.5347 467.603 30.58 467.603 31.756C467.603 33.7347 466.95 35.2747 465.643 36.376C464.336 37.4587 462.255 38 459.399 38H453.939ZM470.039 38V18.008H474.267V38H470.039ZM458.167 34.528H459.287C460.538 34.528 461.518 34.3227 462.227 33.912C462.955 33.5013 463.319 32.7827 463.319 31.756C463.319 30.692 462.946 29.992 462.199 29.656C461.471 29.32 460.435 29.152 459.091 29.152H458.167V34.528ZM496.114 18.008H499.922V27.668C499.922 28.1347 499.913 28.6573 499.894 29.236C499.875 29.8147 499.857 30.384 499.838 30.944C499.819 31.4853 499.801 31.9613 499.782 32.372C499.763 32.764 499.745 33.0347 499.726 33.184H499.81L509.05 18.008H514.118V38H510.338V28.396C510.338 27.892 510.347 27.3413 510.366 26.744C510.385 26.128 510.403 25.54 510.422 24.98C510.459 24.42 510.487 23.9347 510.506 23.524C510.543 23.0947 510.571 22.8147 510.59 22.684H510.478L501.21 38H496.114V18.008ZM512.214 11.428C512.121 12.3987 511.85 13.2573 511.402 14.004C510.954 14.732 510.254 15.3013 509.302 15.712C508.35 16.1227 507.071 16.328 505.466 16.328C503.823 16.328 502.535 16.132 501.602 15.74C500.687 15.348 500.034 14.788 499.642 14.06C499.25 13.3133 499.017 12.436 498.942 11.428H502.666C502.741 12.4547 502.993 13.136 503.422 13.472C503.87 13.808 504.579 13.976 505.55 13.976C506.353 13.976 507.006 13.7987 507.51 13.444C508.033 13.0707 508.341 12.3987 508.434 11.428H512.214ZM559.437 38V18.008H572.065V21.508H563.665V25.68H565.345C567.23 25.68 568.77 25.9413 569.965 26.464C571.178 26.9867 572.074 27.7053 572.653 28.62C573.231 29.5347 573.521 30.58 573.521 31.756C573.521 33.7347 572.858 35.2747 571.533 36.376C570.226 37.4587 568.135 38 565.261 38H559.437ZM563.665 34.528H565.093C566.381 34.528 567.389 34.3227 568.117 33.912C568.863 33.5013 569.237 32.7827 569.237 31.756C569.237 30.692 568.835 29.992 568.033 29.656C567.23 29.32 566.138 29.152 564.757 29.152H563.665V34.528ZM600.476 18.008C603.052 18.008 604.928 18.568 606.104 19.688C607.299 20.7893 607.896 22.3107 607.896 24.252C607.896 25.428 607.654 26.52 607.168 27.528C606.683 28.536 605.871 29.348 604.732 29.964C603.612 30.58 602.082 30.888 600.14 30.888H598.32V38H594.092V18.008H600.476ZM600.252 21.48H598.32V27.416H599.72C600.915 27.416 601.858 27.1827 602.548 26.716C603.258 26.2307 603.612 25.456 603.612 24.392C603.612 22.4507 602.492 21.48 600.252 21.48ZM628.474 18.008H632.282V27.668C632.282 28.1347 632.273 28.6573 632.254 29.236C632.236 29.8147 632.217 30.384 632.198 30.944C632.18 31.4853 632.161 31.9613 632.142 32.372C632.124 32.764 632.105 33.0347 632.086 33.184H632.17L641.41 18.008H646.478V38H642.698V28.396C642.698 27.892 642.708 27.3413 642.726 26.744C642.745 26.128 642.764 25.54 642.782 24.98C642.82 24.42 642.848 23.9347 642.866 23.524C642.904 23.0947 642.932 22.8147 642.95 22.684H642.838L633.57 38H628.474V18.008ZM679.749 17.728V20.192C681.914 20.248 683.65 20.6307 684.957 21.34C686.264 22.0307 687.197 22.9267 687.757 24.028C688.336 25.1293 688.625 26.3333 688.625 27.64C688.625 28.48 688.476 29.3387 688.177 30.216C687.897 31.0933 687.412 31.9053 686.721 32.652C686.049 33.38 685.144 33.9773 684.005 34.444C682.866 34.9107 681.448 35.1627 679.749 35.2V38.28H675.941V35.2C674.224 35.1627 672.786 34.9107 671.629 34.444C670.49 33.9773 669.585 33.3707 668.913 32.624C668.241 31.8773 667.765 31.0747 667.485 30.216C667.205 29.3387 667.065 28.48 667.065 27.64C667.065 26.3333 667.345 25.1293 667.905 24.028C668.484 22.9267 669.417 22.0307 670.705 21.34C672.012 20.6307 673.757 20.248 675.941 20.192V17.728H679.749ZM675.941 23.496C674.112 23.5707 672.833 23.9907 672.105 24.756C671.396 25.5213 671.041 26.4733 671.041 27.612C671.041 28.8627 671.424 29.88 672.189 30.664C672.973 31.4293 674.224 31.8493 675.941 31.924V23.496ZM679.749 23.496V31.924C681.466 31.8493 682.708 31.4293 683.473 30.664C684.257 29.88 684.649 28.8627 684.649 27.612C684.649 26.4733 684.285 25.5213 683.557 24.756C682.848 23.9907 681.578 23.5707 679.749 23.496ZM305.081 86.9909V103H299.211V65.6455H305.081V81.6545H311.751V65.6455H317.728V103H311.751V86.9909H305.081ZM335.005 65.6455L340.981 103H335.058L334.044 96.2228H326.84L325.826 103H320.436L326.413 65.6455H335.005ZM330.415 72.2625L327.587 91.1533H333.244L330.415 72.2625ZM360.646 65.6455C366.48 65.6455 369.398 68.7228 369.398 74.8774V79.7335C369.398 85.8881 366.48 88.9654 360.646 88.9654H357.871V103H352.001V65.6455H360.646ZM360.646 70.9818H357.871V83.629H360.646C361.607 83.629 362.318 83.3622 362.781 82.8285C363.279 82.2949 363.528 81.3877 363.528 80.107V74.5038C363.528 73.2231 363.279 72.3159 362.781 71.7823C362.318 71.2486 361.607 70.9818 360.646 70.9818ZM385.137 65.6455L391.114 103H385.191L384.177 96.2228H376.973L375.959 103H370.569L376.546 65.6455H385.137ZM380.548 72.2625L377.72 91.1533H383.376L380.548 72.2625ZM405.161 76.9052V74.824C405.161 73.2231 404.894 72.1202 404.36 71.5155C403.862 70.8751 403.115 70.5549 402.119 70.5549C400.056 70.5549 399.024 71.7823 399.024 74.237V77.2787H393.634V74.5038C393.634 71.4799 394.364 69.1852 395.822 67.6199C397.281 66.019 399.433 65.2185 402.279 65.2185C405.125 65.2185 407.295 66.0368 408.79 67.6733C410.284 69.2742 411.031 71.5866 411.031 74.6105V75.5711C411.031 79.5556 409.661 82.117 406.922 83.2555C409.661 84.465 411.031 87.0798 411.031 91.0999V94.0349C411.031 97.0588 410.284 99.3891 408.79 101.026C407.295 102.626 405.125 103.427 402.279 103.427C399.433 103.427 397.263 102.626 395.769 101.026C394.275 99.3891 393.528 97.0588 393.528 94.0349V89.9259H399.077V94.4085C399.077 96.8632 400.091 98.0905 402.119 98.0905C403.115 98.0905 403.862 97.7882 404.36 97.1834C404.894 96.543 405.161 95.4402 405.161 93.8748V90.9398C405.161 89.2322 404.858 88.0226 404.254 87.3111C403.649 86.564 402.671 86.1905 401.319 86.1905H399.878V80.8541H401.639C402.813 80.8541 403.684 80.5517 404.254 79.9469C404.858 79.3421 405.161 78.3282 405.161 76.9052ZM423.65 65.6455C429.485 65.6455 432.402 68.7228 432.402 74.8774V79.7335C432.402 85.8881 429.485 88.9654 423.65 88.9654H420.876V103H415.006V65.6455H423.65ZM423.65 70.9818H420.876V83.629H423.65C424.611 83.629 425.323 83.3622 425.785 82.8285C426.283 82.2949 426.532 81.3877 426.532 80.107V74.5038C426.532 73.2231 426.283 72.3159 425.785 71.7823C425.323 71.2486 424.611 70.9818 423.65 70.9818ZM448.142 65.6455L454.119 103H448.195L447.181 96.2228H439.977L438.963 103H433.574L439.55 65.6455H448.142ZM443.553 72.2625L440.724 91.1533H446.381L443.553 72.2625ZM466.191 103H456.906V65.6455H473.342V70.9818H462.776V80.5339H466.191C469.108 80.5339 471.314 81.3344 472.808 82.9353C474.302 84.5006 475.049 86.7775 475.049 89.7658V93.7681C475.049 96.7565 474.302 99.0511 472.808 100.652C471.314 102.217 469.108 103 466.191 103ZM462.776 97.6636H466.191C468.183 97.6636 469.179 96.4896 469.179 94.1416V89.3923C469.179 87.0443 468.183 85.8703 466.191 85.8703H462.776V97.6636ZM484.39 74.237V94.4085C484.39 96.8632 485.404 98.0905 487.432 98.0905C489.46 98.0905 490.473 96.8632 490.473 94.4085V74.237C490.473 71.7823 489.46 70.5549 487.432 70.5549C485.404 70.5549 484.39 71.7823 484.39 74.237ZM478.52 94.0349V74.6105C478.52 71.6222 479.285 69.3098 480.815 67.6733C482.344 66.0368 484.55 65.2185 487.432 65.2185C490.313 65.2185 492.519 66.0368 494.049 67.6733C495.579 69.3098 496.343 71.6222 496.343 74.6105V94.0349C496.343 97.0233 495.579 99.3357 494.049 100.972C492.519 102.609 490.313 103.427 487.432 103.427C484.55 103.427 482.344 102.609 480.815 100.972C479.285 99.3357 478.52 97.0233 478.52 94.0349ZM498.45 70.9818V65.6455H516.594V70.9818H510.457V103H504.587V70.9818H498.45ZM532.574 103L526.864 88.1115L525.049 91.5268V103H519.179V65.6455H525.049V81.9214L532.734 65.6455H538.604L530.439 82.2949L538.604 103H532.574ZM560.593 65.6455L554.296 93.5013C553.549 97.13 552.357 99.6915 550.721 101.186C549.084 102.68 546.327 103.302 542.449 103.053V97.8237C544.05 97.9305 545.26 97.7704 546.078 97.3435C546.896 96.9165 547.412 96.0627 547.625 94.782L547.679 94.4618L539.568 65.6455H545.384L548.586 78.3994L550.4 87.151L551.788 78.4527L554.456 65.6455H560.593Z" fill="#424241"/>
<path d="M179.623 116.745L184.513 146.746L189.04 116.745H198.276V159H191.998V128.697L187.41 159H181.132L176.182 129.12V159H170.388V116.745H179.623ZM209.746 140.891V159H203.106V116.745H209.746V134.855H217.291V116.745H224.052V159H217.291V140.891H209.746ZM234.963 126.464V149.281C234.963 152.058 236.11 153.447 238.404 153.447C240.698 153.447 241.844 152.058 241.844 149.281V126.464C241.844 123.687 240.698 122.299 238.404 122.299C236.11 122.299 234.963 123.687 234.963 126.464ZM228.323 148.859V126.887C228.323 123.506 229.188 120.89 230.919 119.039C232.649 117.188 235.144 116.263 238.404 116.263C241.663 116.263 244.158 117.188 245.889 119.039C247.619 120.89 248.484 123.506 248.484 126.887V148.859C248.484 152.239 247.619 154.855 245.889 156.706C244.158 158.557 241.663 159.483 238.404 159.483C235.144 159.483 232.649 158.557 230.919 156.706C229.188 154.855 228.323 152.239 228.323 148.859ZM259.5 159H252.86V116.745H270.365V122.782H259.5V159ZM280.943 126.464V149.281C280.943 152.058 282.09 153.447 284.384 153.447C286.678 153.447 287.825 152.058 287.825 149.281V126.464C287.825 123.687 286.678 122.299 284.384 122.299C282.09 122.299 280.943 123.687 280.943 126.464ZM274.303 148.859V126.887C274.303 123.506 275.168 120.89 276.899 119.039C278.629 117.188 281.124 116.263 284.384 116.263C287.643 116.263 290.138 117.188 291.869 119.039C293.599 120.89 294.465 123.506 294.465 126.887V148.859C294.465 152.239 293.599 154.855 291.869 156.706C290.138 158.557 287.643 159.483 284.384 159.483C281.124 159.483 278.629 158.557 276.899 156.706C275.168 154.855 274.303 152.239 274.303 148.859ZM311.758 143.245H318.036V148.859C318.036 152.28 317.191 154.915 315.5 156.767C313.81 158.577 311.355 159.483 308.136 159.483C304.917 159.483 302.462 158.577 300.772 156.767C299.081 154.915 298.236 152.28 298.236 148.859V126.887C298.236 123.466 299.081 120.85 300.772 119.039C302.462 117.188 304.917 116.263 308.136 116.263C311.355 116.263 313.81 117.188 315.5 119.039C317.191 120.85 318.036 123.466 318.036 126.887V130.991H311.758V126.464C311.758 123.687 310.611 122.299 308.317 122.299C306.023 122.299 304.876 123.687 304.876 126.464V149.281C304.876 152.018 306.023 153.386 308.317 153.386C310.611 153.386 311.758 152.018 311.758 149.281V143.245ZM320.133 122.782V116.745H340.656V122.782H333.715V159H327.075V122.782H320.133ZM353.36 116.745C359.959 116.745 363.259 120.226 363.259 127.188V132.681C363.259 139.643 359.959 143.124 353.36 143.124H350.221V159H343.581V116.745H353.36ZM353.36 122.782H350.221V137.088H353.36C354.446 137.088 355.251 136.786 355.774 136.183C356.338 135.579 356.619 134.553 356.619 133.104V126.766C356.619 125.317 356.338 124.291 355.774 123.687C355.251 123.084 354.446 122.782 353.36 122.782ZM381.064 116.745L387.824 159H381.124L379.977 151.334H371.828L370.681 159H364.584L371.345 116.745H381.064ZM375.872 124.231L372.673 145.599H379.072L375.872 124.231ZM397.557 140.891V159H390.917V116.745H397.557V134.855H405.102V116.745H411.863V159H405.102V140.891H397.557ZM429.052 139.623L423.498 159H416.677V116.745H422.593V143.487L425.008 134.191L430.44 116.745H437.744V159H431.768V129.241L429.052 139.623ZM455.959 116.745H462.599V159H455.959V141.977C454.511 143.547 452.619 144.332 450.285 144.332C447.629 144.332 445.577 143.466 444.128 141.736C442.72 139.965 442.015 137.591 442.015 134.613V116.745H448.655V134.07C448.655 135.438 449.018 136.484 449.742 137.209C450.466 137.893 451.392 138.235 452.519 138.235C453.605 138.235 454.45 137.873 455.054 137.148C455.658 136.384 455.959 135.297 455.959 133.889V116.745ZM474.131 140.891V159H467.491V116.745H474.131V134.855H481.677V116.745H488.437V159H481.677V140.891H474.131ZM499.349 126.464V149.281C499.349 152.058 500.496 153.447 502.789 153.447C505.083 153.447 506.23 152.058 506.23 149.281V126.464C506.23 123.687 505.083 122.299 502.789 122.299C500.496 122.299 499.349 123.687 499.349 126.464ZM492.709 148.859V126.887C492.709 123.506 493.574 120.89 495.304 119.039C497.035 117.188 499.53 116.263 502.789 116.263C506.049 116.263 508.544 117.188 510.274 119.039C512.005 120.89 512.87 123.506 512.87 126.887V148.859C512.87 152.239 512.005 154.855 510.274 156.706C508.544 158.557 506.049 159.483 502.789 159.483C499.53 159.483 497.035 158.557 495.304 156.706C493.574 154.855 492.709 152.239 492.709 148.859ZM523.886 159H517.246V116.745H534.751V122.782H523.886V159ZM545.329 126.464V149.281C545.329 152.058 546.476 153.447 548.77 153.447C551.063 153.447 552.21 152.058 552.21 149.281V126.464C552.21 123.687 551.063 122.299 548.77 122.299C546.476 122.299 545.329 123.687 545.329 126.464ZM538.689 148.859V126.887C538.689 123.506 539.554 120.89 541.284 119.039C543.015 117.188 545.51 116.263 548.77 116.263C552.029 116.263 554.524 117.188 556.255 119.039C557.985 120.89 558.85 123.506 558.85 126.887V148.859C558.85 152.239 557.985 154.855 556.255 156.706C554.524 158.557 552.029 159.483 548.77 159.483C545.51 159.483 543.015 158.557 541.284 156.706C539.554 154.855 538.689 152.239 538.689 148.859ZM585.516 143.245H591.794V148.859C591.794 152.28 590.949 154.915 589.259 156.767C587.569 158.577 585.114 159.483 581.895 159.483C578.675 159.483 576.22 158.577 574.53 156.767C572.84 154.915 571.995 152.28 571.995 148.859V126.887C571.995 123.466 572.84 120.85 574.53 119.039C576.22 117.188 578.675 116.263 581.895 116.263C585.114 116.263 587.569 117.188 589.259 119.039C590.949 120.85 591.794 123.466 591.794 126.887V130.991H585.516V126.464C585.516 123.687 584.369 122.299 582.076 122.299C579.782 122.299 578.635 123.687 578.635 126.464V149.281C578.635 152.018 579.782 153.386 582.076 153.386C584.369 153.386 585.516 152.018 585.516 149.281V143.245ZM610.552 116.745L617.312 159H610.612L609.465 151.334H601.316L600.169 159H594.072L600.833 116.745H610.552ZM605.36 124.231L602.161 145.599H608.56L605.36 124.231ZM627.226 159H620.405V116.745H626.32V143.487L628.735 134.191L634.168 116.745H641.472V159H635.496V129.241L632.779 139.623L627.226 159ZM634.047 107.329C633.966 108.375 633.685 109.099 633.202 109.502C632.719 109.904 631.994 110.105 631.029 110.105C630.103 110.105 629.419 109.924 628.976 109.562C628.534 109.16 628.272 108.415 628.192 107.329H624.087C624.167 109.462 624.771 111.112 625.898 112.279C627.065 113.446 628.775 114.029 631.029 114.029C633.322 114.029 635.073 113.446 636.28 112.279C637.488 111.071 638.091 109.421 638.091 107.329H634.047ZM644.352 122.782V116.745H664.875V122.782H657.933V159H651.293V122.782H644.352ZM682.528 116.745L689.289 159H682.589L681.442 151.334H673.293L672.146 159H666.049L672.81 116.745H682.528ZM677.337 124.231L674.138 145.599H680.536L677.337 124.231Z" fill="#7ECFDA"/>
</svg>
