<?xml version="1.0" encoding="utf-8"?>
<!-- Generator: Adobe Illustrator 25.4.1, SVG Export Plug-In . SVG Version: 6.00 Build 0)  -->
<svg version="1.1" id="Layer_1" xmlns="http://www.w3.org/2000/svg" xmlns:xlink="http://www.w3.org/1999/xlink" x="0px" y="0px"
	 viewBox="0 0 48 48" style="enable-background:new 0 0 48 48;" xml:space="preserve">
<style type="text/css">
	.st0{fill:#1976D2;}
</style>
<path class="st0" d="M37,6H11c-2.8,0-5,2.2-5,5v26c0,2.8,2.2,5,5,5h26c2.8,0,5-2.2,5-5V11C42,8.2,39.8,6,37,6z M35,32h-2.6
	c-1,0-1.3-1-3-3c-1.5-1.8-2.3-2-2.7-2c-0.5,0-0.7,0.1-0.7,0.9v3c0,0.7-0.2,1.1-1.9,1.1c-2.8,0-5.9-1.9-8.3-5.1
	c-3.3-4.5-3.9-8.4-3.9-9.1c0-0.4,0.1-0.8,0.9-0.8h2.6c0.7,0,0.9,0.3,1.2,1.1c1.2,3.9,2.9,6.9,3.8,6.9c0.3,0,0.5-0.2,0.5-1v-3.6
	c-0.1-1.9-1-2-1-2.7c0-0.3,0.2-0.6,0.6-0.6h4.6c0.6,0,0.7,0.3,0.7,1v5.2c0,0.6,0.4,0.8,0.6,0.8c0.3,0,0.6,0,1.2-0.6
	c1.9-2.2,3.5-5.6,3.5-5.6c0.2-0.4,0.5-0.8,1.1-0.8h2.6c0.6,0,0.8,0.3,0.9,0.6c0,0.1,0,0.3-0.1,0.4c-0.3,1.6-3.7,6.4-3.7,6.4
	C32.1,24.6,32,24.8,32,25c0,0.2,0.1,0.4,0.2,0.6c0.3,0.4,0.9,1.1,1.5,1.9c1.1,1.3,2,2.8,2.2,3.3c0,0.2,0.1,0.3,0.1,0.4
	C36,31.7,35.6,32,35,32z"/>
</svg>
