<?xml version="1.0" encoding="utf-8"?>
<!-- Generator: Adobe Illustrator 25.4.1, SVG Export Plug-In . SVG Version: 6.00 Build 0)  -->
<svg version="1.1" id="Layer_1" xmlns="http://www.w3.org/2000/svg" xmlns:xlink="http://www.w3.org/1999/xlink" x="0px" y="0px"
	 viewBox="0 0 36.5 36.5" style="enable-background:new 0 0 36.5 36.5;" xml:space="preserve">
<style type="text/css">
	.st0{fill-rule:evenodd;clip-rule:evenodd;fill:#808080;}
</style>
<g>
	<path class="st0" d="M5.1,0h26.3C32.8,0,34,0.5,35,1.5s1.5,2.2,1.5,3.6v26.3c0,1.3-0.5,2.6-1.5,3.6c-1,1-2.2,1.5-3.6,1.5H5.1
		c-1.3,0-2.6-0.5-3.6-1.5c-1-1-1.5-2.2-1.5-3.6V5.1c0-1.3,0.5-2.6,1.5-3.6S3.7,0,5.1,0z M17.2,17.3c1,0.6,1.6,1.4,1.8,2.6
		c0.4,2.2-0.6,4.5-2.6,5.5c-0.7,0.3-1.5,0.5-2.3,0.5c-1.4,0-2.9,0-4.3,0.1h0c-0.3,0-0.5,0-0.8,0c-0.8,0-1.6,0-2.4,0
		c-0.4,0-0.8,0-1.2,0V9.3c0.9,0,1.8,0,2.6,0c1.8,0,3.5,0,5.3,0c1,0,2.1,0.1,3,0.6c1.3,0.7,2,1.8,2.1,3.3c0,0.5,0,1-0.1,1.4
		c-0.2,1-0.7,1.7-1.6,2.2c0,0-0.1,0-0.1,0.1l0,0h0l0,0c-0.1,0-0.1,0.1-0.2,0.1c0.1,0,0.1,0.1,0.2,0.1l0,0
		C16.9,17.2,17.1,17.3,17.2,17.3z M8.8,12.2v0.3l0,3.3c0,0,0.1,0,0.1,0h0c0,0,0.1,0,0.1,0c0.3,0,0.7,0,1,0c1,0,1.9,0,2.9,0
		c0.3,0,0.6,0,0.9-0.1c0.5-0.1,1-0.3,1.3-0.9c0.2-0.5,0.2-1,0.1-1.4c-0.1-0.5-0.4-0.8-0.9-1c-0.3-0.1-0.7-0.2-1.1-0.2
		c-1.1,0-2.1,0-3.2,0c-0.4,0-0.7,0-1.1,0C8.9,12.2,8.8,12.2,8.8,12.2z M13.2,23c0.4,0,0.9-0.1,1.3-0.3c0.8-0.3,1.1-1.2,1.1-2.2
		c-0.1-0.7-0.3-1.3-1-1.6c-0.4-0.2-0.9-0.3-1.3-0.3c-1.1,0-2.1,0-3.2,0l0,0h0c-0.3,0-0.7,0-1,0c-0.1,0-0.1,0-0.2,0v4.4
		c0.4,0,0.8,0,1.3,0h0C11.1,23.1,12.2,23.1,13.2,23z M22.6,12.1h7.1v-2h-7.1V12.1z M31.9,17c-0.5-1.2-1.2-2.2-2.4-2.8
		c-1.6-0.8-3.2-1-4.9-0.6c-1.8,0.4-3.2,1.5-3.9,3.3c-0.6,1.6-0.7,3.3-0.3,5.1c0.2,1.3,0.8,2.3,1.9,3.1c1.8,1.3,3.8,1.6,5.9,1.2
		c1.6-0.3,2.8-1.2,3.6-2.6c0.2-0.4,0.4-0.7,0.4-1.2l-0.6,0l0,0c-0.9,0-1.7,0-2.5,0c-0.1,0-0.2,0.1-0.2,0.2l0,0
		c-0.1,0.1-0.1,0.2-0.2,0.3v0c-0.1,0.2-0.3,0.3-0.4,0.4c-0.9,0.7-2.5,0.7-3.5,0c-0.9-0.6-1.2-1.5-1.2-2.6h8.9
		C32.3,19.4,32.3,18.2,31.9,17z M23.5,18.6c0.2-1.8,1.3-2.7,3-2.6c1.6,0.1,2.5,1.2,2.5,2.6H23.5z"/>
</g>
</svg>
