<svg width="87" height="88" viewBox="0 0 87 88" fill="none" xmlns="http://www.w3.org/2000/svg">
<g filter="url(#filter0_d_41_15)">
<path fill-rule="evenodd" clip-rule="evenodd" d="M30.0661 25.8975H56.4097C57.7533 25.8975 59.0419 26.4312 59.992 27.3813C60.9421 28.3314 61.4758 29.6199 61.4758 30.9635V57.3072C61.4758 58.6508 60.9421 59.9394 59.992 60.8895C59.0419 61.8395 57.7533 62.3733 56.4097 62.3733H30.0661C28.7225 62.3733 27.4339 61.8395 26.4838 60.8895C25.5337 59.9394 25 58.6508 25 57.3072V30.9635C25 29.6199 25.5337 28.3314 26.4838 27.3813C27.4339 26.4312 28.7225 25.8975 30.0661 25.8975ZM42.2019 43.2469C43.1904 43.8154 43.7693 44.6838 43.9853 45.8087C44.4139 48.0406 43.4083 50.2825 41.4293 51.2592C40.7168 51.6018 39.9408 51.7863 39.1529 51.8003C37.725 51.8405 36.2957 51.8485 34.8666 51.8566H34.8665C34.6105 51.858 34.3545 51.8594 34.0986 51.8611C33.2951 51.8664 32.4917 51.8646 31.6883 51.8628C31.2866 51.8619 30.8848 51.8611 30.4831 51.8611V35.2139C31.3651 35.2139 32.2471 35.213 33.1291 35.2122C34.8934 35.2106 36.6578 35.209 38.4223 35.2139C39.4686 35.2165 40.4952 35.3535 41.4417 35.8492C42.7493 36.5312 43.4339 37.6435 43.5252 39.1225C43.5544 39.6007 43.528 40.0808 43.4464 40.5527C43.2751 41.5407 42.704 42.2555 41.8507 42.7432C41.8146 42.7638 41.7788 42.7851 41.7412 42.8075L41.741 42.8076L41.7409 42.8076L41.7409 42.8076C41.6834 42.8418 41.6217 42.8785 41.5487 42.9189C41.6215 42.955 41.6927 42.9893 41.7624 43.0228L41.7624 43.0228C41.9155 43.0963 42.0616 43.1666 42.2019 43.2469ZM33.7861 38.1251V38.4284L33.7874 41.7625C33.8166 41.7642 33.8419 41.7659 33.8645 41.7674L33.8646 41.7674C33.9066 41.7703 33.9397 41.7725 33.9726 41.7725C34.3097 41.7725 34.6467 41.7729 34.9836 41.7733C35.9564 41.7745 36.9286 41.7756 37.9037 41.7672C38.2092 41.7655 38.5134 41.729 38.8109 41.6583C39.3452 41.528 39.8539 41.3316 40.0876 40.7545C40.2693 40.2969 40.2999 39.7917 40.1749 39.3149C40.0613 38.8432 39.7751 38.4979 39.3157 38.3596C38.9664 38.2554 38.6015 38.1612 38.2411 38.1518C37.1726 38.1234 36.1033 38.1147 35.0344 38.106C34.6712 38.1031 34.3081 38.1001 33.945 38.0964C33.8913 38.1015 33.8382 38.1111 33.7861 38.1251ZM38.2497 48.9471C38.6924 48.9287 39.1274 48.8235 39.531 48.6372C40.2911 48.2938 40.6685 47.4067 40.5838 46.4133C40.5228 45.7052 40.2458 45.1227 39.5802 44.8555C39.1534 44.6801 38.7003 44.5805 38.2405 44.5609C37.1743 44.5316 36.1074 44.5351 35.0406 44.5386H35.0406L35.0388 44.5386C34.6921 44.5397 34.3454 44.5408 33.9988 44.5408C33.9318 44.5445 33.8649 44.5516 33.7986 44.5622V48.9612C34.2174 48.9612 34.634 48.963 35.0491 48.9648H35.0496C36.1236 48.9695 37.1869 48.9741 38.2497 48.9471ZM47.6492 38.0453H54.7259V36.0112H47.6492V38.0453ZM56.867 42.8533C56.3931 41.6388 55.6533 40.6328 54.4994 40.0075C52.9365 39.1611 51.2719 39.0209 49.5692 39.421C47.7312 39.8525 46.3974 40.9448 45.6905 42.7431C45.0459 44.3838 45.0216 46.0832 45.3518 47.7987C45.5953 49.0639 46.1736 50.1268 47.2107 50.9057C48.9928 52.2417 50.9785 52.5363 53.1019 52.0901C54.6825 51.7561 55.885 50.8649 56.7206 49.4654C56.934 49.1067 57.1099 48.7233 57.1289 48.2663L56.5388 48.2661H56.5388C55.6804 48.2656 54.8353 48.2651 53.9894 48.2743C53.9165 48.2743 53.8363 48.3632 53.7731 48.4331L53.7596 48.448C53.6858 48.529 53.6171 48.6167 53.5484 48.7042L53.5484 48.7043C53.4199 48.8681 53.2919 49.0315 53.1314 49.1495C52.1843 49.8469 50.6247 49.8422 49.6171 49.1688C48.7211 48.5676 48.4401 47.6691 48.3968 46.6163H57.3134C57.3324 45.315 57.335 44.0524 56.867 42.8533ZM48.4894 44.4726C48.7309 42.717 49.7648 41.7651 51.4911 41.8914C53.0448 42.0056 53.9533 43.0871 53.9539 44.4726H48.4894Z" fill="#808080"/>
</g>
<defs>
<filter id="filter0_d_41_15" x="0" y="0.897461" width="86.4756" height="86.4756" filterUnits="userSpaceOnUse" color-interpolation-filters="sRGB">
<feFlood flood-opacity="0" result="BackgroundImageFix"/>
<feColorMatrix in="SourceAlpha" type="matrix" values="0 0 0 0 0 0 0 0 0 0 0 0 0 0 0 0 0 0 127 0" result="hardAlpha"/>
<feOffset/>
<feGaussianBlur stdDeviation="12.5"/>
<feComposite in2="hardAlpha" operator="out"/>
<feColorMatrix type="matrix" values="0 0 0 0 1 0 0 0 0 1 0 0 0 0 1 0 0 0 0.25 0"/>
<feBlend mode="normal" in2="BackgroundImageFix" result="effect1_dropShadow_41_15"/>
<feBlend mode="normal" in="SourceGraphic" in2="effect1_dropShadow_41_15" result="shape"/>
</filter>
</defs>
</svg>
