<svg width="49" height="32" viewBox="0 0 49 32" fill="none" xmlns="http://www.w3.org/2000/svg">
<path d="M44.1568 6.13968H31.3047V2.44543H44.1568V6.13968Z" fill="white"/>
<path d="M24.6515 20.2391C24.2593 18.1961 23.2079 16.6189 21.4125 15.5864C21.0418 15.3741 20.6484 15.2006 20.2264 14.9907C20.4458 14.8694 20.6091 14.7663 20.7748 14.6717C22.3245 13.786 23.3616 12.4879 23.6728 10.6935C23.821 9.83648 23.869 8.96458 23.8158 8.09604C23.6501 5.40998 22.4068 3.38997 20.0321 2.15128C18.3131 1.25107 16.4486 1.00236 14.5484 0.997508C9.74183 0.984163 4.93526 0.997508 0.129883 0.997508V31.2309C2.31859 31.2309 4.50729 31.2454 6.696 31.2309C9.75614 31.2115 12.8175 31.2066 15.8752 31.1205C17.3062 31.095 18.7155 30.7601 20.0094 30.1378C23.6036 28.364 25.4299 24.2925 24.6515 20.2391ZM6.12856 6.83551V6.28471C6.22313 6.2592 6.31963 6.24175 6.41705 6.23254C9.01703 6.25923 11.6194 6.26408 14.2194 6.33324C14.8738 6.35022 15.5367 6.52128 16.1709 6.71055C17.0053 6.96168 17.5251 7.58892 17.7313 8.44545C17.9584 9.31139 17.9027 10.229 17.5728 11.0599C17.1484 12.1081 16.2245 12.4648 15.2541 12.7014C14.7139 12.8297 14.1613 12.8961 13.6066 12.8992C11.2224 12.9198 8.84775 12.9089 6.46712 12.9089C6.37532 12.9089 6.28234 12.8992 6.13094 12.8907L6.12856 6.83551ZM16.5619 25.3759C15.829 25.7142 15.0389 25.9054 14.2349 25.9388C11.5586 26.0068 8.87994 25.9643 6.15121 25.9643V17.9753C6.27167 17.956 6.39303 17.943 6.5148 17.9364C9.0826 17.9364 11.6516 17.9025 14.2182 17.9728C15.0533 18.0085 15.8762 18.1895 16.6513 18.5079C17.8601 18.9932 18.3631 20.0511 18.474 21.3371C18.6278 23.1411 17.9423 24.7523 16.5619 25.3759Z" fill="white"/>
<path d="M48.0467 14.8725C47.186 12.6669 45.8425 10.8397 43.7468 9.70418C40.9084 8.16703 37.8852 7.91225 34.7929 8.63897C31.455 9.42271 29.0326 11.4063 27.7487 14.6723C26.5781 17.652 26.534 20.7384 27.1336 23.8539C27.5759 26.1518 28.6261 28.082 30.5097 29.4966C33.7462 31.923 37.3523 32.4581 41.2088 31.6476C44.0794 31.041 46.2633 29.4226 47.7809 26.8809C48.1683 26.2294 48.4878 25.533 48.5224 24.7032C46.5924 24.7032 44.7076 24.6971 42.8205 24.7177C42.6787 24.7177 42.5213 24.9034 42.4033 25.0332C42.0183 25.4554 41.7095 25.9783 41.2625 26.307C39.5422 27.5736 36.7098 27.5652 34.8799 26.3422C33.2527 25.2503 32.7425 23.6186 32.6638 21.7065H48.8574C48.8919 19.3432 48.8967 17.0502 48.0467 14.8725ZM32.8319 17.8133C33.2706 14.625 35.1481 12.8962 38.2834 13.1254C41.1051 13.3329 42.755 15.2971 42.7562 17.8133H32.8319Z" fill="white"/>
</svg>
