<?xml version="1.0" encoding="utf-8"?>
<!-- Generator: Adobe Illustrator 25.4.1, SVG Export Plug-In . SVG Version: 6.00 Build 0)  -->
<svg version="1.1" id="Layer_1" xmlns="http://www.w3.org/2000/svg" xmlns:xlink="http://www.w3.org/1999/xlink" x="0px" y="0px"
	 viewBox="0 0 12.4 12.6" style="enable-background:new 0 0 12.4 12.6;" xml:space="preserve">
<style type="text/css">
	.st0{fill-rule:evenodd;clip-rule:evenodd;fill:#FFFFFF;}
</style>
<path class="st0" d="M12.1,0.4c-0.3-0.3-0.7-0.3-1,0L6.2,5.3L1.3,0.4c-0.3-0.3-0.7-0.3-1,0C0,0.6,0,1.1,0.3,1.4l4.9,4.9l-5,5
	c-0.3,0.3-0.3,0.7,0,1c0.3,0.3,0.7,0.3,1,0l5-5l5,5c0.3,0.3,0.7,0.3,1,0c0.3-0.3,0.3-0.7,0-1l-5-5l4.9-4.9
	C12.4,1.1,12.4,0.6,12.1,0.4z"/>
</svg>
