<?xml version="1.0" encoding="utf-8"?>
<!-- Generator: Adobe Illustrator 25.4.1, SVG Export Plug-In . SVG Version: 6.00 Build 0)  -->
<svg version="1.1" id="Layer_1" xmlns="http://www.w3.org/2000/svg" xmlns:xlink="http://www.w3.org/1999/xlink" x="0px" y="0px"
	 viewBox="0 0 399.5 8.1" style="enable-background:new 0 0 399.5 8.1;" xml:space="preserve">
<polygon points="48.1,8.1 0.3,8.1 7.9,0 55.7,0 "/>
<polygon points="97.2,8.1 49.3,8.1 57,0 104.8,0 "/>
<polygon points="146.3,8.1 98.5,8.1 106.1,0 153.9,0 "/>
<polygon points="195.4,8.1 147.6,8.1 155.2,0 203,0 "/>
<polygon points="244.5,8.1 196.7,8.1 204.3,0 252.2,0 "/>
<polygon points="293.6,8.1 245.8,8.1 253.4,0 301.3,0 "/>
<polygon points="342.8,8.1 295,8.1 302.6,0 350.4,0 "/>
<polygon points="391.9,8.1 344,8.1 351.7,0 399.5,0 "/>
</svg>
