<?xml version="1.0" encoding="utf-8"?>
<!-- Generator: Adobe Illustrator 25.4.1, SVG Export Plug-In . SVG Version: 6.00 Build 0)  -->
<svg version="1.1" id="Layer_1" xmlns="http://www.w3.org/2000/svg" xmlns:xlink="http://www.w3.org/1999/xlink" x="0px" y="0px"
	 viewBox="0 0 399.5 8.1" style="enable-background:new 0 0 399.5 8.1;" xml:space="preserve">
<style type="text/css">
	.st0{fill:#FFFFFF;}
</style>
<polygon class="st0" points="2.3,8.1 0.3,8.1 7.9,0 9.9,0 "/>
<polygon class="st0" points="51.5,8.1 49.4,8.1 57.1,0 59.1,0 "/>
<polygon class="st0" points="106.4,8.1 104.4,8.1 112,0 114,0 "/>
<polygon class="st0" points="158.6,8.1 156.6,8.1 164.2,0 166.2,0 "/>
<polygon class="st0" points="207.8,8.1 205.7,8.1 213.4,0 215.4,0 "/>
<polygon class="st0" points="257,8.1 254.9,8.1 262.6,0 264.6,0 "/>
<polygon class="st0" points="306.6,8.1 304.5,8.1 312.2,0 314.2,0 "/>
<polygon class="st0" points="355.8,8.1 353.7,8.1 361.3,0 363.4,0 "/>
</svg>
