<svg width="85" height="56" viewBox="0 0 85 56" fill="none" xmlns="http://www.w3.org/2000/svg">
<path d="M47.0103 39.25C51.5433 39.25 54.8287 37.1042 56.8664 32.8125C57.6982 30.8958 58.1764 28.75 58.3012 26.375L47.0103 26.375L47.0103 3.32753e-06L85 0L85 25.1875C85 39.9375 78.0342 49.3125 64.1025 53.3125C59.32 54.6875 53.6226 55.375 47.0103 55.375L47.0103 39.25ZM0.162589 39.25C4.94509 39.25 8.23046 37.1042 10.0187 32.8125C10.8504 30.8958 11.3079 28.75 11.3911 26.375L0.162588 26.375L0.162586 7.43094e-06L38.0899 4.10887e-06L38.0899 25.1875C38.0899 39.9375 31.1449 49.3125 17.2548 53.3125C12.4723 54.6875 6.77492 55.375 0.162591 55.375L0.162589 39.25Z" fill="#CBF2F7"/>
</svg>
