<?xml version="1.0" standalone="no"?>
<!DOCTYPE svg PUBLIC "-//W3C//DTD SVG 20010904//EN"
 "http://www.w3.org/TR/2001/REC-SVG-20010904/DTD/svg10.dtd">
<svg version="1.0" xmlns="http://www.w3.org/2000/svg"
 width="723.000000pt" height="723.000000pt" viewBox="0 0 723.000000 723.000000"
 preserveAspectRatio="xMidYMid meet">
<metadata>
Created by potrace 1.14, written by Peter Selinger 2001-2017
</metadata>
<g transform="translate(0.000000,723.000000) scale(0.100000,-0.100000)"
fill="#000000" stroke="none">
<path d="M0 3615 l0 -3615 3615 0 3615 0 0 3615 0 3615 -3615 0 -3615 0 0
-3615z m5886 2910 c14 -13 12 -15 -17 -11 -18 2 -35 8 -37 15 -5 16 37 14 54
-4z m48 -20 c-4 -8 -10 -15 -15 -15 -5 0 -9 7 -9 15 0 8 7 15 15 15 9 0 12 -6
9 -15z m86 -5 c0 -6 8 -14 17 -17 10 -4 27 -16 38 -28 11 -12 28 -24 38 -28
11 -4 17 -17 17 -37 0 -19 5 -30 14 -30 8 0 21 -6 28 -13 7 -7 21 -16 32 -20
10 -4 16 -13 12 -22 -3 -8 1 -20 7 -27 25 -25 28 -48 7 -48 -11 0 -20 -4 -20
-10 0 -5 -13 -10 -29 -10 -16 0 -36 -6 -43 -13 -7 -8 -26 -17 -41 -21 -22 -5
-27 -12 -27 -35 0 -17 -6 -31 -16 -35 -27 -10 -36 -7 -31 13 3 14 1 18 -9 14
-8 -3 -14 -11 -14 -19 0 -9 -6 -11 -17 -7 -15 6 -16 5 -3 -9 8 -9 17 -12 18
-7 8 21 22 7 22 -22 0 -23 -4 -30 -14 -26 -8 3 -20 -1 -26 -9 -8 -9 -9 -14 -2
-14 6 0 13 6 16 13 4 6 4 1 1 -13 -2 -14 -5 -35 -5 -47 0 -14 -6 -23 -15 -23
-8 0 -15 -7 -15 -15 0 -8 -4 -15 -9 -15 -4 0 -11 -18 -14 -41 -6 -45 -14 -59
-25 -42 -5 7 -12 6 -22 -5 -13 -14 -12 -15 2 -10 14 6 15 -4 10 -85 -2 -51 -9
-93 -13 -95 -5 -2 -9 -10 -9 -18 0 -8 -8 -14 -17 -14 -12 0 -14 -3 -7 -8 7 -4
15 -51 19 -112 3 -58 10 -106 16 -108 12 -5 12 -52 -1 -52 -15 0 -12 -19 5
-36 9 -9 15 -34 15 -59 0 -24 4 -45 10 -47 5 -1 13 -31 16 -65 5 -43 11 -63
20 -63 8 0 14 -7 14 -15 0 -8 4 -15 9 -15 4 0 11 -26 14 -57 3 -32 11 -59 17
-61 5 -2 10 -19 10 -37 0 -19 6 -40 14 -47 7 -8 19 -38 27 -68 14 -56 56 -110
84 -110 11 0 15 -11 15 -39 0 -25 5 -41 14 -44 11 -4 15 -22 14 -58 0 -28 4
-54 9 -58 6 -3 13 -19 17 -36 4 -16 13 -33 19 -37 9 -5 11 -52 10 -160 -1 -84
0 -208 3 -275 6 -112 8 -123 25 -123 10 0 19 4 19 9 0 5 11 12 25 15 14 4 25
13 25 21 0 8 7 15 15 15 8 0 15 5 15 10 0 6 9 10 20 10 10 0 28 10 39 21 16
18 27 21 57 16 21 -4 41 -12 46 -19 11 -16 1 -170 -12 -178 -4 -3 -12 -18 -15
-33 -4 -15 -11 -27 -16 -27 -5 0 -9 -13 -9 -29 0 -22 -6 -32 -22 -37 -30 -9
-46 -26 -54 -58 -6 -25 -14 -30 -43 -26 -11 1 -11 -2 2 -14 11 -12 16 -36 16
-87 0 -57 -3 -73 -19 -87 -11 -9 -20 -29 -20 -44 0 -16 -4 -28 -9 -28 -5 0
-12 -12 -15 -26 -8 -29 -29 -54 -45 -54 -6 0 -11 -5 -11 -11 0 -5 -5 -7 -12
-3 -8 5 -9 -2 -5 -24 5 -22 3 -32 -6 -32 -14 0 -47 -35 -47 -50 0 -6 -7 -10
-15 -10 -8 0 -15 -6 -16 -12 0 -7 -2 -21 -4 -30 -2 -10 3 -18 11 -18 8 0 14
-5 14 -11 0 -6 9 -9 20 -6 10 3 22 0 25 -7 3 -8 7 -8 11 2 8 18 131 16 150 -2
14 -15 54 -11 54 5 0 5 9 9 19 9 11 0 27 7 36 16 8 9 33 18 55 21 22 3 40 10
40 14 0 5 7 9 15 9 8 0 15 -4 15 -10 0 -5 7 -10 15 -10 8 0 15 4 15 10 0 5 16
12 35 16 20 3 35 12 35 20 0 8 7 14 15 14 8 0 15 4 15 9 0 5 23 11 50 15 28 4
50 11 50 16 0 4 13 11 29 15 16 3 32 13 35 20 3 8 23 18 46 21 22 4 40 11 40
16 0 5 10 0 21 -11 18 -16 21 -27 16 -57 -4 -21 -10 -40 -16 -43 -5 -3 -12
-31 -16 -62 -6 -45 -12 -59 -30 -69 -13 -7 -26 -23 -29 -36 -4 -13 -11 -24
-16 -24 -6 0 -10 -6 -10 -14 0 -7 -9 -16 -20 -19 -13 -3 -20 -14 -20 -31 0
-21 -6 -26 -35 -32 -21 -4 -35 -12 -35 -21 0 -19 -24 -43 -44 -43 -8 0 -28
-13 -44 -30 -17 -17 -38 -30 -46 -30 -9 0 -16 -7 -16 -15 0 -8 7 -15 16 -15
12 0 14 -6 8 -32 -4 -18 -8 -41 -8 -50 0 -9 -4 -14 -8 -12 -4 3 -8 0 -8 -6 0
-6 -8 -10 -17 -8 -10 2 -18 -4 -19 -15 -1 -12 -1 -13 3 -2 6 20 23 9 23 -15 0
-23 -30 -61 -42 -54 -4 3 -8 -4 -8 -15 0 -24 -28 -54 -42 -45 -7 4 -8 2 -4 -4
10 -16 -39 -59 -75 -67 -17 -4 -41 -17 -55 -30 -14 -13 -38 -25 -52 -27 -25
-3 -27 -7 -27 -48 0 -42 2 -45 28 -48 25 -3 41 -32 17 -32 -5 0 -2 -9 7 -20
10 -11 30 -20 46 -20 24 0 28 3 24 20 -3 11 -1 20 4 20 5 0 9 -9 9 -20 0 -15
7 -20 26 -20 14 0 32 -7 41 -16 13 -12 37 -14 136 -11 79 3 122 8 125 16 2 6
12 11 22 11 11 0 28 10 39 21 21 22 51 20 51 -3 0 -9 -3 -8 -10 2 -8 13 -11
12 -24 -5 -9 -11 -15 -24 -15 -30 0 -5 4 -2 10 8 7 12 17 15 35 11 20 -5 24
-2 24 15 0 17 6 21 30 21 20 0 30 -5 30 -15 0 -8 8 -15 18 -15 36 0 46 -17 44
-70 -2 -43 -7 -57 -36 -86 -24 -25 -41 -34 -57 -31 -13 2 -18 2 -12 0 10 -3 9
-9 -4 -21 -24 -25 -233 -32 -233 -8 0 17 -11 18 -130 18 -101 0 -110 -1 -110
-17 0 -8 4 -15 10 -15 12 0 50 -32 50 -42 0 -14 -28 -8 -34 7 -7 20 -24 19
-29 -2 -3 -11 -5 -7 -6 10 -1 23 -5 27 -33 28 -18 1 -41 1 -50 0 -13 -2 -16 2
-11 16 6 15 5 16 -9 3 -12 -12 -13 -17 -2 -27 7 -7 17 -13 23 -13 18 0 12 -28
-6 -34 -10 -2 0 -3 22 -1 22 2 32 2 23 -1 -9 -3 -20 -18 -23 -35 -5 -22 -12
-29 -30 -29 -13 0 -28 8 -34 17 -5 10 -12 15 -16 11 -7 -7 61 -78 75 -78 6 0
10 -4 10 -10 0 -5 11 -10 25 -10 16 0 25 -6 25 -15 0 -8 5 -15 10 -15 6 0 10
-12 10 -26 0 -27 14 -46 43 -57 21 -8 23 -27 2 -27 -12 0 -12 -3 2 -20 20 -23
43 -27 43 -7 0 16 40 51 48 41 4 -4 1 -9 -5 -11 -7 -3 -13 -16 -13 -30 0 -25
-2 -26 -47 -21 -65 8 -73 3 -74 -45 -1 -23 -3 -34 -6 -24 -5 21 -31 23 -39 2
-4 -10 -20 -15 -45 -15 -45 0 -55 -24 -15 -34 14 -3 26 -14 28 -23 3 -15 4
-15 21 1 9 10 17 14 17 9 0 -11 -37 -43 -50 -43 -15 0 -12 -40 3 -41 6 -1 20
-1 29 0 12 2 16 -3 12 -12 -3 -8 -1 -17 4 -21 15 -9 51 6 57 24 4 13 12 16 28
12 13 -3 16 -7 8 -10 -48 -16 -77 -104 -46 -136 21 -20 45 -21 45 -1 0 8 -11
17 -25 21 -26 6 -34 29 -12 37 9 4 8 8 -3 16 -13 9 -13 11 3 11 9 0 17 -7 17
-15 0 -8 5 -15 10 -15 6 0 10 5 10 10 0 16 52 12 64 -5 17 -23 56 -8 56 21 0
13 -3 24 -7 25 -5 0 -24 2 -43 4 -19 2 -29 1 -22 -2 17 -7 15 -23 -3 -23 -10
0 -15 10 -15 30 0 23 4 28 18 24 16 -5 16 -5 0 6 -22 14 -23 30 -3 30 8 0 15
-4 15 -10 0 -5 6 -10 14 -10 8 0 17 -9 21 -19 3 -11 16 -23 27 -27 20 -6 31
-13 63 -41 7 -7 18 -13 24 -13 6 0 11 -9 11 -20 0 -11 7 -20 15 -20 8 0 15 -6
15 -14 0 -8 6 -21 13 -28 8 -7 17 -30 21 -51 4 -20 11 -37 16 -37 5 0 13 -12
16 -27 9 -35 34 -63 56 -63 23 0 23 -16 1 -30 -17 -10 -17 -10 0 -20 21 -13
22 -39 2 -46 -17 -7 -20 -34 -4 -34 6 0 13 9 16 20 6 23 33 27 33 5 0 -8 5
-15 10 -15 6 0 10 -16 10 -35 0 -24 -5 -35 -14 -35 -8 0 -17 -6 -20 -12 -5
-10 -7 -10 -12 0 -3 6 -21 12 -39 12 -21 0 -38 6 -43 17 -6 10 -24 17 -48 17
-28 1 -40 7 -42 19 -2 9 -8 17 -13 17 -5 0 -9 7 -9 15 0 11 -11 15 -35 15 -22
0 -38 6 -41 15 -9 22 -24 18 -24 -5 0 -11 4 -20 9 -20 5 0 12 -25 16 -55 3
-30 10 -55 15 -55 4 0 11 -16 14 -35 4 -21 13 -35 21 -35 8 0 15 -9 15 -20 0
-11 6 -20 14 -20 8 0 17 -11 20 -25 4 -14 10 -25 15 -25 5 0 12 -13 16 -30 4
-16 11 -30 16 -30 5 0 9 -13 9 -30 0 -25 -5 -30 -36 -39 -37 -10 -70 0 -87 27
-18 27 -37 13 -37 -28 l0 -40 -45 0 c-31 0 -45 4 -45 13 0 8 -18 20 -40 27
-31 10 -40 18 -40 36 0 36 -11 54 -31 54 -10 0 -19 7 -19 15 0 8 -7 15 -15 15
-9 0 -15 -9 -15 -24 0 -13 -5 -26 -12 -28 -7 -3 -12 -21 -12 -41 0 -29 -4 -37
-18 -37 -10 0 -18 -4 -18 -9 0 -41 -92 18 -94 60 -2 37 -24 34 -31 -4 -6 -30
-11 -35 -43 -41 -20 -3 -52 0 -69 6 -29 11 -33 16 -33 50 0 37 -1 38 -37 38
-45 0 -58 7 -67 38 -4 12 -13 22 -19 22 -7 0 -6 4 3 11 11 8 12 12 3 16 -7 2
-13 11 -13 18 0 7 6 15 13 18 6 2 0 2 -15 0 -23 -4 -28 -1 -28 16 0 12 6 21
13 21 8 0 9 3 1 8 -6 4 -14 52 -18 107 -4 55 -12 101 -17 103 -14 5 -11 62 4
62 8 0 8 3 -2 9 -10 6 -16 30 -18 67 -2 57 -8 73 -20 61 -3 -4 -6 -99 -5 -212
1 -123 -3 -205 -9 -205 -5 0 -9 -4 -9 -10 0 -11 -36 -50 -46 -50 -11 0 -34 29
-34 44 0 9 -6 16 -14 16 -10 0 -15 22 -20 80 -5 51 -12 80 -19 80 -9 0 -9 2 0
8 10 6 13 56 15 186 1 149 4 178 17 187 12 8 13 12 4 15 -9 4 -13 29 -13 75 0
40 -4 68 -9 65 -5 -4 -7 3 -4 14 3 11 0 20 -6 20 -6 0 -11 -19 -11 -46 0 -37
-4 -47 -19 -51 -16 -4 -18 -11 -13 -46 3 -23 9 -43 13 -45 12 -5 11 -62 0 -62
-5 0 -11 5 -13 10 -2 6 -2 -26 0 -70 5 -103 -4 -170 -24 -170 -8 0 -14 -6 -14
-12 0 -7 -4 -19 -9 -27 -7 -11 -14 -9 -34 12 -13 15 -29 27 -35 27 -5 0 -13
15 -16 34 -4 19 -12 36 -18 38 -18 6 -15 227 3 239 10 6 10 9 2 9 -8 0 -13 14
-13 35 0 19 5 35 10 35 6 0 10 18 10 40 0 25 -5 40 -12 40 -10 0 -10 2 -2 8 7
4 15 46 19 94 4 49 11 88 16 88 5 0 9 16 9 35 0 19 -4 35 -10 35 -5 0 -10 7
-10 15 0 8 7 15 15 15 11 0 15 12 15 45 0 25 5 45 10 45 6 0 10 20 10 45 0 25
-5 45 -11 45 -13 0 -33 -20 -42 -42 -3 -10 -11 -18 -16 -18 -5 0 -12 -14 -16
-30 -4 -17 -10 -30 -15 -30 -5 0 -11 -14 -15 -30 -6 -26 -11 -30 -38 -29 -18
1 -24 3 -15 6 12 3 20 18 24 44 5 31 11 39 28 39 17 0 24 9 33 42 8 28 8 45 2
49 -7 4 -4 13 6 23 9 9 12 16 5 16 -7 0 -5 6 4 16 9 8 16 24 16 35 0 10 5 19
10 19 6 0 10 7 10 15 0 8 -4 15 -10 15 -14 0 -12 27 3 33 17 8 -12 27 -30 20
-7 -3 -13 2 -13 11 0 19 26 22 33 4 8 -24 18 -1 19 45 1 55 13 80 28 57 6 -10
10 -11 10 -2 0 6 7 12 15 12 8 0 15 7 15 15 0 19 -28 20 -32 0 -2 -11 -7 -12
-18 -4 -11 8 -12 12 -2 16 6 2 12 11 12 19 0 8 -6 14 -12 15 -10 0 -10 2 0 6
14 6 17 53 2 53 -5 0 -12 -11 -16 -25 -3 -14 -10 -25 -15 -25 -5 0 -9 -22 -9
-50 0 -40 -3 -48 -15 -44 -12 5 -15 -3 -16 -32 -1 -22 -3 -31 -6 -21 -6 25
-27 16 -32 -14 -1 -13 -8 -27 -15 -31 -6 -4 1 -8 17 -8 29 0 38 -19 10 -21
-17 -1 -17 -2 0 -6 22 -6 12 -23 -13 -23 -14 0 -21 -10 -26 -35 -3 -19 -4 -43
-2 -53 4 -14 -1 -17 -26 -16 -17 1 -21 -1 -9 -3 20 -4 41 -48 28 -61 -3 -3 -5
2 -5 10 0 18 -40 31 -64 22 -13 -5 -16 3 -16 45 0 39 4 51 15 51 8 0 15 6 15
14 0 8 5 16 11 18 6 2 13 32 16 66 4 43 10 62 19 62 9 0 14 11 14 29 0 39 9
61 26 61 8 0 14 7 14 15 0 8 4 15 9 15 5 0 12 25 16 55 3 30 10 55 15 55 4 0
10 7 13 14 4 10 1 13 -9 9 -10 -4 -14 3 -14 26 0 17 5 31 10 31 6 0 10 7 10
15 0 8 -7 15 -15 15 -13 0 -15 7 -9 35 5 28 3 35 -10 35 -11 0 -16 9 -16 26 0
22 2 25 15 14 13 -10 15 -9 15 8 0 11 -7 28 -16 36 -14 15 -14 16 0 16 9 0 16
5 16 10 0 15 -29 12 -46 -5 -11 -10 -36 -15 -79 -15 -70 0 -75 -5 -75 -87 0
-24 -5 -43 -12 -45 -9 -3 -14 -34 -16 -91 -2 -48 -8 -87 -13 -87 -5 0 -9 -22
-9 -49 0 -41 -3 -49 -17 -46 -10 1 -12 0 -5 -2 6 -3 13 -18 14 -34 0 -16 1
-34 2 -41 2 -19 -22 -20 -27 -1 -2 10 -2 -2 1 -27 3 -25 5 -49 4 -55 0 -5 -4
-70 -8 -143 -5 -93 -11 -132 -19 -132 -16 0 -25 -85 -24 -230 0 -73 -4 -116
-10 -118 -15 -5 -14 -29 1 -34 8 -3 14 -40 16 -114 3 -66 9 -112 16 -116 8 -6
8 -10 0 -15 -7 -5 -15 -50 -19 -101 -4 -50 -11 -92 -15 -92 -5 0 -12 -31 -16
-70 -3 -38 -11 -70 -15 -70 -5 0 -9 -11 -9 -25 0 -17 6 -25 18 -26 16 -1 16
-2 0 -6 -12 -3 -20 -18 -24 -44 -6 -34 -11 -41 -35 -46 -16 -3 -29 -9 -29 -14
0 -5 -7 -9 -15 -9 -8 0 -15 5 -15 10 0 6 -7 10 -15 10 -8 0 -15 -4 -15 -10 0
-5 -7 -10 -15 -10 -8 0 -15 5 -15 10 0 6 -13 10 -30 10 -20 0 -30 5 -30 15 0
9 -6 18 -14 21 -8 3 -18 19 -21 35 -5 20 -13 29 -27 29 -21 0 -48 22 -48 39 0
6 -17 14 -39 17 -36 6 -39 9 -44 47 -3 23 -11 43 -16 45 -6 2 -11 13 -11 24 0
13 5 18 14 15 10 -4 12 0 9 14 -4 13 0 19 11 19 9 0 16 5 16 10 0 6 -4 10 -9
10 -5 0 -12 8 -14 18 -3 10 -5 7 -6 -10 -1 -21 -7 -29 -26 -34 -22 -5 -27 -14
-24 -41 1 -14 -36 -22 -103 -22 -38 -1 -68 -5 -68 -11 0 -23 -21 -7 -26 20 -4
17 -10 30 -15 30 -5 0 -9 14 -9 30 0 17 5 30 10 30 6 0 10 16 10 35 0 19 -4
35 -10 35 -5 0 -10 7 -10 15 0 8 4 15 9 15 5 0 12 74 16 164 6 126 11 166 21
170 10 4 14 23 14 59 0 30 3 57 7 61 11 11 12 36 1 36 -7 0 -7 4 0 13 8 10 5
13 -14 15 -20 1 -26 -4 -30 -28 -4 -16 -10 -28 -13 -25 -9 5 -41 -31 -41 -45
0 -6 5 -10 10 -10 6 0 10 -7 10 -15 0 -8 -4 -15 -8 -15 -4 0 -13 -21 -20 -46
-7 -25 -23 -55 -36 -68 -14 -12 -28 -34 -31 -49 -4 -15 -11 -27 -16 -27 -5 0
-9 -36 -9 -80 0 -58 -3 -80 -13 -80 -17 0 -47 -36 -47 -56 0 -14 -8 -16 -47
-10 -27 3 -49 11 -51 16 -2 6 -10 10 -18 10 -8 0 -17 7 -20 15 -4 8 -12 15
-20 15 -10 0 -12 11 -7 48 3 26 10 49 15 50 18 8 7 22 -17 22 -14 0 -25 5 -25
10 0 6 -9 10 -19 10 -11 0 -22 6 -24 13 -4 9 -8 9 -16 -3 -5 -8 -7 -18 -5 -22
3 -4 2 -8 -3 -8 -23 1 -33 22 -38 83 -4 51 -10 72 -26 88 -20 20 -23 20 -31 5
-5 -9 -16 -16 -23 -16 -8 0 -15 -4 -15 -10 0 -6 -26 -10 -59 -10 l-58 0 -7 39
c-3 21 -13 41 -21 45 -8 3 -15 12 -15 21 0 8 -4 15 -10 15 -5 0 -10 7 -10 15
0 7 -6 18 -14 22 -7 4 -16 30 -19 57 -3 31 -11 52 -22 58 -12 7 -15 17 -10 36
4 15 11 29 15 32 5 3 12 25 15 48 4 33 2 42 -10 42 -8 0 -15 7 -15 15 0 8 7
15 16 15 28 0 10 35 -21 40 -45 9 -67 1 -62 -21 4 -13 0 -19 -12 -19 -20 0
-51 34 -51 58 0 14 -2 15 -10 2 -14 -23 -20 -8 -22 63 -2 46 -7 67 -15 67 -18
0 -16 27 2 34 8 3 15 15 15 26 0 11 5 20 10 20 6 0 10 7 10 15 0 8 7 15 15 15
9 0 15 9 15 25 0 14 -6 25 -12 25 -9 0 -8 4 2 11 11 8 12 12 3 16 -8 2 -13 22
-13 44 0 32 -3 39 -20 39 -11 0 -20 5 -20 10 0 6 -7 10 -15 10 -8 0 -15 9 -15
20 0 11 -4 20 -10 20 -5 0 -10 11 -10 25 0 14 5 25 10 25 6 0 10 14 10 30 0
17 -5 30 -12 30 -9 0 -8 4 2 10 13 9 13 11 0 20 -8 5 -21 10 -27 10 -18 0 -16
58 1 76 8 8 19 14 25 14 6 0 11 7 11 15 0 9 8 19 18 22 9 4 23 13 30 20 7 7
20 13 27 13 8 0 17 15 21 35 5 30 10 35 35 35 16 0 29 4 29 10 0 5 16 12 35
16 19 3 35 10 35 14 0 4 11 11 25 14 14 4 25 11 25 16 0 6 17 10 38 10 40 0
72 17 121 68 18 17 39 32 47 32 8 0 14 6 14 14 0 7 14 16 30 20 18 3 30 12 30
21 0 8 9 15 20 15 11 0 20 7 20 15 0 9 6 12 15 9 9 -4 18 1 22 12 13 34 37 54
65 54 24 0 28 4 28 29 0 23 6 30 25 35 14 4 45 27 69 51 30 32 51 45 70 45 18
0 26 4 23 13 -2 6 -10 11 -16 10 -7 -2 -11 15 -11 47 0 37 -4 50 -15 50 -7 0
-19 8 -24 18 -8 12 -13 14 -18 5 -5 -6 -22 -15 -38 -19 -17 -4 -38 -16 -49
-26 -11 -12 -26 -18 -38 -15 -11 3 -27 -3 -39 -16 -19 -21 -21 -21 -33 -4 -14
18 -66 24 -66 7 0 -5 -7 -10 -15 -10 -8 0 -15 5 -15 10 0 16 -57 12 -64 -5 -4
-10 -14 -13 -36 -9 -23 5 -30 3 -30 -10 0 -10 -9 -16 -24 -16 -14 0 -32 -8
-42 -17 -13 -14 -36 -17 -112 -18 -67 0 -97 -4 -99 -12 -3 -7 -11 -13 -18 -13
-8 0 -18 -6 -22 -14 -4 -7 -27 -17 -50 -21 -39 -6 -43 -5 -43 14 0 12 -4 21
-10 21 -5 0 -10 -7 -10 -15 0 -8 -6 -15 -14 -15 -8 0 -16 7 -20 15 -8 21 -28
19 -49 -5 -9 -11 -24 -20 -32 -20 -8 0 -15 -6 -15 -12 0 -9 -4 -8 -10 2 -7 10
-12 12 -17 4 -5 -6 -27 -13 -50 -16 -44 -6 -82 14 -84 43 0 10 -2 11 -6 2 -6
-15 -33 -17 -33 -3 0 15 -48 12 -53 -2 -2 -7 -2 11 1 41 5 51 27 91 52 91 6 0
10 7 10 15 0 8 5 15 10 15 6 0 10 11 10 24 0 14 7 31 15 40 8 8 15 19 15 23 0
5 9 19 21 31 11 13 23 39 26 60 3 20 11 40 17 44 6 5 -5 5 -24 1 -21 -4 -49
-21 -72 -44 -20 -20 -46 -40 -57 -44 -15 -4 -23 -18 -27 -45 -5 -33 -11 -39
-33 -42 -21 -2 -28 -10 -35 -40 -9 -35 -12 -38 -47 -38 -31 0 -38 -4 -43 -25
-8 -31 -36 -65 -53 -65 -7 0 -13 -6 -13 -12 0 -9 -4 -8 -10 2 -8 13 -10 12
-10 -4 0 -17 -6 -18 -50 -13 -39 5 -52 3 -57 -8 -3 -10 -19 -15 -44 -15 -23 0
-41 -6 -46 -15 -5 -8 -32 -17 -66 -21 -54 -6 -57 -6 -57 15 0 11 5 21 10 21 6
0 10 13 10 29 0 16 7 36 15 44 7 8 17 27 21 42 4 14 12 29 19 32 7 2 16 20 19
39 4 19 11 34 16 34 6 0 10 11 10 25 0 14 -4 25 -10 25 -5 0 -10 -4 -10 -10 0
-5 -7 -10 -15 -10 -8 0 -15 -7 -15 -15 0 -9 -9 -15 -21 -15 -12 0 -23 -8 -26
-20 -3 -11 -9 -20 -14 -20 -5 0 -9 -7 -9 -16 0 -9 -9 -18 -20 -21 -11 -3 -20
-10 -20 -15 0 -13 -26 -38 -39 -38 -6 0 -11 -8 -11 -17 0 -14 -2 -15 -9 -4
-10 15 -21 9 -59 -31 -9 -10 -22 -18 -29 -18 -7 0 -13 -4 -13 -9 0 -5 -18 -11
-40 -15 -22 -3 -40 -12 -41 -19 0 -9 -2 -9 -6 1 -6 14 -63 17 -63 2 0 -5 -7
-10 -15 -10 -8 0 -15 7 -15 15 0 11 -12 15 -45 15 -25 0 -45 5 -45 10 0 6 -7
10 -15 10 -8 0 -15 7 -15 15 0 8 6 15 13 15 7 0 13 8 13 19 0 11 -5 17 -13 14
-7 -3 -13 -9 -13 -14 0 -4 -22 -11 -50 -15 -27 -4 -50 -10 -50 -15 0 -15 -30
-10 -47 7 -18 18 -68 11 -92 -13 -9 -10 -26 -13 -47 -10 -48 8 -99 57 -59 57
8 0 15 -4 15 -10 0 -5 9 -2 20 7 11 10 20 23 20 30 0 7 5 13 10 13 6 0 10 7
10 15 0 8 9 15 20 15 12 0 20 7 20 16 0 15 -10 16 -82 11 -46 -3 -101 -3 -123
1 -37 7 -40 10 -43 42 -5 70 -10 80 -41 80 -16 0 -32 -6 -35 -12 -5 -10 -7
-10 -12 0 -3 6 -21 12 -40 12 -24 0 -34 5 -34 15 0 8 -6 15 -12 15 -9 0 -10 2
-2 8 6 4 14 17 18 30 7 21 31 28 74 23 6 -1 12 3 12 9 0 5 6 10 14 10 8 0 16
6 19 13 11 30 -10 38 -110 41 -78 2 -105 7 -118 19 -9 10 -32 17 -51 17 -19 0
-34 4 -34 9 0 5 -14 12 -30 16 -24 5 -32 14 -37 36 -4 23 -13 31 -34 36 -16 3
-29 9 -29 13 0 4 -23 10 -51 12 -54 6 -69 18 -69 58 0 14 -9 33 -20 43 -11 9
-20 12 -20 7 0 -6 -18 -10 -40 -10 -22 0 -40 4 -40 9 0 4 -28 12 -62 15 -35 4
-65 11 -68 16 -6 9 -47 18 -92 19 -28 1 -28 1 -28 76 l0 74 -34 7 c-19 3 -37
12 -40 20 -3 8 -19 14 -36 14 -16 0 -30 4 -30 10 0 5 -11 12 -25 16 -22 5 -25
12 -25 49 0 24 -3 50 -6 59 -4 12 0 16 15 16 12 0 21 -4 21 -9 0 -4 71 -11
157 -15 148 -7 158 -9 179 -31 20 -22 32 -25 126 -28 115 -4 138 -1 138 19 0
8 5 14 10 14 6 0 10 4 10 9 0 5 -22 11 -49 15 -27 4 -51 11 -53 16 -2 5 -46
12 -98 16 -52 4 -98 11 -101 16 -3 5 -32 12 -65 15 -32 3 -61 10 -64 14 -3 5
-63 12 -133 15 -96 5 -127 10 -127 21 0 7 -4 13 -9 13 -5 0 -17 8 -26 17 -10
10 -39 18 -71 21 -52 4 -54 6 -54 33 0 16 -4 29 -10 29 -5 0 -10 11 -10 24 0
35 -10 56 -26 56 -8 0 -14 10 -14 21 0 20 4 21 46 15 26 -3 55 -6 65 -6 11 0
19 -7 19 -15 0 -9 9 -15 25 -15 14 0 25 -4 25 -10 0 -5 9 -10 20 -10 11 0 20
-7 20 -15 0 -10 10 -15 34 -15 19 0 41 -7 49 -15 12 -11 17 -12 21 -2 5 9 7 9
12 0 3 -7 12 -13 20 -13 8 0 14 -7 14 -15 0 -8 9 -15 20 -15 11 0 20 5 20 10
0 6 9 10 20 10 11 0 20 -4 20 -10 0 -5 19 -11 43 -12 l42 -1 -42 -4 c-74 -7
-42 -33 40 -33 20 0 37 -4 37 -10 0 -15 29 -12 46 4 10 11 29 13 71 9 32 -3
60 -9 63 -13 3 -4 29 -10 57 -14 46 -6 55 -4 70 14 21 24 94 28 116 5 13 -13
16 -13 21 0 3 10 -1 15 -13 15 -11 0 -21 5 -23 10 -2 6 -29 14 -61 17 -49 5
-58 9 -63 28 -5 20 -14 24 -70 30 -35 3 -64 11 -64 16 0 5 -11 11 -25 15 -14
3 -25 10 -25 15 0 5 -7 9 -15 9 -8 0 -15 6 -15 14 0 17 -31 26 -92 26 -35 0
-48 4 -48 14 0 10 -19 16 -60 21 -33 4 -60 10 -60 15 0 4 -19 10 -41 13 -23 3
-45 10 -48 15 -3 5 -17 13 -30 17 -13 4 -34 17 -45 30 -12 12 -35 25 -53 29
-21 5 -33 15 -37 31 -3 13 -19 29 -36 37 -27 11 -30 18 -30 55 0 34 3 41 15
37 8 -4 15 -10 15 -15 0 -5 9 -9 20 -9 11 0 20 -7 20 -15 0 -9 9 -15 25 -15
21 0 25 5 25 30 0 20 -5 30 -15 30 -8 0 -15 7 -15 15 0 8 -4 15 -10 15 -5 0
-10 11 -10 25 0 14 -7 28 -15 31 -17 7 -21 44 -5 44 6 0 10 11 10 24 0 14 5
28 11 31 15 10 86 -69 94 -104 4 -17 13 -31 21 -31 8 0 14 -5 14 -11 0 -17 23
-35 53 -43 16 -4 34 -11 40 -17 49 -40 62 -49 74 -49 7 0 13 -4 13 -10 0 -5
13 -10 28 -10 19 0 41 -12 65 -35 34 -33 40 -35 102 -35 37 0 65 4 65 10 0 6
-7 10 -15 10 -8 0 -15 5 -15 11 0 13 -73 84 -96 93 -13 5 -15 14 -10 50 5 33
3 48 -9 59 -8 9 -15 25 -15 36 0 11 -16 35 -35 54 -19 19 -35 37 -35 41 0 4
-14 21 -30 38 -17 16 -30 38 -30 49 0 11 -9 29 -20 41 -11 12 -20 32 -20 45 0
13 -4 23 -10 23 -5 0 -10 9 -10 20 0 11 -6 20 -14 20 -20 0 -29 43 -11 56 8 6
15 19 15 28 0 9 8 16 18 16 21 -1 52 -23 52 -39 0 -6 9 -11 20 -11 13 0 20 -7
20 -20 0 -23 45 -70 66 -70 8 0 14 -4 14 -10 0 -5 -5 -10 -11 -10 -6 0 -3 -7
5 -16 9 -8 16 -24 16 -34 0 -10 7 -20 15 -24 8 -3 15 -12 15 -21 0 -8 5 -15
10 -15 6 0 10 -5 10 -11 0 -7 8 -19 18 -28 11 -9 22 -28 26 -43 3 -16 13 -28
21 -28 8 0 15 -6 15 -14 0 -8 7 -16 15 -20 8 -3 15 -15 15 -26 0 -11 5 -20 11
-20 16 0 69 -56 69 -73 0 -8 18 -34 40 -57 24 -25 40 -52 40 -66 0 -15 6 -24
15 -24 8 0 15 -4 15 -10 0 -5 11 -10 25 -10 13 0 28 -6 32 -14 4 -7 20 -15 35
-18 22 -4 28 -1 28 13 0 10 -7 24 -15 33 -8 8 -15 19 -15 25 0 6 -9 15 -20 21
-17 9 -20 21 -20 80 0 58 -3 70 -16 70 -14 0 -16 9 -12 50 4 37 1 53 -9 59
-11 6 -14 33 -14 122 1 67 5 115 11 117 13 5 13 32 -1 32 -6 0 -3 7 5 16 9 8
16 22 16 30 0 8 5 14 10 14 6 0 10 16 10 36 0 27 5 37 20 41 13 3 20 14 20 29
0 13 5 24 10 24 6 0 10 -26 10 -59 0 -33 4 -63 10 -66 5 -3 10 -44 10 -90 0
-64 3 -84 15 -89 9 -3 15 -18 15 -36 0 -16 4 -30 9 -30 4 0 11 -27 15 -60 4
-33 11 -60 15 -60 5 0 11 -22 13 -49 3 -27 12 -57 21 -66 10 -9 17 -21 17 -26
0 -6 11 -20 25 -33 14 -13 25 -28 25 -35 0 -6 7 -11 15 -11 9 0 15 -9 15 -21
0 -12 8 -23 20 -26 11 -3 20 -9 20 -14 0 -5 7 -9 15 -9 9 0 19 -8 22 -17 9
-23 53 -67 76 -76 9 -3 17 -11 17 -17 0 -5 7 -10 16 -10 9 0 18 -9 21 -20 3
-13 14 -20 28 -20 14 0 25 -7 28 -20 3 -12 14 -20 27 -20 11 0 31 -11 43 -24
22 -23 28 -24 192 -28 117 -3 170 -8 173 -16 5 -16 119 -16 124 -1 2 7 39 12
100 13 53 0 94 4 92 8 -6 10 30 28 55 28 10 0 21 5 23 11 2 7 26 13 53 14 27
1 50 6 53 13 4 14 32 16 32 2 0 -5 -7 -10 -15 -10 -8 0 -15 -7 -15 -15 0 -8 6
-15 14 -15 8 0 16 -6 19 -12 2 -7 2 -2 0 12 -5 43 34 72 61 45 11 -11 16 -12
20 -2 5 9 7 9 12 0 4 -10 9 -9 21 2 8 8 29 14 46 14 18 -1 24 -3 15 -6 -10 -2
-18 -11 -18 -19 0 -20 -20 -17 -21 4 -1 16 -2 16 -6 0 -2 -10 -9 -18 -14 -18
-5 0 -9 -4 -9 -10 0 -13 47 -13 52 0 2 6 17 12 33 13 20 2 30 8 29 18 -2 23
63 25 70 2 4 -15 5 -15 4 2 -1 35 2 45 12 45 6 0 10 -7 10 -15 0 -20 34 -19
54 1 15 14 16 14 16 0 0 -10 9 -16 25 -16 17 0 25 6 25 18 0 13 9 17 37 19 20
1 40 8 45 15 8 10 11 10 15 1 2 -7 11 -13 19 -13 8 0 14 6 15 13 0 9 2 9 6 0
6 -17 23 -17 23 0 0 6 5 19 10 27 9 13 11 13 20 0 9 -13 11 -13 21 0 8 11 12
12 16 3 7 -18 30 -16 37 3 4 10 12 14 22 10 28 -11 64 5 70 30 3 13 11 25 18
25 6 1 16 2 21 4 6 1 16 3 24 3 7 1 11 8 8 16 -4 10 0 12 14 9 10 -3 19 -9 19
-14 0 -5 7 -9 15 -9 8 0 15 5 15 10 0 6 18 10 40 10 27 0 43 5 46 15 4 9 19
15 40 15 19 0 34 5 34 10 0 6 18 10 40 10 38 0 54 13 28 23 -7 3 -1 6 15 6 15
1 27 6 27 11 0 6 9 10 20 10 11 0 20 -7 20 -15 0 -8 7 -15 15 -15 8 0 15 -5
15 -11 0 -6 7 -4 15 5 8 8 15 19 15 25 0 6 14 11 30 11 18 0 33 6 36 15 4 8
12 15 19 15 8 0 21 8 31 18 21 20 74 24 67 5 -3 -7 -16 -13 -29 -13 -20 0 -24
-5 -25 -32 -1 -18 -3 -25 -6 -15 -7 28 -23 19 -23 -13 0 -29 2 -30 45 -30 31
0 45 4 44 13 -5 41 2 77 16 77 8 0 15 -7 15 -15 0 -10 10 -15 30 -15 17 0 30
3 31 8 0 4 2 20 3 36 1 16 7 31 14 34 16 5 15 29 0 36 -7 4 -2 4 11 2 14 -3
31 0 38 5 7 6 18 9 25 6 8 -4 7 -6 -4 -6 -22 -1 -24 -31 -3 -31 8 0 15 4 15 9
0 5 19 12 42 16 43 8 88 39 88 63 0 6 5 12 10 12 6 0 10 -7 10 -16 0 -13 2
-13 14 -2 7 8 17 24 21 37 4 13 16 32 26 42 21 21 75 26 83 7 3 -9 8 -8 16 5
8 12 19 15 38 11 22 -4 24 -3 12 6 -11 9 -12 13 -2 17 6 2 13 21 13 41 1 21 3
29 6 20 2 -10 9 -18 14 -18 5 0 9 8 10 18 0 10 3 12 6 5 9 -25 34 -13 40 20 4
17 6 35 6 38 -1 4 20 9 48 11 55 6 70 14 49 29 -11 7 -6 8 15 3 28 -7 29 -7
12 10 -9 10 -17 25 -17 34 0 15 2 15 11 2 8 -11 12 -12 16 -2 2 6 9 12 15 12
5 0 27 18 49 40 22 22 46 40 55 40 8 0 17 13 21 30 3 17 10 30 15 30 5 0 17 8
26 17 16 16 17 16 20 0 2 -9 10 -17 19 -17 11 0 14 6 9 25 -5 18 -2 25 9 25 8
0 15 9 15 20 0 11 5 20 10 20 6 0 10 9 10 20 0 15 7 20 25 20 14 0 25 6 26 13
0 6 5 1 11 -13 l11 -25 5 25 c2 13 -1 26 -7 28 -6 2 -11 14 -11 28 0 17 7 25
25 30 14 3 25 12 25 20 0 8 7 14 15 14 10 0 15 10 15 30 0 18 6 33 15 36 8 3
20 24 26 45 11 33 16 39 41 39 15 0 28 -4 28 -9 0 -5 6 -11 13 -14 8 -3 13 3
13 14 0 12 -7 19 -19 19 -16 0 -18 5 -12 27 3 15 10 30 14 33 5 3 11 15 15 28
4 12 11 22 15 22 4 0 24 16 44 35 22 22 37 30 40 22 7 -20 20 0 26 40 6 34 10
38 39 41 26 3 32 7 32 27 0 18 7 26 25 31 14 3 25 10 25 15 0 5 7 9 15 9 15 0
21 35 8 43 -5 2 -2 2 5 1 6 -2 12 3 12 11 0 15 34 30 48 21 5 -3 16 4 25 15 9
10 24 19 32 19 8 0 15 5 15 10 0 15 30 12 31 -2 0 -10 2 -10 6 0 6 14 63 17
63 2 0 -5 7 -10 15 -10 8 0 15 5 15 10 0 13 27 13 32 0 2 -5 18 -12 36 -16 29
-6 32 -4 26 12 -3 11 -2 15 3 8 4 -6 21 -13 37 -16 26 -5 28 -4 22 23 -4 22
-2 29 9 29 8 0 15 -5 15 -10z m-1320 -1095 c0 -8 -7 -15 -15 -15 -16 0 -20 12
-8 23 11 12 23 8 23 -8z m-650 -355 c0 -11 5 -20 10 -20 6 0 10 -4 10 -10 0
-5 -13 -10 -30 -10 -25 0 -30 4 -30 23 0 27 7 37 27 37 7 0 13 -9 13 -20z
m-294 -85 c-8 -8 -17 -15 -20 -15 -3 0 -6 7 -6 15 0 9 9 15 21 15 18 0 19 -2
5 -15z m-506 -195 c0 -5 -4 -10 -10 -10 -5 0 -10 5 -10 10 0 6 5 10 10 10 6 0
10 -4 10 -10z m-275 -39 c-3 -6 -11 -11 -16 -11 -5 0 -4 6 3 14 14 16 24 13
13 -3z m55 9 c0 -5 -7 -10 -15 -10 -8 0 -15 5 -15 10 0 6 7 10 15 10 8 0 15
-4 15 -10z m3285 -1730 c-3 -5 -10 -10 -16 -10 -5 0 -9 5 -9 10 0 6 7 10 16
10 8 0 12 -4 9 -10z m55 0 c0 -5 -4 -10 -10 -10 -5 0 -10 5 -10 10 0 6 5 10
10 10 6 0 10 -4 10 -10z m-2900 -700 c0 -5 -4 -10 -10 -10 -5 0 -10 5 -10 10
0 6 5 10 10 10 6 0 10 -4 10 -10z m2020 -220 c0 -5 -4 -10 -10 -10 -5 0 -10 5
-10 10 0 6 5 10 10 10 6 0 10 -4 10 -10z m-30 -120 c0 -5 -4 -10 -10 -10 -5 0
-10 5 -10 10 0 6 5 10 10 10 6 0 10 -4 10 -10z m-100 -130 c0 -5 -4 -10 -10
-10 -5 0 -10 5 -10 10 0 6 5 10 10 10 6 0 10 -4 10 -10z m43 -30 c9 -11 13
-20 8 -20 -5 0 -11 -7 -13 -15 -2 -11 -7 -12 -18 -4 -11 8 -12 12 -2 16 6 2
12 11 12 18 0 7 -6 16 -12 18 -7 3 -8 6 -3 6 6 1 18 -8 28 -19z m1200 -4 c5
-8 10 -6 17 4 6 10 10 11 10 3 0 -7 6 -13 14 -13 9 0 12 -7 9 -20 -6 -23 -23
-27 -23 -5 0 11 -12 15 -44 15 -48 0 -76 7 -76 20 0 21 78 17 93 -4z m-1240 2
c5 -18 -3 -48 -14 -48 -17 0 -9 -20 9 -21 12 0 11 -3 -7 -10 -14 -6 -21 -15
-18 -24 4 -9 1 -12 -9 -8 -14 5 -18 20 -14 63 2 26 15 40 34 36 6 -2 8 -1 4 1
-11 6 -10 23 1 23 5 0 11 -6 14 -12z m1099 -45 c2 -22 8 -28 26 -27 15 0 22
-5 22 -18 0 -10 6 -18 13 -18 6 0 19 -5 27 -10 13 -9 13 -11 0 -20 -11 -7 -4
-10 28 -10 23 0 42 -4 42 -10 0 -5 7 -10 15 -10 8 0 15 -7 15 -16 0 -20 -27
-48 -32 -33 -2 6 -28 11 -58 12 -53 2 -55 3 -52 28 2 20 -3 28 -19 32 -14 4
-20 11 -16 21 4 9 -1 17 -13 21 -11 4 -23 17 -26 31 -3 13 -11 24 -17 24 -11
0 23 29 35 30 4 0 8 -12 10 -27z m266 2 c0 -20 -6 -25 -24 -25 -26 0 -31 13
-11 35 19 22 35 18 35 -10z m95 1 c12 -13 31 -25 41 -27 11 -2 21 -10 22 -17
1 -7 0 -8 -3 -2 -7 15 -63 13 -63 -2 0 -9 -4 -8 -11 2 -8 11 -12 12 -16 3 -6
-15 -33 -17 -33 -3 0 5 11 12 25 16 27 7 34 24 10 24 -8 0 -15 -4 -15 -10 0
-5 -4 -10 -10 -10 -5 0 -10 11 -10 25 0 33 33 34 63 1z m244 -12 c4 -12 -110
-25 -134 -16 -19 6 -16 20 5 24 36 9 125 3 129 -8z m-637 -35 c0 -14 -17 -10
-23 5 -4 10 -1 13 9 9 7 -3 14 -9 14 -14z m160 1 c0 -11 -6 -20 -13 -20 -7 0
-13 9 -13 20 0 11 6 20 13 20 7 0 13 -9 13 -20z m517 -17 c-3 -10 -5 -4 -5 12
0 17 2 24 5 18 2 -7 2 -21 0 -30z m-457 12 c0 -8 -4 -15 -10 -15 -5 0 -10 7
-10 15 0 8 5 15 10 15 6 0 10 -7 10 -15z m-1260 -45 c0 -7 8 -10 20 -7 17 4
20 0 20 -24 0 -21 -5 -29 -17 -29 -12 0 -18 -9 -20 -27 0 -15 -6 -29 -12 -31
-6 -2 -11 -10 -11 -18 0 -8 -6 -14 -14 -14 -8 0 -16 -10 -18 -22 -2 -18 -10
-23 -33 -23 -25 0 -30 4 -29 23 0 12 1 60 2 107 2 68 5 85 17 85 8 0 15 -7 15
-15 0 -8 5 -15 10 -15 6 0 10 -11 10 -25 0 -16 -6 -25 -15 -25 -21 0 -19 -30
3 -31 14 -1 14 -2 1 -6 -21 -5 -25 -73 -4 -73 18 0 20 17 3 23 -7 2 -9 8 -5
13 4 5 12 2 17 -6 7 -11 10 -1 10 32 0 27 5 49 13 52 10 5 10 7 0 12 -15 7
-17 44 -3 44 6 0 10 9 10 21 0 18 2 19 15 5 8 -8 15 -20 15 -26z m1357 -6 c-3
-3 -12 -4 -19 -1 -8 3 -5 6 6 6 11 1 17 -2 13 -5z m223 -14 c0 -5 -7 -10 -15
-10 -8 0 -15 5 -15 10 0 6 7 10 15 10 8 0 15 -4 15 -10z m64 -5 c3 -9 0 -15
-9 -15 -8 0 -15 7 -15 15 0 8 4 15 9 15 5 0 11 -7 15 -15z m-224 -20 c0 -8 -4
-15 -10 -15 -5 0 -10 7 -10 15 0 8 5 15 10 15 6 0 10 -7 10 -15z m100 0 c0 -9
-40 -45 -49 -45 -5 0 -11 6 -14 14 -4 10 0 12 14 9 11 -3 21 1 25 11 6 15 24
23 24 11z m63 -22 c-7 -2 -19 -2 -25 0 -7 3 -2 5 12 5 14 0 19 -2 13 -5z
m-299 -30 c-5 -5 -12 -12 -16 -18 -4 -6 -8 -2 -8 8 0 9 7 17 17 17 9 0 12 -3
7 -7z m143 -45 c-3 -8 -6 -5 -6 6 -1 11 2 17 5 13 3 -3 4 -12 1 -19z m87 -11
c7 -5 6 -7 -4 -6 -34 3 -50 -2 -50 -16 0 -13 -2 -14 -14 -3 -12 11 -10 14 15
22 16 5 29 16 30 25 0 14 1 14 6 1 3 -8 11 -19 17 -23z m-180 -1 c-3 -9 -11
-16 -18 -15 -30 4 -46 -2 -46 -17 0 -14 8 -16 48 -11 26 2 39 3 30 0 -25 -6
-22 -19 5 -27 33 -9 37 -8 38 12 1 16 2 16 6 0 2 -10 11 -18 19 -18 8 0 14 -4
14 -10 0 -15 -30 -12 -31 3 0 10 -2 10 -6 0 -5 -15 -63 -18 -63 -4 0 5 -16 12
-35 15 -19 4 -35 11 -35 16 0 6 -7 10 -15 10 -8 0 -15 8 -15 18 0 14 2 15 10
2 9 -13 11 -13 19 0 5 8 8 17 6 20 -2 3 11 6 28 6 17 1 33 7 35 13 2 7 6 10 8
8 3 -2 2 -12 -2 -21z m63 -2 c-3 -3 -12 -4 -19 -1 -8 3 -5 6 6 6 11 1 17 -2
13 -5z m94 -37 c-10 -9 -11 -8 -5 6 3 10 9 15 12 12 3 -3 0 -11 -7 -18z m89
-18 c0 -29 -54 -52 -101 -42 -34 6 -38 18 -9 26 12 3 24 -1 30 -11 9 -16 11
-16 20 1 6 9 18 17 25 17 8 0 15 5 15 10 0 6 5 10 10 10 6 0 10 -5 10 -11z
m-436 -73 c4 -19 12 -37 19 -39 18 -7 6 -14 -35 -20 -29 -4 -38 -2 -38 9 0 8
7 14 15 14 8 0 15 8 14 18 0 10 -3 12 -6 5 -7 -18 -23 -16 -23 2 0 8 5 15 10
15 6 0 10 7 10 15 0 30 28 14 34 -19z m-61 -41 c-7 -21 -12 -19 -10 4 0 11 5
18 9 15 4 -3 5 -11 1 -19z"/>
<path d="M5958 6399 c-10 -10 -18 -26 -18 -34 0 -8 -7 -15 -15 -15 -8 0 -15
-4 -15 -10 0 -16 80 -12 96 5 9 8 26 15 40 15 20 0 24 5 24 30 0 27 -3 30 -34
30 -19 0 -37 -6 -39 -12 -4 -10 -6 -10 -6 0 -1 17 -13 14 -33 -9z"/>
<path d="M5850 6340 c0 -18 4 -20 23 -14 25 7 32 12 26 18 -2 2 -14 7 -26 10
-19 6 -23 4 -23 -14z"/>
<path d="M5810 6319 c0 -7 8 -18 18 -25 16 -12 16 -14 -4 -33 -12 -10 -32 -21
-45 -24 -13 -2 -5 -3 19 -1 24 2 50 11 58 19 9 8 33 15 55 15 34 0 79 25 79
45 0 9 -58 5 -62 -5 -7 -21 -98 -16 -98 5 0 8 -4 15 -10 15 -5 0 -10 -5 -10
-11z"/>
<path d="M5880 6310 c0 -5 5 -10 10 -10 6 0 10 5 10 10 0 6 -4 10 -10 10 -5 0
-10 -4 -10 -10z"/>
<path d="M5452 6245 c-11 -13 -9 -15 13 -15 16 0 25 6 25 15 0 19 -21 19 -38
0z"/>
<path d="M5307 6058 c-3 -9 6 -13 24 -14 18 -1 29 4 29 12 0 18 -46 18 -53 2z"/>
<path d="M5213 5940 c-3 -11 -12 -20 -19 -20 -8 0 -14 -7 -14 -15 0 -21 6 -19
37 14 16 15 35 31 43 34 9 3 3 6 -13 6 -21 1 -30 -5 -34 -19z"/>
<path d="M5030 5680 c0 -5 5 -10 10 -10 6 0 10 5 10 10 0 6 -4 10 -10 10 -5 0
-10 -4 -10 -10z"/>
<path d="M4870 5525 c0 -8 4 -15 9 -15 5 0 12 -8 14 -17 3 -10 5 -3 6 15 1 22
-4 32 -14 32 -8 0 -15 -7 -15 -15z"/>
<path d="M4783 5443 c-7 -2 -13 -16 -13 -29 0 -15 -6 -24 -15 -24 -8 0 -15 -6
-15 -14 0 -8 7 -16 15 -20 10 -4 15 1 15 15 0 13 5 19 13 16 8 -3 12 6 12 29
0 19 0 34 0 33 0 0 -6 -3 -12 -6z"/>
<path d="M5617 5396 c-4 -10 -1 -13 9 -9 15 6 19 23 5 23 -5 0 -11 -7 -14 -14z"/>
<path d="M5609 5292 c-14 -6 -15 -9 -3 -20 11 -10 14 -10 14 2 0 8 6 17 13 19
6 3 8 5 2 6 -5 0 -17 -3 -26 -7z"/>
<path d="M5685 5249 c-11 -16 -1 -19 13 -3 7 8 8 14 3 14 -5 0 -13 -5 -16 -11z"/>
<path d="M4490 5210 c0 -5 5 -10 10 -10 6 0 10 5 10 10 0 6 -4 10 -10 10 -5 0
-10 -4 -10 -10z"/>
<path d="M4400 5180 c0 -5 5 -10 10 -10 6 0 10 5 10 10 0 6 -4 10 -10 10 -5 0
-10 -4 -10 -10z"/>
<path d="M5590 5155 c0 -8 5 -15 10 -15 6 0 10 7 10 15 0 8 -4 15 -10 15 -5 0
-10 -7 -10 -15z"/>
<path d="M5660 5089 c0 -24 23 -21 28 4 2 10 -3 17 -12 17 -10 0 -16 -9 -16
-21z"/>
<path d="M5778 5073 c7 -3 16 -2 19 1 4 3 -2 6 -13 5 -11 0 -14 -3 -6 -6z"/>
<path d="M4122 5014 c-7 -8 -8 -14 -3 -14 10 0 25 19 20 25 -2 1 -10 -3 -17
-11z"/>
<path d="M5500 4990 c0 -5 7 -10 15 -10 8 0 15 5 15 10 0 6 -7 10 -15 10 -8 0
-15 -4 -15 -10z"/>
<path d="M5590 4990 c0 -5 5 -10 10 -10 6 0 10 5 10 10 0 6 -4 10 -10 10 -5 0
-10 -4 -10 -10z"/>
<path d="M5620 4990 c0 -5 5 -10 10 -10 6 0 10 5 10 10 0 6 -4 10 -10 10 -5 0
-10 -4 -10 -10z"/>
<path d="M5647 4965 c-4 -8 -2 -17 3 -20 6 -4 10 3 10 14 0 25 -6 27 -13 6z"/>
<path d="M4140 4930 c0 -5 9 -10 20 -10 11 0 20 5 20 10 0 6 -9 10 -20 10 -11
0 -20 -4 -20 -10z"/>
<path d="M5747 4901 c-4 -15 -1 -18 12 -13 9 3 22 12 29 19 11 11 9 13 -11 13
-16 0 -26 -7 -30 -19z"/>
<path d="M3651 4882 c-15 -5 -14 -29 2 -35 17 -6 32 3 39 23 6 15 -14 21 -41
12z"/>
<path d="M3607 4873 c-12 -11 -8 -23 8 -23 8 0 15 7 15 15 0 16 -12 20 -23 8z"/>
<path d="M5810 4867 c0 -8 7 -18 16 -21 11 -4 14 -1 12 11 -4 21 -28 30 -28
10z"/>
<path d="M5660 4845 c0 -14 5 -25 10 -25 6 0 10 11 10 25 0 14 -4 25 -10 25
-5 0 -10 -11 -10 -25z"/>
<path d="M5834 4785 c-4 -14 -4 -29 0 -32 3 -4 6 3 6 15 0 18 6 22 30 22 17 0
30 5 30 10 0 6 -13 10 -30 10 -23 0 -31 -5 -36 -25z"/>
<path d="M5581 4774 c0 -11 3 -14 6 -6 3 7 2 16 -1 19 -3 4 -6 -2 -5 -13z"/>
<path d="M5750 4745 c0 -8 4 -15 9 -15 5 0 17 -3 26 -7 16 -5 15 -4 -1 15 -22
26 -34 28 -34 7z"/>
<path d="M5850 4724 c0 -15 -10 -35 -22 -45 -11 -11 -17 -19 -11 -19 6 0 14
-14 19 -32 5 -17 16 -33 24 -35 13 -4 13 -3 0 6 -13 10 -13 12 0 21 13 8 12
10 -2 10 -10 0 -18 4 -18 10 0 14 31 28 51 23 20 -6 22 -1 13 35 -7 26 -21 29
-27 5 -4 -17 -5 -17 -6 0 0 10 6 20 14 23 24 9 17 24 -10 24 -20 0 -25 -5 -25
-26z"/>
<path d="M5906 4735 c-3 -9 0 -15 9 -15 8 0 15 -4 15 -10 0 -5 -5 -10 -12 -10
-6 0 -9 -3 -5 -6 3 -3 15 -3 26 1 24 7 29 35 6 35 -8 0 -15 5 -15 10 0 15 -17
12 -24 -5z"/>
<path d="M860 4710 c0 -5 7 -10 15 -10 8 0 15 5 15 10 0 6 -7 10 -15 10 -8 0
-15 -4 -15 -10z"/>
<path d="M5901 4634 c0 -11 3 -14 6 -6 3 7 2 16 -1 19 -3 4 -6 -2 -5 -13z"/>
<path d="M2530 4605 c0 -8 -4 -15 -10 -15 -5 0 -10 -4 -10 -10 0 -5 11 -10 25
-10 14 0 25 4 25 9 0 5 3 16 6 25 4 12 0 16 -15 16 -12 0 -21 -6 -21 -15z"/>
<path d="M2380 4585 c0 -8 7 -15 15 -15 8 0 15 7 15 15 0 8 -7 15 -15 15 -8 0
-15 -7 -15 -15z"/>
<path d="M5270 4585 c0 -8 7 -15 15 -15 8 0 15 4 15 9 0 5 -7 11 -15 15 -9 3
-15 0 -15 -9z"/>
<path d="M5780 4585 c0 -8 7 -15 15 -15 8 0 15 7 15 15 0 8 -7 15 -15 15 -8 0
-15 -7 -15 -15z"/>
<path d="M5360 4580 c0 -5 7 -10 15 -10 8 0 15 5 15 10 0 6 -7 10 -15 10 -8 0
-15 -4 -15 -10z"/>
<path d="M1740 4545 c0 -8 7 -15 15 -15 8 0 15 7 15 15 0 8 -7 15 -15 15 -8 0
-15 -7 -15 -15z"/>
<path d="M5250 4520 c0 -5 5 -10 10 -10 6 0 10 5 10 10 0 6 -4 10 -10 10 -5 0
-10 -4 -10 -10z"/>
<path d="M5500 4490 c0 -5 5 -10 10 -10 6 0 10 5 10 10 0 6 -4 10 -10 10 -5 0
-10 -4 -10 -10z"/>
<path d="M5901 4454 c0 -11 3 -14 6 -6 3 7 2 16 -1 19 -3 4 -6 -2 -5 -13z"/>
<path d="M5910 4390 c0 -5 5 -10 10 -10 6 0 10 5 10 10 0 6 -4 10 -10 10 -5 0
-10 -4 -10 -10z"/>
<path d="M1880 4290 c-9 -6 -10 -10 -3 -10 6 0 15 5 18 10 8 12 4 12 -15 0z"/>
<path d="M3928 4283 c-10 -2 -18 -10 -18 -18 0 -8 7 -11 18 -8 10 2 19 11 19
19 0 8 -1 13 -1 13 -1 -1 -9 -3 -18 -6z"/>
<path d="M1800 4264 c0 -17 22 -14 28 4 2 7 -3 12 -12 12 -9 0 -16 -7 -16 -16z"/>
<path d="M2810 4107 c0 -10 8 -17 18 -17 9 0 13 4 7 8 -5 4 -13 11 -17 16 -5
5 -8 2 -8 -7z"/>
<path d="M3976 4073 c-6 -14 -5 -15 5 -6 7 7 10 15 7 18 -3 3 -9 -2 -12 -12z"/>
<path d="M3920 3980 c0 -5 5 -10 10 -10 6 0 10 5 10 10 0 6 -4 10 -10 10 -5 0
-10 -4 -10 -10z"/>
<path d="M5560 3890 c0 -5 5 -10 10 -10 6 0 10 5 10 10 0 6 -4 10 -10 10 -5 0
-10 -4 -10 -10z"/>
<path d="M6440 3860 c0 -5 5 -10 10 -10 6 0 10 5 10 10 0 6 -4 10 -10 10 -5 0
-10 -4 -10 -10z"/>
<path d="M3990 3796 c0 -9 7 -16 16 -16 17 0 14 22 -4 28 -7 2 -12 -3 -12 -12z"/>
<path d="M6053 3773 c-13 -2 -23 -9 -23 -14 0 -14 30 -11 46 6 9 8 12 14 7 14
-4 -1 -18 -4 -30 -6z"/>
<path d="M6118 3749 c-20 -21 -23 -39 -8 -39 6 0 10 6 10 14 0 7 9 16 20 19
11 3 20 10 20 16 0 17 -23 12 -42 -10z"/>
<path d="M3220 3733 c0 -10 4 -14 8 -8 4 6 11 13 16 18 5 4 2 7 -7 7 -10 0
-17 -8 -17 -17z"/>
<path d="M5620 3730 c0 -5 5 -10 10 -10 6 0 10 5 10 10 0 6 -4 10 -10 10 -5 0
-10 -4 -10 -10z"/>
<path d="M5525 3709 c-11 -16 -1 -19 13 -3 7 8 8 14 3 14 -5 0 -13 -5 -16 -11z"/>
<path d="M3200 3700 c0 -5 5 -10 10 -10 6 0 10 5 10 10 0 6 -4 10 -10 10 -5 0
-10 -4 -10 -10z"/>
<path d="M5620 3700 c0 -5 9 -10 20 -10 13 0 18 -5 14 -15 -7 -18 -30 -20 -38
-2 -3 6 -3 -2 0 -19 5 -31 5 -31 -42 -32 -26 -1 -49 -4 -53 -7 -3 -4 25 -5 62
-3 54 2 68 6 73 20 3 10 10 18 15 18 5 0 9 7 9 15 0 18 26 20 33 3 3 -8 6 -6
6 5 1 9 -6 17 -14 17 -8 0 -15 5 -15 10 0 6 -16 10 -35 10 -19 0 -35 -4 -35
-10z"/>
<path d="M5560 3671 c0 -5 -8 -12 -17 -14 -10 -2 -3 -4 14 -3 32 1 49 26 18
26 -8 0 -15 -4 -15 -9z"/>
<path d="M3160 3646 c0 -10 9 -16 21 -16 24 0 21 23 -4 28 -10 2 -17 -3 -17
-12z"/>
<path d="M5526 3565 c-4 -10 1 -15 14 -15 11 0 20 7 20 15 0 8 -6 15 -14 15
-8 0 -16 -7 -20 -15z"/>
<path d="M6360 3560 c-9 -6 -10 -10 -3 -10 6 0 15 5 18 10 8 12 4 12 -15 0z"/>
<path d="M1506 3514 c-9 -8 -16 -17 -16 -19 0 -2 7 -11 16 -19 14 -15 14 -16
0 -16 -9 0 -16 -4 -16 -10 0 -5 9 -10 20 -10 11 0 20 5 20 10 0 6 7 10 15 10
8 0 15 -4 15 -10 0 -5 5 -10 10 -10 14 0 12 27 -2 33 -10 4 -9 8 2 16 12 9 10
11 -12 11 -29 0 -38 14 -15 23 7 4 6 6 -5 6 -9 1 -24 -6 -32 -15z"/>
<path d="M4140 3485 c0 -8 5 -15 10 -15 6 0 10 7 10 15 0 8 -4 15 -10 15 -5 0
-10 -7 -10 -15z"/>
<path d="M4180 3476 c0 -8 6 -17 13 -19 9 -4 8 -8 -3 -16 -13 -9 -13 -11 3
-11 10 0 17 8 17 20 0 11 5 20 10 20 6 0 10 5 10 10 0 6 -11 10 -25 10 -15 0
-25 -6 -25 -14z"/>
<path d="M4078 3398 c-30 -10 -39 -38 -13 -38 8 0 15 5 15 11 0 7 8 18 18 25
20 16 17 16 -20 2z"/>
<path d="M4360 3350 c0 -5 5 -10 10 -10 6 0 10 5 10 10 0 6 -4 10 -10 10 -5 0
-10 -4 -10 -10z"/>
<path d="M4400 3336 c0 -27 20 -39 41 -24 11 7 11 11 2 15 -7 2 -13 11 -13 19
0 8 -7 14 -15 14 -9 0 -15 -9 -15 -24z"/>
<path d="M4882 3344 c-7 -8 -8 -14 -3 -14 10 0 25 19 20 25 -2 1 -10 -3 -17
-11z"/>
<path d="M4430 3290 c0 -5 5 -10 10 -10 6 0 10 5 10 10 0 6 -4 10 -10 10 -5 0
-10 -4 -10 -10z"/>
<path d="M4447 3260 c-9 -11 -12 -20 -7 -20 6 0 10 -13 10 -29 0 -26 -4 -30
-32 -33 -28 -2 -34 -8 -36 -30 -3 -23 1 -28 17 -28 12 0 21 -6 21 -14 0 -7 9
-16 20 -19 14 -3 20 -14 20 -31 0 -14 4 -26 9 -26 12 0 21 37 21 92 0 27 5 49
13 52 6 3 1 3 -13 0 -14 -4 -29 -12 -33 -18 -6 -7 -7 -4 -3 7 3 10 6 27 6 38
0 10 7 19 15 19 8 0 15 5 15 10 0 6 -7 10 -15 10 -18 0 -20 26 -2 33 6 3 7 6
2 6 -6 1 -18 -8 -28 -19z"/>
<path d="M4397 3229 c6 -22 23 -26 23 -5 0 8 -6 16 -14 19 -10 4 -12 0 -9 -14z"/>
<path d="M3420 3230 c0 -5 5 -10 10 -10 6 0 10 5 10 10 0 6 -4 10 -10 10 -5 0
-10 -4 -10 -10z"/>
<path d="M4658 3213 c6 -2 13 -21 13 -41 1 -22 3 -29 6 -17 3 11 10 23 17 27
8 6 7 8 -1 8 -7 0 -13 7 -13 15 0 8 -8 15 -17 14 -11 0 -13 -3 -5 -6z"/>
<path d="M6920 3130 c0 -5 5 -10 10 -10 6 0 10 5 10 10 0 6 -4 10 -10 10 -5 0
-10 -4 -10 -10z"/>
<path d="M4253 3113 c-18 -7 -16 -23 2 -23 8 0 15 7 15 15 0 8 -1 15 -2 14 -2
0 -9 -3 -15 -6z"/>
<path d="M4680 3095 c0 -8 5 -15 10 -15 6 0 10 7 10 15 0 8 -4 15 -10 15 -5 0
-10 -7 -10 -15z"/>
<path d="M4240 3055 c0 -14 4 -25 9 -25 12 0 19 21 13 38 -8 21 -22 13 -22
-13z"/>
<path d="M4170 3043 c0 -15 2 -16 10 -3 9 13 11 13 19 1 5 -8 6 -21 3 -30 -5
-14 -4 -14 10 -1 9 8 12 17 7 18 -5 2 -9 10 -9 18 0 8 -9 14 -20 14 -12 0 -20
-7 -20 -17z"/>
<path d="M4620 3040 c0 -5 5 -10 10 -10 6 0 10 5 10 10 0 6 -4 10 -10 10 -5 0
-10 -4 -10 -10z"/>
<path d="M4580 3015 c0 -8 7 -15 15 -15 8 0 15 7 15 15 0 8 -7 15 -15 15 -8 0
-15 -7 -15 -15z"/>
<path d="M4861 3014 c0 -11 3 -14 6 -6 3 7 2 16 -1 19 -3 4 -6 -2 -5 -13z"/>
<path d="M4460 3010 c0 -5 5 -10 11 -10 6 0 4 -6 -3 -14 -18 -18 -11 -86 8
-86 8 0 14 5 14 10 0 12 46 14 53 3 2 -5 2 -2 0 5 -1 8 -3 27 -3 43 0 16 -4
29 -10 29 -5 0 -10 -6 -10 -13 0 -7 -10 -21 -22 -31 -18 -15 -20 -16 -15 -2 4
10 1 16 -9 16 -14 0 -14 2 0 15 8 9 13 22 10 30 -7 17 -24 20 -24 5z"/>
<path d="M6159 2969 c-10 -6 -4 -9 19 -9 17 0 32 2 32 4 0 9 -39 13 -51 5z"/>
<path d="M6067 2953 c-13 -13 -7 -53 8 -53 10 0 15 10 15 30 0 29 -9 38 -23
23z"/>
<path d="M4620 2925 c0 -27 13 -32 34 -13 11 10 11 15 0 25 -20 20 -34 15 -34
-12z"/>
<path d="M4990 2940 c0 -5 5 -10 10 -10 6 0 10 5 10 10 0 6 -4 10 -10 10 -5 0
-10 -4 -10 -10z"/>
<path d="M4950 2910 c0 -5 7 -10 15 -10 8 0 15 5 15 10 0 6 -7 10 -15 10 -8 0
-15 -4 -15 -10z"/>
<path d="M6030 2910 c0 -5 5 -10 10 -10 6 0 10 5 10 10 0 6 -4 10 -10 10 -5 0
-10 -4 -10 -10z"/>
<path d="M4892 2878 c6 -18 28 -21 28 -4 0 9 -7 16 -16 16 -9 0 -14 -5 -12
-12z"/>
<path d="M4670 2855 c0 -8 -7 -15 -15 -15 -9 0 -12 -6 -9 -15 4 -9 0 -15 -10
-15 -9 0 -16 -8 -16 -20 0 -11 5 -20 10 -20 6 0 10 -9 10 -20 0 -11 7 -20 15
-20 8 0 15 9 15 20 0 11 -4 20 -10 20 -5 0 -10 7 -10 15 0 18 17 20 22 3 3 -7
5 9 6 35 1 26 0 47 -3 47 -3 0 -5 -7 -5 -15z"/>
<path d="M5108 2863 c-21 -5 -23 -19 -5 -26 10 -4 10 -6 0 -6 -18 -1 -16 -21
2 -21 9 0 15 9 15 24 0 13 6 27 13 29 15 7 -2 6 -25 0z"/>
<path d="M3638 2767 c-16 -6 -28 -14 -28 -19 0 -4 -9 -8 -20 -8 -11 0 -20 -7
-20 -15 0 -18 -16 -20 -23 -2 -3 7 -6 4 -6 -7 -1 -14 4 -17 19 -13 13 3 20 0
20 -9 0 -20 10 -17 34 9 18 20 24 21 34 10 18 -19 40 -16 52 7 6 11 16 18 21
14 7 -4 9 1 7 11 -5 31 -25 27 -31 -5 -4 -18 -13 -30 -22 -30 -19 0 -19 24 0
44 28 28 13 33 -37 13z m-38 -47 c0 -5 -4 -10 -10 -10 -5 0 -10 5 -10 10 0 6
5 10 10 10 6 0 10 -4 10 -10z"/>
<path d="M4670 2720 c0 -5 -12 -10 -26 -10 -22 0 -24 -2 -11 -15 9 -8 13 -24
10 -35 -4 -14 0 -20 10 -20 9 0 19 -9 22 -21 7 -20 39 -59 50 -59 14 0 2 26
-22 48 -18 16 -23 27 -15 30 16 5 16 59 0 65 -10 4 -10 6 0 6 17 1 15 21 -3
21 -8 0 -15 -4 -15 -10z"/>
<path d="M3486 2694 c-9 -8 -16 -17 -16 -20 0 -2 24 -3 53 -3 28 1 42 4 30 6
-13 2 -23 11 -23 19 0 19 -25 18 -44 -2z"/>
<path d="M3622 2684 c-7 -8 -8 -14 -3 -14 10 0 25 19 20 25 -2 1 -10 -3 -17
-11z"/>
<path d="M4166 2683 c-6 -14 -5 -15 5 -6 7 7 10 15 7 18 -3 3 -9 -2 -12 -12z"/>
<path d="M4400 2690 c0 -5 5 -10 10 -10 6 0 10 5 10 10 0 6 -4 10 -10 10 -5 0
-10 -4 -10 -10z"/>
<path d="M4427 2660 c-3 -13 0 -20 9 -20 8 0 14 9 14 20 0 11 -4 20 -9 20 -5
0 -11 -9 -14 -20z"/>
<path d="M6659 2623 c-13 -16 -12 -17 4 -4 9 7 17 15 17 17 0 8 -8 3 -21 -13z"/>
<path d="M4358 2583 c7 -3 16 -2 19 1 4 3 -2 6 -13 5 -11 0 -14 -3 -6 -6z"/>
<path d="M4628 2583 c6 -2 12 -11 12 -19 0 -8 7 -14 15 -14 12 0 12 3 -2 20
-10 11 -22 20 -28 19 -5 0 -4 -3 3 -6z"/>
<path d="M4736 2551 c-4 -5 3 -7 14 -4 23 6 26 13 6 13 -8 0 -17 -4 -20 -9z"/>
<path d="M4667 2530 c-9 -11 -17 -25 -17 -30 0 -15 17 -12 24 5 3 8 12 15 21
15 8 0 15 7 15 15 0 21 -22 19 -43 -5z"/>
<path d="M4240 2494 c0 -12 6 -15 23 -10 12 3 25 6 30 6 4 0 7 5 7 10 0 14
-27 12 -33 -2 -4 -10 -6 -10 -6 0 -1 18 -21 15 -21 -4z"/>
<path d="M4730 2497 c0 -9 -4 -17 -10 -17 -5 0 -10 -7 -10 -15 0 -8 4 -15 9
-15 10 0 25 50 16 58 -3 3 -5 -2 -5 -11z"/>
<path d="M6605 2480 c3 -5 8 -10 11 -10 2 0 4 5 4 10 0 6 -5 10 -11 10 -5 0
-7 -4 -4 -10z"/>
<path d="M5171 2434 c0 -11 3 -14 6 -6 3 7 2 16 -1 19 -3 4 -6 -2 -5 -13z"/>
<path d="M5520 2435 c0 -9 6 -12 15 -9 8 4 15 10 15 15 0 5 -7 9 -15 9 -8 0
-15 -7 -15 -15z"/>
<path d="M4180 2410 c0 -5 5 -10 10 -10 6 0 10 5 10 10 0 6 -4 10 -10 10 -5 0
-10 -4 -10 -10z"/>
<path d="M5133 2393 c-7 -3 -13 -12 -13 -20 0 -10 6 -13 16 -9 9 3 20 6 25 6
13 0 11 17 -3 22 -7 3 -19 3 -25 1z"/>
<path d="M5176 2368 c-3 -13 -6 -26 -6 -29 0 -12 40 -17 47 -7 3 7 1 8 -5 4
-8 -5 -12 3 -12 23 0 36 -15 41 -24 9z"/>
<path d="M5556 2375 c-3 -9 0 -15 9 -15 8 0 15 7 15 15 0 8 -4 15 -9 15 -5 0
-11 -7 -15 -15z"/>
<path d="M6459 2352 c-8 -10 -26 -24 -39 -33 -14 -9 -22 -20 -19 -23 4 -4 23
9 43 28 20 20 36 31 36 26 0 -6 5 -10 10 -10 15 0 12 17 -4 23 -7 3 -20 -2
-27 -11z"/>
<path d="M5530 2310 c0 -5 5 -10 10 -10 6 0 10 5 10 10 0 6 -4 10 -10 10 -5 0
-10 -4 -10 -10z"/>
<path d="M3577 2284 c6 -15 23 -19 23 -5 0 5 -7 11 -14 14 -10 4 -13 1 -9 -9z"/>
<path d="M3610 2280 c0 -5 4 -10 9 -10 6 0 13 5 16 10 3 6 -1 10 -9 10 -9 0
-16 -4 -16 -10z"/>
<path d="M6257 2219 c4 -12 14 -19 30 -19 20 0 22 2 11 13 -7 7 -20 16 -29 19
-13 5 -16 2 -12 -13z"/>
<path d="M3608 2203 c7 -3 16 -2 19 1 4 3 -2 6 -13 5 -11 0 -14 -3 -6 -6z"/>
<path d="M3765 2170 c-4 -6 -4 -24 0 -40 5 -23 12 -30 31 -30 17 0 24 6 24 20
0 13 7 20 20 20 11 0 20 6 20 14 0 23 -82 37 -95 16z m29 -15 c3 -9 0 -15 -9
-15 -8 0 -15 7 -15 15 0 8 4 15 9 15 5 0 11 -7 15 -15z"/>
<path d="M6310 2165 c0 -8 8 -15 18 -15 14 0 15 -2 2 -10 -9 -6 -10 -10 -3
-10 20 0 24 18 7 34 -19 20 -24 20 -24 1z"/>
<path d="M3607 2155 c-8 -19 13 -31 24 -14 13 20 11 29 -5 29 -8 0 -16 -7 -19
-15z"/>
<path d="M3548 2125 c3 -19 11 -25 30 -25 l25 0 -27 25 c-15 14 -28 25 -30 25
-2 0 -1 -11 2 -25z"/>
<path d="M3500 2120 c0 -13 5 -18 15 -14 12 5 13 10 4 20 -15 19 -19 18 -19
-6z"/>
<path d="M3703 2133 c9 -2 25 -2 35 0 9 3 1 5 -18 5 -19 0 -27 -2 -17 -5z"/>
<path d="M3666 2085 c-4 -12 3 -15 29 -15 26 0 33 3 29 15 -7 18 -21 19 -27 3
-4 -10 -6 -10 -6 0 -1 17 -18 15 -25 -3z"/>
<path d="M6470 2061 c0 -5 15 -11 34 -13 24 -3 32 0 29 9 -6 14 -63 18 -63 4z"/>
<path d="M3527 2031 c9 -11 22 -17 29 -14 16 6 19 33 4 33 -5 0 -10 -8 -10
-17 -1 -17 -1 -17 -11 0 -5 9 -14 17 -19 17 -6 0 -2 -9 7 -19z"/>
<path d="M6668 2043 c7 -3 16 -2 19 1 4 3 -2 6 -13 5 -11 0 -14 -3 -6 -6z"/>
<path d="M3666 2024 c-9 -22 -8 -23 13 -17 12 3 17 11 14 19 -7 19 -19 18 -27
-2z"/>
<path d="M5720 2001 c0 -5 -8 -12 -17 -14 -11 -3 -7 -5 10 -6 18 -1 27 4 27
14 0 8 -4 15 -10 15 -5 0 -10 -4 -10 -9z"/>
<path d="M6950 1970 c0 -5 5 -10 10 -10 6 0 10 5 10 10 0 6 -4 10 -10 10 -5 0
-10 -4 -10 -10z"/>
<path d="M5530 1940 c0 -5 5 -10 10 -10 6 0 10 5 10 10 0 6 -4 10 -10 10 -5 0
-10 -4 -10 -10z"/>
<path d="M5180 1900 c0 -5 5 -10 10 -10 6 0 10 5 10 10 0 6 -4 10 -10 10 -5 0
-10 -4 -10 -10z"/>
<path d="M5711 1873 c-1 -27 -6 -43 -13 -43 -9 0 -10 -3 -2 -8 6 -4 14 -14 17
-22 4 -12 6 -11 6 3 1 18 21 25 21 7 0 -16 18 -12 40 10 22 22 24 29 11 49 -8
12 -11 12 -23 0 -8 -8 -17 -21 -21 -29 -3 -9 -6 -4 -6 13 -1 15 -5 27 -10 27
-5 0 -12 8 -14 18 -3 9 -5 -2 -6 -25z"/>
<path d="M5660 1855 c0 -14 5 -25 10 -25 6 0 10 11 10 25 0 14 -4 25 -10 25
-5 0 -10 -11 -10 -25z"/>
<path d="M4489 1841 c-1 -12 -2 -26 -3 -33 -1 -6 5 -13 12 -15 6 -3 12 2 12
11 0 8 8 19 17 25 20 11 17 16 -14 25 -19 6 -23 3 -24 -13z"/>
<path d="M5940 1795 c0 -14 5 -25 10 -25 6 0 10 -7 10 -17 0 -9 3 -14 6 -10 9
9 -5 77 -16 77 -6 0 -10 -11 -10 -25z"/>
<path d="M5763 1793 c-19 -7 -16 -53 2 -53 8 0 15 5 15 10 0 6 7 10 15 10 10
0 14 -7 12 -22 -2 -13 -2 -17 0 -10 3 6 11 12 19 12 8 0 14 7 14 15 0 8 -6 12
-14 9 -8 -3 -16 3 -19 15 -5 20 -19 25 -44 14z"/>
<path d="M5587 1754 c3 -8 11 -14 19 -14 21 0 17 17 -5 23 -14 3 -18 1 -14 -9z"/>
<path d="M5651 1744 c0 -11 3 -14 6 -6 3 7 2 16 -1 19 -3 4 -6 -2 -5 -13z"/>
<path d="M5726 1733 c6 -4 14 -15 17 -23 5 -11 6 -9 4 4 -1 11 -9 21 -17 23
-10 3 -11 2 -4 -4z"/>
<path d="M5587 1716 c-4 -10 0 -12 14 -9 22 6 26 23 5 23 -8 0 -16 -6 -19 -14z"/>
<path d="M5834 1686 c0 -13 4 -22 9 -19 10 6 9 31 -2 37 -5 3 -8 -5 -7 -18z"/>
<path d="M5968 1703 c7 -3 16 -2 19 1 4 3 -2 6 -13 5 -11 0 -14 -3 -6 -6z"/>
<path d="M5768 1693 c-22 -5 -24 -23 -3 -23 8 0 15 4 15 9 0 5 8 12 18 14 11
3 12 5 2 5 -8 0 -23 -2 -32 -5z"/>
<path d="M5590 1675 c0 -8 7 -15 15 -15 8 0 15 7 15 15 0 8 -7 15 -15 15 -8 0
-15 -7 -15 -15z"/>
<path d="M4400 1635 c0 -14 5 -25 10 -25 6 0 10 11 10 25 0 14 -4 25 -10 25
-5 0 -10 -11 -10 -25z"/>
<path d="M5870 1651 c0 -5 -8 -12 -17 -14 -10 -3 -3 -5 15 -6 43 -1 41 -18 -3
-27 -39 -7 -45 -19 -16 -29 11 -3 22 -12 25 -20 3 -8 12 -15 19 -15 14 0 15
11 8 108 -1 14 -31 17 -31 3z"/>
<path d="M5582 1605 c0 -16 2 -22 5 -12 2 9 2 23 0 30 -3 6 -5 -1 -5 -18z"/>
<path d="M5617 1616 c-4 -10 -1 -13 9 -9 15 6 19 23 5 23 -5 0 -11 -7 -14 -14z"/>
<path d="M4380 1590 c0 -5 5 -10 10 -10 6 0 10 5 10 10 0 6 -4 10 -10 10 -5 0
-10 -4 -10 -10z"/>
<path d="M6025 1560 c3 -24 11 -47 16 -51 6 -3 10 -9 10 -13 -3 -18 0 -26 8
-26 16 0 3 70 -19 103 l-22 32 7 -45z"/>
<path d="M4360 1567 c0 -19 -38 -49 -43 -34 -7 21 -16 3 -21 -43 -3 -25 -2
-39 1 -32 6 15 23 16 23 1 0 -17 -28 -41 -32 -27 -3 7 -12 4 -26 -10 -26 -26
-27 -32 -7 -32 8 0 15 6 15 14 0 8 10 14 24 14 30 0 54 21 59 53 2 13 2 18 0
11 -3 -8 -11 -11 -20 -8 -8 3 -19 6 -24 6 -24 0 -5 18 30 28 37 12 58 42 45
64 -8 13 -24 9 -24 -5z"/>
<path d="M5732 1566 c7 -8 15 -12 17 -11 5 6 -10 25 -20 25 -5 0 -4 -6 3 -14z"/>
<path d="M4330 1560 c0 -5 5 -10 10 -10 6 0 10 5 10 10 0 6 -4 10 -10 10 -5 0
-10 -4 -10 -10z"/>
<path d="M5810 1560 c0 -5 5 -10 10 -10 6 0 10 5 10 10 0 6 -4 10 -10 10 -5 0
-10 -4 -10 -10z"/>
<path d="M5750 1510 c0 -16 5 -30 10 -30 6 0 10 3 11 8 0 4 2 17 5 30 3 15 -1
22 -11 22 -10 0 -15 -10 -15 -30z"/>
<path d="M5790 1500 c-13 -9 -13 -11 0 -20 13 -8 13 -10 -1 -10 -13 0 -16 -9
-14 -47 3 -64 3 -63 20 -63 13 0 15 -7 9 -35 -5 -28 -3 -35 10 -35 18 0 22
-25 6 -33 -6 -3 -5 -4 2 -3 17 4 13 57 -4 68 -10 5 -8 8 5 8 14 0 17 5 11 23
-3 12 -11 23 -15 25 -5 2 -2 10 6 19 8 8 15 22 14 31 0 11 -2 12 -6 5 -2 -7
-11 -13 -19 -13 -10 0 -12 10 -7 45 6 48 6 50 -17 35z"/>
<path d="M5893 1495 c7 -7 14 -10 17 -6 3 3 9 9 13 12 4 4 -3 7 -17 7 -19 0
-22 -3 -13 -13z"/>
<path d="M5657 1480 c-6 -24 2 -60 14 -60 5 0 9 7 9 15 0 8 -4 15 -10 15 -5 0
-10 5 -10 10 0 6 7 10 15 10 8 0 15 7 15 15 0 22 -27 18 -33 -5z"/>
<path d="M6070 1490 c0 -5 5 -10 10 -10 6 0 10 5 10 10 0 6 -4 10 -10 10 -5 0
-10 -4 -10 -10z"/>
<path d="M5603 1473 c-18 -7 -16 -23 2 -23 8 0 15 7 15 15 0 8 -1 15 -2 14 -2
0 -9 -3 -15 -6z"/>
<path d="M5880 1460 c0 -5 7 -10 15 -10 8 0 15 5 15 10 0 6 -7 10 -15 10 -8 0
-15 -4 -15 -10z"/>
<path d="M6070 1430 c0 -22 5 -40 10 -40 6 0 10 -13 10 -30 0 -20 5 -30 15
-30 8 0 15 7 15 15 0 8 -4 15 -10 15 -5 0 -10 5 -10 10 0 21 20 9 26 -15 3
-14 10 -25 15 -25 5 0 9 -7 9 -15 0 -8 -5 -15 -11 -15 -14 0 -43 -29 -36 -36
3 -3 22 11 42 30 25 25 32 36 20 36 -10 0 -15 8 -14 23 4 41 -1 67 -12 67 -14
0 -39 25 -39 39 0 6 -7 11 -15 11 -11 0 -15 -11 -15 -40z"/>
<path d="M6186 1454 c-10 -25 -7 -34 9 -34 9 0 15 9 15 25 0 28 -15 34 -24 9z"/>
<path d="M5560 1430 c0 -5 -7 -10 -15 -10 -13 0 -13 -3 -3 -13 10 -11 15 -12
25 -1 15 15 17 34 3 34 -5 0 -10 -4 -10 -10z"/>
<path d="M5590 1406 c0 -8 7 -16 15 -20 10 -4 15 1 15 14 0 11 -7 20 -15 20
-8 0 -15 -6 -15 -14z"/>
<path d="M5877 1413 c-13 -13 -7 -32 8 -27 8 4 15 12 15 20 0 15 -12 19 -23 7z"/>
<path d="M5940 1405 c0 -8 4 -15 9 -15 5 0 11 7 15 15 3 9 0 15 -9 15 -8 0
-15 -7 -15 -15z"/>
<path d="M6240 1406 c0 -8 5 -18 11 -22 6 -3 8 -18 5 -33 -4 -14 -3 -21 1 -14
5 6 21 15 36 18 23 6 27 4 27 -15 0 -18 4 -20 23 -14 31 9 31 10 8 33 -23 23
-57 28 -64 9 -3 -8 -6 -6 -6 5 -1 9 -5 17 -11 17 -5 0 -10 7 -10 15 0 8 -4 15
-10 15 -5 0 -10 -6 -10 -14z"/>
<path d="M6320 1400 c0 -5 5 -10 10 -10 6 0 10 5 10 10 0 6 -4 10 -10 10 -5 0
-10 -4 -10 -10z"/>
<path d="M4270 1370 c0 -5 7 -10 15 -10 8 0 15 5 15 10 0 6 -7 10 -15 10 -8 0
-15 -4 -15 -10z"/>
<path d="M5900 1355 c0 -14 -5 -25 -12 -25 -6 0 -9 -3 -5 -6 3 -3 15 -3 26 1
25 8 30 55 6 55 -9 0 -15 -9 -15 -25z"/>
<path d="M6000 1340 c0 -5 5 -10 10 -10 6 0 10 5 10 10 0 6 -4 10 -10 10 -5 0
-10 -4 -10 -10z"/>
<path d="M6284 1298 c8 -42 30 -56 34 -22 5 35 -4 54 -24 54 -13 0 -15 -6 -10
-32z"/>
<path d="M5602 1305 c-11 -12 -10 -15 3 -15 8 0 15 7 15 15 0 18 -2 18 -18 0z"/>
<path d="M5910 1300 c0 -11 4 -20 9 -20 11 0 22 26 14 34 -12 12 -23 5 -23
-14z"/>
<path d="M5536 1293 c6 -4 14 -15 17 -23 5 -11 6 -9 4 4 -1 11 -9 21 -17 23
-10 3 -11 2 -4 -4z"/>
<path d="M5750 1281 c0 -11 8 -21 17 -23 15 -3 15 -4 -1 -20 -15 -16 -15 -18
-2 -18 9 0 16 7 16 15 0 8 6 15 13 15 8 0 8 3 1 8 -6 4 -13 15 -17 25 -9 23
-27 22 -27 -2z"/>
<path d="M6340 1290 c0 -5 7 -10 15 -10 8 0 15 5 15 10 0 6 -7 10 -15 10 -8 0
-15 -4 -15 -10z"/>
<path d="M6187 1273 c3 -7 11 -13 19 -13 7 0 11 -6 8 -14 -3 -8 4 -16 20 -20
14 -3 26 -11 26 -16 0 -6 5 -10 10 -10 6 0 10 7 10 15 0 8 -4 15 -8 15 -5 0
-14 11 -21 24 -14 26 -73 44 -64 19z"/>
<path d="M5620 1270 c0 -5 7 -10 15 -10 8 0 15 5 15 10 0 6 -7 10 -15 10 -8 0
-15 -4 -15 -10z"/>
<path d="M6000 1270 c0 -5 5 -10 10 -10 6 0 10 5 10 10 0 6 -4 10 -10 10 -5 0
-10 -4 -10 -10z"/>
<path d="M5577 1240 c-14 -17 -14 -20 -2 -20 8 0 15 6 15 14 0 8 6 17 13 19 6
3 7 6 2 6 -6 1 -18 -8 -28 -19z"/>
<path d="M5918 1253 c7 -3 16 -2 19 1 4 3 -2 6 -13 5 -11 0 -14 -3 -6 -6z"/>
<path d="M6151 1250 c0 -8 4 -24 8 -34 6 -15 10 -16 16 -7 4 7 3 16 -2 20 -6
3 -13 13 -16 21 -5 13 -5 13 -6 0z"/>
<path d="M6402 1242 c4 -19 29 -23 35 -6 2 6 -6 14 -17 17 -16 4 -20 1 -18
-11z"/>
<path d="M5990 1243 c0 -22 12 -43 26 -43 8 0 14 7 14 15 0 8 5 15 10 15 6 0
10 5 10 10 0 14 -27 12 -33 -2 -4 -10 -8 -9 -16 2 -6 9 -11 10 -11 3z"/>
<path d="M4248 1233 c-31 -8 -21 -33 12 -33 17 0 30 5 30 10 0 6 -7 10 -16 10
-8 0 -12 5 -9 10 3 6 5 9 3 9 -2 -1 -11 -3 -20 -6z"/>
<path d="M5938 1223 c7 -3 16 -2 19 1 4 3 -2 6 -13 5 -11 0 -14 -3 -6 -6z"/>
<path d="M6437 1223 c-12 -11 -8 -23 8 -23 8 0 15 7 15 15 0 16 -12 20 -23 8z"/>
<path d="M6320 1209 c0 -6 8 -18 17 -27 16 -16 16 -16 10 1 -4 10 -7 23 -7 28
0 5 -4 9 -10 9 -5 0 -10 -5 -10 -11z"/>
<path d="M5720 1185 c0 -8 4 -15 9 -15 5 0 11 7 15 15 3 9 0 15 -9 15 -8 0
-15 -7 -15 -15z"/>
<path d="M5800 1187 c0 -12 -9 -17 -27 -18 -17 -1 -21 -3 -10 -6 9 -2 17 -9
17 -14 0 -5 4 -9 9 -9 10 0 25 50 16 58 -3 3 -5 -2 -5 -11z"/>
<path d="M6240 1186 c0 -8 -8 -17 -17 -19 -17 -4 -17 -5 0 -6 12 -1 17 -10 17
-28 1 -24 2 -25 11 -10 12 21 39 23 39 2 0 -8 5 -15 10 -15 6 0 10 7 10 15 0
8 -4 15 -10 15 -5 0 -10 7 -10 16 0 12 -6 15 -24 10 -20 -5 -23 -3 -19 14 3
11 3 20 -1 20 -3 0 -6 -6 -6 -14z"/>
<path d="M6537 1193 c-12 -11 -8 -23 8 -23 8 0 15 7 15 15 0 16 -12 20 -23 8z"/>
<path d="M4230 1180 c0 -5 9 -10 20 -10 11 0 20 5 20 10 0 6 -9 10 -20 10 -11
0 -20 -4 -20 -10z"/>
<path d="M5560 1180 c0 -5 5 -10 10 -10 6 0 10 5 10 10 0 6 -4 10 -10 10 -5 0
-10 -4 -10 -10z"/>
<path d="M6155 1159 c-11 -16 -1 -19 13 -3 7 8 8 14 3 14 -5 0 -13 -5 -16 -11z"/>
<path d="M6720 1140 c0 -19 -6 -30 -17 -33 -17 -4 -17 -5 0 -6 9 0 17 -6 17
-12 0 -6 7 -4 15 5 8 8 15 26 15 39 0 14 -7 27 -15 31 -11 4 -15 -2 -15 -24z"/>
<path d="M4192 1145 c-11 -12 -10 -15 3 -15 8 0 15 7 15 15 0 18 -2 18 -18 0z"/>
<path d="M5584 1138 c-4 -13 -12 -26 -18 -30 -7 -5 -7 -8 2 -8 8 0 16 9 19 20
3 11 12 20 19 20 8 0 14 5 14 10 0 20 -29 10 -36 -12z"/>
<path d="M6554 1147 c-13 -15 6 -37 31 -37 16 0 19 9 9 34 -7 19 -25 20 -40 3z"/>
<path d="M6000 1125 c0 -8 5 -15 10 -15 6 0 10 7 10 15 0 8 -4 15 -10 15 -5 0
-10 -7 -10 -15z"/>
<path d="M6184 1125 c-7 -17 -34 -21 -34 -5 0 6 -7 10 -15 10 -8 0 -15 -4 -15
-10 0 -5 -11 -10 -25 -10 -23 0 -25 -3 -25 -50 0 -47 2 -50 25 -50 16 0 25 6
25 16 0 10 -6 14 -14 11 -10 -4 -12 0 -9 14 3 10 9 19 13 19 4 0 10 9 13 20 6
23 27 27 27 5 0 -8 -6 -15 -12 -15 -9 0 -8 -4 2 -10 8 -5 22 -9 30 -9 10 0 11
2 3 6 -24 9 -14 33 15 33 21 0 24 2 12 10 -13 9 -13 11 0 20 11 7 11 10 2 10
-7 0 -15 -7 -18 -15z"/>
<path d="M5900 1120 c0 -5 9 -10 20 -10 11 0 20 5 20 10 0 6 -9 10 -20 10 -11
0 -20 -4 -20 -10z"/>
<path d="M6410 1120 c0 -5 5 -10 10 -10 6 0 10 5 10 10 0 6 -4 10 -10 10 -5 0
-10 -4 -10 -10z"/>
<path d="M5128 1103 c7 -3 16 -2 19 1 4 3 -2 6 -13 5 -11 0 -14 -3 -6 -6z"/>
<path d="M6377 1094 c3 -10 -2 -14 -18 -15 l-24 0 24 -10 c21 -8 23 -14 17
-49 -5 -32 -3 -40 9 -40 9 0 15 -9 15 -22 0 -12 3 -19 6 -15 12 12 -7 155 -21
161 -9 3 -12 0 -8 -10z"/>
<path d="M6657 1089 c3 -10 11 -19 19 -19 16 0 8 26 -11 33 -9 4 -11 -1 -8
-14z"/>
<path d="M6240 1088 c0 -19 11 -22 48 -12 30 8 28 24 -3 24 -14 0 -25 -6 -25
-12 0 -9 -4 -8 -10 2 -8 13 -10 12 -10 -2z"/>
<path d="M6460 1090 c0 -5 5 -10 10 -10 6 0 10 5 10 10 0 6 -4 10 -10 10 -5 0
-10 -4 -10 -10z"/>
<path d="M6530 1090 c0 -5 7 -10 15 -10 8 0 15 5 15 10 0 6 -7 10 -15 10 -8 0
-15 -4 -15 -10z"/>
<path d="M6600 1086 c0 -7 -9 -16 -20 -19 -31 -8 -24 -27 10 -27 27 0 30 3 30
30 0 17 -4 30 -10 30 -5 0 -10 -6 -10 -14z"/>
<path d="M5590 1075 c0 -8 29 -12 39 -5 9 5 4 8 -13 8 -14 0 -26 -2 -26 -3z"/>
<path d="M6304 1062 c-6 -4 -14 -17 -18 -28 -5 -18 -2 -22 24 -27 17 -4 30
-13 30 -21 0 -12 -7 -14 -30 -9 -23 4 -30 2 -30 -11 0 -9 -5 -16 -11 -16 -6 0
-4 -7 5 -15 8 -8 26 -15 40 -15 25 0 29 7 27 40 0 10 1 11 5 3 7 -15 34 -17
34 -3 0 6 -7 10 -15 10 -8 0 -15 7 -15 15 0 7 -8 19 -17 24 -16 9 -16 12 -3
21 9 6 10 10 3 10 -6 0 -13 7 -15 15 -2 8 -8 11 -14 7z m16 -107 c0 -8 -7 -15
-15 -15 -8 0 -15 7 -15 15 0 8 7 15 15 15 8 0 15 -7 15 -15z"/>
<path d="M5780 1035 c0 -14 5 -25 10 -25 6 0 10 4 10 9 0 5 3 16 6 25 4 11 1
16 -10 16 -10 0 -16 -9 -16 -25z"/>
<path d="M6410 1050 c0 -5 5 -10 10 -10 6 0 10 5 10 10 0 6 -4 10 -10 10 -5 0
-10 -4 -10 -10z"/>
<path d="M6663 1035 c0 -21 4 -25 28 -25 29 0 39 14 17 23 -10 4 -10 6 0 6 26
2 11 21 -17 21 -24 0 -28 -4 -28 -25z"/>
<path d="M6760 1050 c0 -5 6 -10 13 -10 8 0 7 -4 -3 -11 -11 -8 -12 -12 -2
-16 14 -5 17 -33 3 -33 -11 0 -20 -35 -12 -48 3 -5 16 -12 29 -16 12 -4 22
-13 22 -21 0 -9 7 -11 22 -7 18 4 20 2 16 -16 -4 -15 -2 -19 8 -15 16 6 19 33
4 33 -5 0 -10 17 -10 39 0 30 -4 40 -20 44 -11 3 -20 12 -20 21 0 9 -4 16 -10
16 -5 0 -10 7 -10 15 0 8 5 15 10 15 6 0 10 5 10 10 0 6 -11 10 -25 10 -14 0
-25 -4 -25 -10z m57 -91 c4 -21 -15 -47 -24 -33 -5 6 -15 14 -23 17 -12 4 -11
6 3 6 9 1 17 8 17 17 0 19 24 13 27 -7z"/>
<path d="M5560 1024 c0 -9 11 -14 31 -14 38 0 35 24 -4 27 -18 1 -27 -3 -27
-13z"/>
<path d="M6638 1033 c-10 -2 -18 -11 -18 -18 0 -18 26 -9 34 11 3 8 4 13 3 13
-1 -1 -10 -3 -19 -6z"/>
<path d="M4770 1020 c0 -5 5 -10 10 -10 6 0 10 5 10 10 0 6 -4 10 -10 10 -5 0
-10 -4 -10 -10z"/>
<path d="M6190 1020 c0 -5 5 -10 10 -10 6 0 10 5 10 10 0 6 -4 10 -10 10 -5 0
-10 -4 -10 -10z"/>
<path d="M6160 997 c0 -19 23 -28 41 -17 16 10 12 15 -18 24 -17 5 -23 3 -23
-7z"/>
<path d="M6720 1003 c-8 -3 -18 -11 -22 -18 -4 -7 -21 -11 -40 -9 -24 3 -29 1
-18 -6 13 -9 13 -11 0 -20 -11 -7 -7 -10 18 -10 22 0 32 5 32 15 0 8 7 15 15
15 8 0 15 -5 15 -10 0 -6 9 -2 21 9 29 27 16 48 -21 34z"/>
<path d="M4760 976 c0 -48 21 -74 34 -41 3 8 -2 21 -10 30 -9 8 -11 15 -5 15
6 0 11 5 11 10 0 6 -7 10 -15 10 -9 0 -15 -9 -15 -24z"/>
<path d="M6430 960 c0 -13 5 -18 15 -14 8 4 15 12 15 20 0 8 -7 14 -15 14 -8
0 -15 -9 -15 -20z"/>
<path d="M6128 940 c-6 -38 8 -62 22 -40 5 8 10 27 10 43 0 37 -27 35 -32 -3z"/>
<path d="M6180 925 c0 -8 -4 -15 -10 -15 -5 0 -10 -4 -10 -10 0 -5 7 -10 15
-10 8 0 15 7 15 15 0 8 5 15 10 15 6 0 10 5 10 10 0 6 -7 10 -15 10 -8 0 -15
-7 -15 -15z"/>
<path d="M6692 920 c-6 -11 -12 -23 -12 -27 0 -5 5 0 11 10 14 24 43 23 36 -2
-3 -14 0 -17 14 -14 24 7 24 14 -1 36 -26 22 -32 21 -48 -3z"/>
<path d="M6062 900 c0 -14 2 -19 5 -12 2 6 2 18 0 25 -3 6 -5 1 -5 -13z"/>
<path d="M6328 913 c-10 -2 -18 -11 -18 -19 0 -18 5 -18 24 2 15 14 16 13 16
-10 0 -28 14 -35 24 -11 4 11 -19 49 -27 44 -1 -1 -10 -3 -19 -6z"/>
<path d="M6404 911 c-2 -2 -4 -11 -4 -18 0 -11 8 -13 29 -8 18 4 34 1 42 -7
12 -12 18 -12 39 -1 18 9 20 13 8 13 -10 0 -18 6 -18 13 0 9 -15 13 -46 13
-25 -1 -47 -3 -50 -5z"/>
<path d="M4770 895 c0 -8 5 -15 10 -15 6 0 10 7 10 15 0 8 -4 15 -10 15 -5 0
-10 -7 -10 -15z"/>
<path d="M6540 870 c0 -11 5 -20 10 -20 6 0 10 9 10 20 0 11 -4 20 -10 20 -5
0 -10 -9 -10 -20z"/>
<path d="M6170 850 c8 -5 22 -10 30 -10 13 0 13 1 0 10 -8 5 -22 10 -30 10
-13 0 -13 -1 0 -10z"/>
<path d="M6353 852 c-20 -2 -33 -9 -33 -17 0 -7 -8 -16 -17 -18 -16 -4 -16 -5
1 -6 11 -1 16 -6 13 -15 -4 -10 -1 -13 9 -9 7 3 14 11 14 19 0 8 7 14 15 14 8
0 15 5 15 10 0 6 7 10 15 10 8 0 15 -6 15 -12 0 -9 3 -10 8 -2 4 6 21 15 37
21 29 9 28 10 -15 9 -25 -1 -60 -2 -77 -4z"/>
<path d="M6770 850 c-18 -12 -2 -12 25 0 13 6 15 9 5 9 -8 0 -22 -4 -30 -9z"/>
<path d="M6593 820 c-2 -21 2 -30 12 -30 10 0 15 10 15 30 0 39 -24 39 -27 0z"/>
<path d="M6100 830 c0 -5 5 -10 10 -10 6 0 10 5 10 10 0 6 -4 10 -10 10 -5 0
-10 -4 -10 -10z"/>
<path d="M6850 816 c0 -15 7 -26 20 -29 16 -4 18 -2 11 11 -4 10 -6 23 -4 30
3 6 -2 12 -11 12 -10 0 -16 -9 -16 -24z"/>
<path d="M5940 805 c0 -9 42 -47 47 -42 2 3 -5 15 -16 26 -21 21 -31 26 -31
16z"/>
<path d="M6079 791 c-23 -23 -32 -41 -20 -41 6 0 11 7 11 15 0 16 16 21 22 6
2 -5 8 -4 14 3 18 20 -8 36 -27 17z"/>
<path d="M6249 773 c0 -11 -3 -13 -6 -5 -8 21 -21 13 -28 -18 -4 -16 -13 -30
-21 -30 -20 0 -17 -13 8 -34 19 -16 20 -17 15 -1 -11 26 3 63 24 68 10 3 19
12 19 21 0 22 -10 20 -11 -1z"/>
<path d="M6358 783 c7 -3 16 -2 19 1 4 3 -2 6 -13 5 -11 0 -14 -3 -6 -6z"/>
<path d="M6488 783 c7 -3 16 -2 19 1 4 3 -2 6 -13 5 -11 0 -14 -3 -6 -6z"/>
<path d="M5810 770 c0 -5 5 -10 10 -10 6 0 10 5 10 10 0 6 -4 10 -10 10 -5 0
-10 -4 -10 -10z"/>
<path d="M6353 753 c-33 -4 -48 -33 -18 -33 8 0 15 -7 15 -15 0 -8 5 -15 10
-15 6 0 10 8 10 18 0 9 5 24 10 32 9 13 12 13 21 -2 12 -22 29 -23 29 -3 0 8
-4 15 -9 15 -5 0 -15 2 -23 3 -7 2 -28 2 -45 0z"/>
<path d="M6463 753 c-28 -5 -30 -23 -3 -23 11 0 20 4 20 9 0 5 8 12 18 14 22
6 -5 6 -35 0z"/>
<path d="M5750 740 c0 -5 5 -10 10 -10 6 0 10 5 10 10 0 6 -4 10 -10 10 -5 0
-10 -4 -10 -10z"/>
<path d="M5806 734 c-10 -25 -7 -34 9 -34 9 0 15 9 15 25 0 28 -15 34 -24 9z"/>
<path d="M5961 734 c0 -11 3 -14 6 -6 3 7 2 16 -1 19 -3 4 -6 -2 -5 -13z"/>
<path d="M6090 740 c0 -5 7 -10 15 -10 8 0 15 5 15 10 0 6 -7 10 -15 10 -8 0
-15 -4 -15 -10z"/>
<path d="M6620 725 c0 -26 -15 -34 -23 -12 -3 6 -6 0 -6 -15 -1 -36 24 -37 33
-3 4 14 11 25 16 25 6 0 10 7 10 15 0 8 -7 15 -15 15 -9 0 -15 -9 -15 -25z"/>
<path d="M6540 710 c0 -5 -8 -10 -17 -10 -11 0 -14 -3 -7 -8 6 -4 14 -14 17
-22 4 -10 6 -8 6 8 1 12 6 22 11 22 6 0 10 5 10 10 0 6 -4 10 -10 10 -5 0 -10
-4 -10 -10z"/>
<path d="M6643 693 c-15 -5 -17 -23 -4 -23 5 0 11 7 15 15 3 8 4 15 3 14 -1 0
-8 -3 -14 -6z"/>
<path d="M6128 678 c-6 -18 3 -58 13 -58 14 0 11 38 -3 43 -8 3 -6 6 5 6 9 1
17 6 17 11 0 14 -28 12 -32 -2z"/>
<path d="M6220 641 c0 -5 7 -11 15 -15 9 -3 15 0 15 9 0 8 -7 15 -15 15 -8 0
-15 -4 -15 -9z"/>
<path d="M6088 623 c-10 -2 -18 -11 -18 -19 0 -20 13 -17 33 6 17 20 16 21
-15 13z"/>
<path d="M5970 610 c0 -5 5 -10 10 -10 6 0 10 5 10 10 0 6 -4 10 -10 10 -5 0
-10 -4 -10 -10z"/>
<path d="M6320 610 c0 -5 5 -10 10 -10 6 0 10 5 10 10 0 6 -4 10 -10 10 -5 0
-10 -4 -10 -10z"/>
<path d="M6320 580 c0 -5 5 -10 10 -10 6 0 10 5 10 10 0 6 -4 10 -10 10 -5 0
-10 -4 -10 -10z"/>
<path d="M6272 545 c-14 -16 -9 -18 26 -9 12 4 22 10 22 15 0 14 -34 10 -48
-6z"/>
<path d="M6500 1680 c0 -5 7 -10 15 -10 8 0 15 5 15 10 0 6 -7 10 -15 10 -8 0
-15 -4 -15 -10z"/>
</g>
</svg>
