<svg width="38" height="38" viewBox="0 0 38 38" fill="none" xmlns="http://www.w3.org/2000/svg">
<path d="M19 0C22.7578 0 26.4313 1.11433 29.5558 3.20208C32.6804 5.28982 35.1156 8.25722 36.5537 11.729C37.9918 15.2008 38.368 19.0211 37.6349 22.7067C36.9018 26.3924 35.0922 29.7778 32.435 32.435C29.7778 35.0922 26.3924 36.9018 22.7067 37.6349C19.0211 38.368 15.2008 37.9918 11.729 36.5537C8.25722 35.1156 5.28982 32.6804 3.20208 29.5558C1.11433 26.4313 0 22.7578 0 19C0 13.9609 2.00178 9.12816 5.56497 5.56497C9.12816 2.00178 13.9609 0 19 0ZM25.5509 26.7487C25.9061 25.6748 27.5417 14.9852 27.74 12.8787C27.7982 12.6416 27.7782 12.392 27.6829 12.1671C27.5876 11.9423 27.4222 11.7544 27.2113 11.6313C26.5431 11.4374 25.8264 11.5023 25.2039 11.813C24.0804 12.2178 9.69826 18.3226 8.86391 18.6778C8.02956 19.033 7.32739 19.38 7.32739 19.9087C7.32739 20.2804 7.55043 20.487 8.15348 20.7348C8.75652 20.9826 10.3757 21.4452 11.3174 21.7013C12.1675 21.9213 13.0696 21.806 13.837 21.3791C14.4483 20.9991 21.5196 16.2656 22.0317 15.8526C22.5439 15.4396 22.9404 15.9683 22.5274 16.3813C22.1143 16.7943 17.257 21.5113 16.6126 22.1639C16.4731 22.297 16.3678 22.4617 16.3056 22.6442C16.2434 22.8267 16.2261 23.0215 16.2553 23.2121C16.2845 23.4026 16.3593 23.5833 16.4732 23.7388C16.5872 23.8943 16.7371 24.02 16.91 24.1052C17.5048 24.477 21.7922 27.3517 22.4365 27.8143C22.9848 28.2297 23.649 28.4636 24.3365 28.4835C24.9396 28.4504 25.2535 27.6574 25.5509 26.7487Z" fill="#808080"/>
</svg>
