<svg xmlns="http://www.w3.org/2000/svg" viewBox="0 0 48 48"><path d="M37 6H11c-2.8 0-5 2.2-5 5v26c0 2.8 2.2 5 5 5h26c2.8 0 5-2.2 5-5V11c0-2.8-2.2-5-5-5zm-2 26h-2.6c-1 0-1.3-1-3-3-1.5-1.8-2.3-2-2.7-2-.5 0-.7.1-.7.9v3c0 .7-.2 1.1-1.9 1.1-2.8 0-5.9-1.9-8.3-5.1-3.3-4.5-3.9-8.4-3.9-9.1 0-.4.1-.8.9-.8h2.6c.7 0 .9.3 1.2 1.1 1.2 3.9 2.9 6.9 3.8 6.9.3 0 .5-.2.5-1v-3.6c-.1-1.9-1-2-1-2.7 0-.3.2-.6.6-.6h4.6c.6 0 .7.3.7 1v5.2c0 .6.4.8.6.8.3 0 .6 0 1.2-.6 1.9-2.2 3.5-5.6 3.5-5.6.2-.4.5-.8 1.1-.8h2.6c.6 0 .8.3.9.6 0 .1 0 .3-.1.4-.3 1.6-3.7 6.4-3.7 6.4.2.1.1.3.1.5s.1.4.2.6c.3.4.9 1.1 1.5 1.9 1.1 1.3 2 2.8 2.2 3.3 0 .2.1.3.1.4 0 .5-.4.8-1 .8z" fill="#1976d2"/></svg>