<svg width="37" height="38" viewBox="0 0 37 38" fill="none" xmlns="http://www.w3.org/2000/svg">
<path d="M18.5376 0C15.3092 0.00552646 12.1384 0.87845 9.34024 2.53203C6.54211 4.1856 4.21409 6.56226 2.58752 9.42584C0.960955 12.2894 0.0924694 15.5402 0.0683679 18.8552C0.0442663 22.1701 0.865388 25.4339 2.45014 28.3221L0.0370104 36.9451C-0.0066747 37.0878 -0.0117899 37.24 0.022211 37.3855C0.0562119 37.531 0.128052 37.6642 0.230061 37.771C0.311295 37.8497 0.407606 37.9102 0.512857 37.9486C0.618108 37.987 0.729994 38.0025 0.841386 37.994C0.905503 38.002 0.97032 38.002 1.03444 37.994L9.80213 35.7639C12.2818 37.1201 15.0297 37.8786 17.8373 37.9818C20.645 38.0851 23.4386 37.5303 26.0064 36.3598C28.5742 35.1892 30.8486 33.4335 32.6571 31.2258C34.4656 29.0182 35.7607 26.4166 36.4442 23.6184C37.1277 20.8203 37.1815 17.899 36.6017 15.0763C36.0219 12.2536 34.8236 9.60353 33.0978 7.32718C31.3719 5.05083 29.1639 3.20798 26.6411 1.93843C24.1183 0.668876 21.3471 0.00597031 18.5376 0ZM27.8443 25.7038C27.4501 26.8271 25.5518 27.8513 24.6268 27.9917C23.6283 28.1633 22.6048 28.0983 21.6345 27.8017C20.7176 27.5096 19.8156 27.1706 18.9318 26.7858C14.1779 24.6961 11.065 19.823 10.8237 19.5091C10.5824 19.1952 8.88514 16.8991 8.88514 14.5286C8.87207 13.7769 9.01361 13.0308 9.30053 12.3391C9.58745 11.6474 10.0133 11.0256 10.5502 10.5144C10.7097 10.3311 10.904 10.183 11.1211 10.0794C11.3383 9.9757 11.5737 9.91858 11.8131 9.91149H12.722C13.0196 9.91149 13.4057 9.79585 13.7918 10.7374C14.1779 11.679 15.1432 14.0413 15.2558 14.3138C15.3264 14.4394 15.3636 14.5818 15.3636 14.7268C15.3636 14.8718 15.3264 15.0142 15.2558 15.1398C15.1414 15.4393 14.9812 15.7181 14.7812 15.9658C14.5479 16.2466 14.2825 16.5935 14.0734 16.7917C13.8642 16.9899 13.5827 17.2955 13.8642 17.7746C14.5817 19.0024 15.4706 20.1155 16.5026 21.0784C17.6336 22.0929 18.926 22.9003 20.3234 23.4654C20.7979 23.705 21.0714 23.6719 21.353 23.3498C21.6345 23.0277 22.5354 21.9374 22.8571 21.4584C23.1789 20.9793 23.4846 21.0536 23.927 21.2188C24.3694 21.384 26.694 22.5404 27.1445 22.7799C27.5949 23.0194 27.9488 23.1433 28.0534 23.3498C28.2189 24.138 28.146 24.9593 27.8443 25.7038Z" fill="#808080"/>
</svg>
