<svg width="74" height="52" viewBox="0 0 74 52" fill="none" xmlns="http://www.w3.org/2000/svg">
<path d="M36.977 0.791016C36.977 0.791016 14.1031 0.791035 8.36206 2.25952C5.28811 3.105 2.75695 5.59666 1.89805 8.66711C0.406283 14.3185 0.40625 26.0221 0.40625 26.0221C0.40625 26.0221 0.406283 37.7701 1.89805 43.3325C2.75695 46.4029 5.2429 48.8501 8.36206 49.6956C14.1483 51.2085 36.977 51.2086 36.977 51.2086C36.977 51.2086 59.8962 51.2086 65.6371 49.7401C68.7563 48.8946 71.2422 46.4919 72.0559 43.377C73.5929 37.7701 73.5929 26.0666 73.5929 26.0666C73.5929 26.0666 73.6381 14.3185 72.0559 8.66711C71.2422 5.59666 68.7563 3.14956 65.6371 2.34856C59.8962 0.791086 36.977 0.791016 36.977 0.791016ZM29.6989 15.209L48.7305 26.0221L29.6989 36.7907V15.209Z" fill="#FF0000"/>
<path d="M29.6816 36.9782V15.4287L48.7915 26.0001L29.6816 36.9782Z" fill="white"/>
</svg>
