<?xml version="1.0" encoding="utf-8"?>
<!-- Generator: Adobe Illustrator 25.4.1, SVG Export Plug-In . SVG Version: 6.00 Build 0)  -->
<svg version="1.1" id="Layer_1" xmlns="http://www.w3.org/2000/svg" xmlns:xlink="http://www.w3.org/1999/xlink" x="0px" y="0px"
	 viewBox="0 0 24.2 21" style="enable-background:new 0 0 24.2 21;" xml:space="preserve">
<style type="text/css">
	.st0{fill:#FE8B63;}
	.st1{fill:#FFFFFF;}
</style>
<path class="st0" d="M8.5,2c1.7-2.6,5.5-2.6,7.2,0l7.9,12.6c1.8,2.8-0.3,6.5-3.6,6.5H4.2c-3.3,0-5.3-3.6-3.6-6.5L8.5,2z"/>
<path class="st1" d="M13.5,13.2h-3L9.7,5.5h4.6L13.5,13.2z M12.2,14.5c0.4,0,0.7,0.1,0.9,0.2c0.3,0.1,0.5,0.2,0.6,0.4
	c0.3,0.4,0.5,0.8,0.5,1.4c0,0.6-0.2,1.1-0.7,1.5c-0.4,0.4-1,0.7-1.8,0.7c-0.7,0-1.3-0.2-1.6-0.5c-0.3-0.4-0.5-0.8-0.5-1.4
	s0.2-1.1,0.7-1.5C10.9,14.7,11.5,14.5,12.2,14.5z"/>
</svg>
