<svg width="769" height="53" viewBox="0 0 769 53" fill="none" xmlns="http://www.w3.org/2000/svg">
<path d="M8.0075 7.6V46H0.967501V1.2H23.1755V46H16.0075V7.6H8.0075ZM35.384 11.504V35.696C35.384 38.64 36.6 40.112 39.032 40.112C41.464 40.112 42.68 38.64 42.68 35.696V11.504C42.68 8.56 41.464 7.088 39.032 7.088C36.6 7.088 35.384 8.56 35.384 11.504ZM28.344 35.248V11.952C28.344 8.368 29.2613 5.59466 31.096 3.632C32.9307 1.66933 35.576 0.688 39.032 0.688C42.488 0.688 45.1333 1.66933 46.968 3.632C48.8027 5.59466 49.72 8.368 49.72 11.952V35.248C49.72 38.832 48.8027 41.6053 46.968 43.568C45.1333 45.5307 42.488 46.512 39.032 46.512C35.576 46.512 32.9307 45.5307 31.096 43.568C29.2613 41.6053 28.344 38.832 28.344 35.248ZM68.503 14.704V12.208C68.503 10.288 68.183 8.96533 67.543 8.24C66.9457 7.472 66.0497 7.088 64.855 7.088C62.3803 7.088 61.143 8.56 61.143 11.504V15.152H54.679V11.824C54.679 8.19733 55.5537 5.44533 57.303 3.568C59.0523 1.648 61.6337 0.688 65.047 0.688C68.4603 0.688 71.063 1.66933 72.855 3.632C74.647 5.552 75.543 8.32533 75.543 11.952V13.104C75.543 17.8827 73.9003 20.9547 70.615 22.32C73.9003 23.7707 75.543 26.9067 75.543 31.728V35.248C75.543 38.8747 74.647 41.6693 72.855 43.632C71.063 45.552 68.4603 46.512 65.047 46.512C61.6337 46.512 59.031 45.552 57.239 43.632C55.447 41.6693 54.551 38.8747 54.551 35.248V30.32H61.207V35.696C61.207 38.64 62.423 40.112 64.855 40.112C66.0497 40.112 66.9457 39.7493 67.543 39.024C68.183 38.256 68.503 36.9333 68.503 35.056V31.536C68.503 29.488 68.1403 28.0373 67.415 27.184C66.6897 26.288 65.5163 25.84 63.895 25.84H62.167V19.44H64.279C65.687 19.44 66.7323 19.0773 67.415 18.352C68.1403 17.6267 68.503 16.4107 68.503 14.704ZM108.278 52.016H101.302V46H86.262V52.016H79.414V39.728H82.166C83.19 38.448 83.766 36.5067 83.894 33.904L85.494 1.2H105.206V39.728H108.278V52.016ZM92.086 7.6L90.806 33.776C90.6353 36.6347 89.974 38.6187 88.822 39.728H98.038V7.6H92.086ZM123.208 1.2C130.205 1.2 133.704 4.89066 133.704 12.272V18.096C133.704 25.4773 130.205 29.168 123.208 29.168H119.88V46H112.84V1.2H123.208ZM123.208 7.6H119.88V22.768H123.208C124.36 22.768 125.213 22.448 125.768 21.808C126.365 21.168 126.664 20.08 126.664 18.544V11.824C126.664 10.288 126.365 9.2 125.768 8.56C125.213 7.92 124.36 7.6 123.208 7.6ZM153.221 1.2L160.389 46H153.285L152.069 37.872H143.429L142.213 46H135.749L142.917 1.2H153.221ZM147.717 9.136L144.325 31.792H151.109L147.717 9.136ZM174.931 1.2C178.558 1.2 181.203 2.05333 182.867 3.76C184.531 5.424 185.363 8.00533 185.363 11.504V13.104C185.363 17.712 183.849 20.72 180.819 22.128C184.318 23.4933 186.067 26.6933 186.067 31.728V35.376C186.067 38.832 185.15 41.4773 183.315 43.312C181.523 45.104 178.878 46 175.379 46H164.307V1.2H174.931ZM174.483 25.84H171.347V39.6H175.379C176.617 39.6 177.534 39.28 178.131 38.64C178.729 37.9573 179.027 36.8053 179.027 35.184V31.28C179.027 29.232 178.665 27.824 177.939 27.056C177.257 26.2453 176.105 25.84 174.483 25.84ZM174.739 7.6H171.347V19.44H174.099C175.507 19.44 176.553 19.0773 177.235 18.352C177.961 17.6267 178.323 16.4107 178.323 14.704V12.208C178.323 9.136 177.129 7.6 174.739 7.6ZM188.963 46.064V39.664C190.67 39.664 191.801 39.408 192.355 38.896C192.953 38.3413 193.273 37.0613 193.315 35.056L194.467 1.2H214.371V46H207.203V7.6H201.059L200.291 34.672C200.163 38.768 199.31 41.6907 197.731 43.44C196.153 45.1893 193.593 46.064 190.051 46.064H188.963ZM226.288 46H219.12C219.632 44.8053 219.888 42.992 219.888 40.56V33.648C219.888 28.6133 221.445 25.4347 224.56 24.112C221.488 22.6613 219.952 19.632 219.952 15.024V11.504C219.952 8.00533 220.784 5.424 222.448 3.76C224.112 2.05333 226.757 1.2 230.384 1.2H241.008V46H233.968V27.76H231.536C229.915 27.76 228.741 28.208 228.016 29.104C227.291 29.9573 226.928 31.408 226.928 33.456V40.496C226.928 42.8853 226.715 44.72 226.288 46ZM233.968 7.6H230.576C228.187 7.6 226.992 9.136 226.992 12.208V16.624C226.992 18.3307 227.333 19.5467 228.016 20.272C228.741 20.9973 229.808 21.36 231.216 21.36H233.968V7.6ZM259.078 35.248V26.8H253.83V46H246.79V1.2H253.83V20.4H259.078V11.952C259.078 8.368 259.995 5.59466 261.83 3.632C263.665 1.66933 266.31 0.688 269.766 0.688C273.222 0.688 275.867 1.66933 277.702 3.632C279.537 5.59466 280.454 8.368 280.454 11.952V35.248C280.454 38.832 279.537 41.6053 277.702 43.568C275.867 45.5307 273.222 46.512 269.766 46.512C266.31 46.512 263.665 45.5307 261.83 43.568C259.995 41.6053 259.078 38.832 259.078 35.248ZM266.118 11.504V35.696C266.118 38.64 267.334 40.112 269.766 40.112C272.198 40.112 273.414 38.64 273.414 35.696V11.504C273.414 8.56 272.198 7.088 269.766 7.088C267.334 7.088 266.118 8.56 266.118 11.504ZM291.886 36.08H286.638L285.742 19.888V1.2H292.782V19.888L291.886 36.08ZM285.87 39.216H292.654V46H285.87V39.216Z" fill="#424241"/>
<path d="M319.771 1.2C323.398 1.2 326.043 2.05333 327.707 3.76C329.371 5.424 330.203 8.00533 330.203 11.504V13.104C330.203 17.712 328.689 20.72 325.659 22.128C329.158 23.4933 330.907 26.6933 330.907 31.728V35.376C330.907 38.832 329.99 41.4773 328.155 43.312C326.363 45.104 323.718 46 320.219 46H309.147V1.2H319.771ZM319.323 25.84H316.187V39.6H320.219C321.457 39.6 322.374 39.28 322.971 38.64C323.569 37.9573 323.867 36.8053 323.867 35.184V31.28C323.867 29.232 323.505 27.824 322.779 27.056C322.097 26.2453 320.945 25.84 319.323 25.84ZM319.579 7.6H316.187V19.44H318.939C320.347 19.44 321.393 19.0773 322.075 18.352C322.801 17.6267 323.163 16.4107 323.163 14.704V12.208C323.163 9.136 321.969 7.6 319.579 7.6ZM346.156 46H335.788V1.2H342.828V18.032H346.156C353.153 18.032 356.652 21.7227 356.652 29.104V34.928C356.652 42.3093 353.153 46 346.156 46ZM342.828 39.6H346.156C347.308 39.6 348.161 39.28 348.716 38.64C349.313 38 349.612 36.912 349.612 35.376V28.656C349.612 27.12 349.313 26.032 348.716 25.392C348.161 24.752 347.308 24.432 346.156 24.432H342.828V39.6ZM367.724 46H360.684V1.2H367.724V46ZM397.636 14.704V12.208C397.636 10.288 397.316 8.96533 396.676 8.24C396.078 7.472 395.182 7.088 393.988 7.088C391.513 7.088 390.276 8.56 390.276 11.504V15.152H383.812V11.824C383.812 8.19733 384.686 5.44533 386.436 3.568C388.185 1.648 390.766 0.688 394.18 0.688C397.593 0.688 400.196 1.66933 401.988 3.632C403.78 5.552 404.676 8.32533 404.676 11.952V13.104C404.676 17.8827 403.033 20.9547 399.748 22.32C403.033 23.7707 404.676 26.9067 404.676 31.728V35.248C404.676 38.8747 403.78 41.6693 401.988 43.632C400.196 45.552 397.593 46.512 394.18 46.512C390.766 46.512 388.164 45.552 386.372 43.632C384.58 41.6693 383.684 38.8747 383.684 35.248V30.32H390.34V35.696C390.34 38.64 391.556 40.112 393.988 40.112C395.182 40.112 396.078 39.7493 396.676 39.024C397.316 38.256 397.636 36.9333 397.636 35.056V31.536C397.636 29.488 397.273 28.0373 396.548 27.184C395.822 26.288 394.649 25.84 393.028 25.84H391.3V19.44H393.412C394.82 19.44 395.865 19.0773 396.548 18.352C397.273 17.6267 397.636 16.4107 397.636 14.704ZM425.698 1.2L432.866 46H425.762L424.546 37.872H415.906L414.69 46H408.226L415.394 1.2H425.698ZM420.194 9.136L416.802 31.792H423.586L420.194 9.136ZM443.825 7.6V46H436.785V1.2H458.993V46H451.825V7.6H443.825ZM471.201 11.504V35.696C471.201 38.64 472.417 40.112 474.849 40.112C477.281 40.112 478.497 38.64 478.497 35.696V11.504C478.497 8.56 477.281 7.088 474.849 7.088C472.417 7.088 471.201 8.56 471.201 11.504ZM464.161 35.248V11.952C464.161 8.368 465.079 5.59466 466.913 3.632C468.748 1.66933 471.393 0.688 474.849 0.688C478.305 0.688 480.951 1.66933 482.785 3.632C484.62 5.59466 485.537 8.368 485.537 11.952V35.248C485.537 38.832 484.62 41.6053 482.785 43.568C480.951 45.5307 478.305 46.512 474.849 46.512C471.393 46.512 468.748 45.5307 466.913 43.568C465.079 41.6053 464.161 38.832 464.161 35.248ZM488.769 46.064V39.664C490.475 39.664 491.606 39.408 492.161 38.896C492.758 38.3413 493.078 37.0613 493.121 35.056L494.273 1.2H514.177V46H507.009V7.6H500.865L500.097 34.672C499.969 38.768 499.115 41.6907 497.537 43.44C495.958 45.1893 493.398 46.064 489.857 46.064H488.769ZM527.245 26.8V46H520.205V1.2H527.245V20.4H535.245V1.2H542.413V46H535.245V26.8H527.245ZM561.278 25.456L555.39 46H548.158V1.2H554.43V29.552L556.99 19.696L562.75 1.2H570.494V46H564.158V14.448L561.278 25.456ZM574.126 46.064V39.664C575.833 39.664 576.963 39.408 577.518 38.896C578.115 38.3413 578.435 37.0613 578.478 35.056L579.63 1.2H599.534V46H592.366V7.6H586.222L585.454 34.672C585.326 38.768 584.473 41.6907 582.894 43.44C581.315 45.1893 578.755 46.064 575.214 46.064H574.126ZM618.682 25.456L612.794 46H605.562V1.2H611.834V29.552L614.394 19.696L620.154 1.2H627.898V46H621.562V14.448L618.682 25.456ZM655.292 46H644.156V1.2H663.868V7.6H651.196V19.056H655.292C658.791 19.056 661.436 20.016 663.228 21.936C665.02 23.8133 665.916 26.544 665.916 30.128V34.928C665.916 38.512 665.02 41.264 663.228 43.184C661.436 45.0613 658.791 46 655.292 46ZM651.196 39.6H655.292C657.682 39.6 658.876 38.192 658.876 35.376V29.68C658.876 26.864 657.682 25.456 655.292 25.456H651.196V39.6ZM681.663 1.2C688.66 1.2 692.159 4.89066 692.159 12.272V18.096C692.159 25.4773 688.66 29.168 681.663 29.168H678.335V46H671.295V1.2H681.663ZM681.663 7.6H678.335V22.768H681.663C682.815 22.768 683.668 22.448 684.223 21.808C684.82 21.168 685.119 20.08 685.119 18.544V11.824C685.119 10.288 684.82 9.2 684.223 8.56C683.668 7.92 682.815 7.6 681.663 7.6ZM709.18 25.456L703.292 46H696.06V1.2H702.332V29.552L704.892 19.696L710.652 1.2H718.396V46H712.06V14.448L709.18 25.456ZM736.557 46V40.944H733.933C726.935 40.944 723.437 37.2533 723.437 29.872V17.648C723.437 10.2667 726.935 6.576 733.933 6.576H736.557V1.2H743.469V6.576H746.093C753.09 6.576 756.589 10.2667 756.589 17.648V29.872C756.589 37.2533 753.09 40.944 746.093 40.944H743.469V46H736.557ZM746.093 12.784H743.469V34.8H746.093C748.439 34.8 749.613 33.3067 749.613 30.32V17.2C749.613 14.256 748.439 12.784 746.093 12.784ZM736.557 34.8V12.784H733.933C731.586 12.784 730.413 14.256 730.413 17.2V30.32C730.413 33.3067 731.586 34.8 733.933 34.8H736.557ZM768.109 36.08H762.861L761.965 19.888V1.2H769.005V19.888L768.109 36.08ZM762.093 39.216H768.877V46H762.093V39.216Z" fill="#7ECFDA"/>
</svg>
