<svg width="461" height="119" viewBox="0 0 461 119" fill="none" xmlns="http://www.w3.org/2000/svg">
<path d="M7.6 7.6V46H0.56V1.2H22.768V46H15.6V7.6H7.6ZM34.9765 11.504V35.696C34.9765 38.64 36.1925 40.112 38.6245 40.112C41.0565 40.112 42.2725 38.64 42.2725 35.696V11.504C42.2725 8.56 41.0565 7.088 38.6245 7.088C36.1925 7.088 34.9765 8.56 34.9765 11.504ZM27.9365 35.248V11.952C27.9365 8.368 28.8538 5.59466 30.6885 3.632C32.5232 1.66933 35.1685 0.688 38.6245 0.688C42.0805 0.688 44.7258 1.66933 46.5605 3.632C48.3952 5.59466 49.3125 8.368 49.3125 11.952V35.248C49.3125 38.832 48.3952 41.6053 46.5605 43.568C44.7258 45.5307 42.0805 46.512 38.6245 46.512C35.1685 46.512 32.5232 45.5307 30.6885 43.568C28.8538 41.6053 27.9365 38.832 27.9365 35.248ZM68.0955 14.704V12.208C68.0955 10.288 67.7755 8.96533 67.1355 8.24C66.5382 7.472 65.6422 7.088 64.4475 7.088C61.9728 7.088 60.7355 8.56 60.7355 11.504V15.152H54.2715V11.824C54.2715 8.19733 55.1462 5.44533 56.8955 3.568C58.6448 1.648 61.2262 0.688 64.6395 0.688C68.0528 0.688 70.6555 1.66933 72.4475 3.632C74.2395 5.552 75.1355 8.32533 75.1355 11.952V13.104C75.1355 17.8827 73.4928 20.9547 70.2075 22.32C73.4928 23.7707 75.1355 26.9067 75.1355 31.728V35.248C75.1355 38.8747 74.2395 41.6693 72.4475 43.632C70.6555 45.552 68.0528 46.512 64.6395 46.512C61.2262 46.512 58.6235 45.552 56.8315 43.632C55.0395 41.6693 54.1435 38.8747 54.1435 35.248V30.32H60.7995V35.696C60.7995 38.64 62.0155 40.112 64.4475 40.112C65.6422 40.112 66.5382 39.7493 67.1355 39.024C67.7755 38.256 68.0955 36.9333 68.0955 35.056V31.536C68.0955 29.488 67.7328 28.0373 67.0075 27.184C66.2822 26.288 65.1088 25.84 63.4875 25.84H61.7595V19.44H63.8715C65.2795 19.44 66.3248 19.0773 67.0075 18.352C67.7328 17.6267 68.0955 16.4107 68.0955 14.704ZM107.87 52.016H100.894V46H85.8545V52.016H79.0065V39.728H81.7585C82.7825 38.448 83.3585 36.5067 83.4865 33.904L85.0865 1.2H104.799V39.728H107.87V52.016ZM91.6785 7.6L90.3985 33.776C90.2278 36.6347 89.5665 38.6187 88.4145 39.728H97.6305V7.6H91.6785ZM122.8 1.2C129.798 1.2 133.296 4.89066 133.296 12.272V18.096C133.296 25.4773 129.798 29.168 122.8 29.168H119.472V46H112.432V1.2H122.8ZM122.8 7.6H119.472V22.768H122.8C123.952 22.768 124.806 22.448 125.36 21.808C125.958 21.168 126.256 20.08 126.256 18.544V11.824C126.256 10.288 125.958 9.2 125.36 8.56C124.806 7.92 123.952 7.6 122.8 7.6ZM152.813 1.2L159.981 46H152.877L151.661 37.872H143.021L141.805 46H135.341L142.509 1.2H152.813ZM147.309 9.136L143.917 31.792H150.701L147.309 9.136ZM174.524 1.2C178.151 1.2 180.796 2.05333 182.46 3.76C184.124 5.424 184.956 8.00533 184.956 11.504V13.104C184.956 17.712 183.441 20.72 180.412 22.128C183.911 23.4933 185.66 26.6933 185.66 31.728V35.376C185.66 38.832 184.743 41.4773 182.908 43.312C181.116 45.104 178.471 46 174.972 46H163.9V1.2H174.524ZM174.076 25.84H170.94V39.6H174.972C176.209 39.6 177.127 39.28 177.724 38.64C178.321 37.9573 178.62 36.8053 178.62 35.184V31.28C178.62 29.232 178.257 27.824 177.532 27.056C176.849 26.2453 175.697 25.84 174.076 25.84ZM174.332 7.6H170.94V19.44H173.692C175.1 19.44 176.145 19.0773 176.828 18.352C177.553 17.6267 177.916 16.4107 177.916 14.704V12.208C177.916 9.136 176.721 7.6 174.332 7.6ZM188.556 46.064V39.664C190.263 39.664 191.393 39.408 191.948 38.896C192.545 38.3413 192.865 37.0613 192.908 35.056L194.06 1.2H213.964V46H206.796V7.6H200.652L199.884 34.672C199.756 38.768 198.903 41.6907 197.324 43.44C195.745 45.1893 193.185 46.064 189.644 46.064H188.556ZM225.88 46H218.712C219.224 44.8053 219.48 42.992 219.48 40.56V33.648C219.48 28.6133 221.038 25.4347 224.152 24.112C221.08 22.6613 219.544 19.632 219.544 15.024V11.504C219.544 8.00533 220.376 5.424 222.04 3.76C223.704 2.05333 226.35 1.2 229.976 1.2H240.6V46H233.56V27.76H231.128C229.507 27.76 228.334 28.208 227.608 29.104C226.883 29.9573 226.52 31.408 226.52 33.456V40.496C226.52 42.8853 226.307 44.72 225.88 46ZM233.56 7.6H230.168C227.779 7.6 226.584 9.136 226.584 12.208V16.624C226.584 18.3307 226.926 19.5467 227.608 20.272C228.334 20.9973 229.4 21.36 230.808 21.36H233.56V7.6ZM258.67 35.248V26.8H253.422V46H246.382V1.2H253.422V20.4H258.67V11.952C258.67 8.368 259.588 5.59466 261.422 3.632C263.257 1.66933 265.902 0.688 269.358 0.688C272.814 0.688 275.46 1.66933 277.294 3.632C279.129 5.59466 280.046 8.368 280.046 11.952V35.248C280.046 38.832 279.129 41.6053 277.294 43.568C275.46 45.5307 272.814 46.512 269.358 46.512C265.902 46.512 263.257 45.5307 261.422 43.568C259.588 41.6053 258.67 38.832 258.67 35.248ZM265.71 11.504V35.696C265.71 38.64 266.926 40.112 269.358 40.112C271.79 40.112 273.006 38.64 273.006 35.696V11.504C273.006 8.56 271.79 7.088 269.358 7.088C266.926 7.088 265.71 8.56 265.71 11.504ZM291.479 36.08H286.231L285.335 19.888V1.2H292.375V19.888L291.479 36.08ZM285.463 39.216H292.247V46H285.463V39.216Z" fill="#424241"/>
<path d="M11.184 73.2C14.8107 73.2 17.456 74.0533 19.12 75.76C20.784 77.424 21.616 80.0053 21.616 83.504V85.104C21.616 89.712 20.1013 92.72 17.072 94.128C20.5707 95.4933 22.32 98.6933 22.32 103.728V107.376C22.32 110.832 21.4027 113.477 19.568 115.312C17.776 117.104 15.1307 118 11.632 118H0.56V73.2H11.184ZM10.736 97.84H7.6V111.6H11.632C12.8693 111.6 13.7867 111.28 14.384 110.64C14.9813 109.957 15.28 108.805 15.28 107.184V103.28C15.28 101.232 14.9173 99.824 14.192 99.056C13.5093 98.2453 12.3573 97.84 10.736 97.84ZM10.992 79.6H7.6V91.44H10.352C11.76 91.44 12.8053 91.0773 13.488 90.352C14.2133 89.6267 14.576 88.4107 14.576 86.704V84.208C14.576 81.136 13.3813 79.6 10.992 79.6ZM37.568 118H27.2V73.2H34.24V90.032H37.568C44.5653 90.032 48.064 93.7227 48.064 101.104V106.928C48.064 114.309 44.5653 118 37.568 118ZM34.24 111.6H37.568C38.72 111.6 39.5733 111.28 40.128 110.64C40.7253 110 41.024 108.912 41.024 107.376V100.656C41.024 99.12 40.7253 98.032 40.128 97.392C39.5733 96.752 38.72 96.432 37.568 96.432H34.24V111.6ZM59.136 118H52.096V73.2H59.136V118ZM89.048 86.704V84.208C89.048 82.288 88.728 80.9653 88.088 80.24C87.4907 79.472 86.5947 79.088 85.4 79.088C82.9253 79.088 81.688 80.56 81.688 83.504V87.152H75.224V83.824C75.224 80.1973 76.0987 77.4453 77.848 75.568C79.5973 73.648 82.1787 72.688 85.592 72.688C89.0053 72.688 91.608 73.6693 93.4 75.632C95.192 77.552 96.088 80.3253 96.088 83.952V85.104C96.088 89.8827 94.4453 92.9547 91.16 94.32C94.4453 95.7707 96.088 98.9067 96.088 103.728V107.248C96.088 110.875 95.192 113.669 93.4 115.632C91.608 117.552 89.0053 118.512 85.592 118.512C82.1787 118.512 79.576 117.552 77.784 115.632C75.992 113.669 75.096 110.875 75.096 107.248V102.32H81.752V107.696C81.752 110.64 82.968 112.112 85.4 112.112C86.5947 112.112 87.4907 111.749 88.088 111.024C88.728 110.256 89.048 108.933 89.048 107.056V103.536C89.048 101.488 88.6853 100.037 87.96 99.184C87.2347 98.288 86.0613 97.84 84.44 97.84H82.712V91.44H84.824C86.232 91.44 87.2773 91.0773 87.96 90.352C88.6853 89.6267 89.048 88.4107 89.048 86.704ZM117.111 73.2L124.279 118H117.175L115.959 109.872H107.319L106.103 118H99.639L106.807 73.2H117.111ZM111.607 81.136L108.215 103.792H114.999L111.607 81.136ZM135.237 79.6V118H128.197V73.2H150.405V118H143.237V79.6H135.237ZM162.614 83.504V107.696C162.614 110.64 163.83 112.112 166.262 112.112C168.694 112.112 169.91 110.64 169.91 107.696V83.504C169.91 80.56 168.694 79.088 166.262 79.088C163.83 79.088 162.614 80.56 162.614 83.504ZM155.574 107.248V83.952C155.574 80.368 156.491 77.5947 158.326 75.632C160.161 73.6693 162.806 72.688 166.262 72.688C169.718 72.688 172.363 73.6693 174.198 75.632C176.033 77.5947 176.95 80.368 176.95 83.952V107.248C176.95 110.832 176.033 113.605 174.198 115.568C172.363 117.531 169.718 118.512 166.262 118.512C162.806 118.512 160.161 117.531 158.326 115.568C156.491 113.605 155.574 110.832 155.574 107.248ZM180.181 118.064V111.664C181.888 111.664 183.018 111.408 183.573 110.896C184.17 110.341 184.49 109.061 184.533 107.056L185.685 73.2H205.589V118H198.421V79.6H192.277L191.509 106.672C191.381 110.768 190.528 113.691 188.949 115.44C187.37 117.189 184.81 118.064 181.269 118.064H180.181ZM218.657 98.8V118H211.617V73.2H218.657V92.4H226.657V73.2H233.825V118H226.657V98.8H218.657ZM252.69 97.456L246.802 118H239.57V73.2H245.842V101.552L248.402 91.696L254.162 73.2H261.906V118H255.57V86.448L252.69 97.456ZM265.538 118.064V111.664C267.245 111.664 268.376 111.408 268.93 110.896C269.528 110.341 269.848 109.061 269.89 107.056L271.042 73.2H290.946V118H283.778V79.6H277.634L276.866 106.672C276.738 110.768 275.885 113.691 274.306 115.44C272.728 117.189 270.168 118.064 266.626 118.064H265.538ZM310.095 97.456L304.207 118H296.975V73.2H303.247V101.552L305.807 91.696L311.567 73.2H319.311V118H312.975V86.448L310.095 97.456ZM346.705 118H335.569V73.2H355.281V79.6H342.609V91.056H346.705C350.204 91.056 352.849 92.016 354.641 93.936C356.433 95.8133 357.329 98.544 357.329 102.128V106.928C357.329 110.512 356.433 113.264 354.641 115.184C352.849 117.061 350.204 118 346.705 118ZM342.609 111.6H346.705C349.094 111.6 350.289 110.192 350.289 107.376V101.68C350.289 98.864 349.094 97.456 346.705 97.456H342.609V111.6ZM373.075 73.2C380.073 73.2 383.571 76.8907 383.571 84.272V90.096C383.571 97.4773 380.073 101.168 373.075 101.168H369.747V118H362.707V73.2H373.075ZM373.075 79.6H369.747V94.768H373.075C374.227 94.768 375.081 94.448 375.635 93.808C376.233 93.168 376.531 92.08 376.531 90.544V83.824C376.531 82.288 376.233 81.2 375.635 80.56C375.081 79.92 374.227 79.6 373.075 79.6ZM400.593 97.456L394.705 118H387.473V73.2H393.745V101.552L396.305 91.696L402.065 73.2H409.809V118H403.473V86.448L400.593 97.456ZM427.969 118V112.944H425.345C418.348 112.944 414.849 109.253 414.849 101.872V89.648C414.849 82.2667 418.348 78.576 425.345 78.576H427.969V73.2H434.881V78.576H437.505C444.502 78.576 448.001 82.2667 448.001 89.648V101.872C448.001 109.253 444.502 112.944 437.505 112.944H434.881V118H427.969ZM437.505 84.784H434.881V106.8H437.505C439.852 106.8 441.025 105.307 441.025 102.32V89.2C441.025 86.256 439.852 84.784 437.505 84.784ZM427.969 106.8V84.784H425.345C422.998 84.784 421.825 86.256 421.825 89.2V102.32C421.825 105.307 422.998 106.8 425.345 106.8H427.969ZM459.522 108.08H454.274L453.378 91.888V73.2H460.418V91.888L459.522 108.08ZM453.506 111.216H460.29V118H453.506V111.216Z" fill="#7ECFDA"/>
</svg>
