<svg width="880" height="140" viewBox="0 0 880 140" fill="none" xmlns="http://www.w3.org/2000/svg">
<path d="M20.16 48H15L7.23 37.14V48H2.7V26.58H7.23V36.96L14.91 26.58H19.74L11.94 36.87L20.16 48ZM67.1963 26.58C69.9563 26.58 71.9663 27.18 73.2263 28.38C74.5063 29.56 75.1463 31.19 75.1463 33.27C75.1463 34.53 74.8863 35.7 74.3663 36.78C73.8463 37.86 72.9763 38.73 71.7563 39.39C70.5563 40.05 68.9163 40.38 66.8363 40.38H64.8863V48H60.3563V26.58H67.1963ZM66.9563 30.3H64.8863V36.66H66.3863C67.6663 36.66 68.6763 36.41 69.4163 35.91C70.1763 35.39 70.5563 34.56 70.5563 33.42C70.5563 31.34 69.3563 30.3 66.9563 30.3ZM129.024 48H116.694V26.58H129.024V30.3H121.224V35.01H128.484V38.73H121.224V44.25H129.024V48ZM184.091 48L182.531 42.9H174.731L173.171 48H168.281L175.841 26.49H181.391L188.981 48H184.091ZM181.451 39.09L179.891 34.11C179.791 33.77 179.661 33.34 179.501 32.82C179.341 32.3 179.181 31.77 179.021 31.23C178.861 30.69 178.731 30.22 178.631 29.82C178.531 30.22 178.391 30.72 178.211 31.32C178.051 31.9 177.891 32.46 177.731 33C177.591 33.52 177.481 33.89 177.401 34.11L175.871 39.09H181.451ZM235.335 48H230.805V30.36H224.985V26.58H241.155V30.36H235.335V48ZM281.958 26.58H286.038V36.93C286.038 37.43 286.028 37.99 286.008 38.61C285.988 39.23 285.968 39.84 285.948 40.44C285.928 41.02 285.908 41.53 285.888 41.97C285.868 42.39 285.848 42.68 285.828 42.84H285.918L295.818 26.58H301.248V48H297.198V37.71C297.198 37.17 297.208 36.58 297.228 35.94C297.248 35.28 297.268 34.65 297.288 34.05C297.328 33.45 297.358 32.93 297.378 32.49C297.418 32.03 297.448 31.73 297.468 31.59H297.348L287.418 48H281.958V26.58ZM344.155 26.58H350.815C353.655 26.58 355.805 26.98 357.265 27.78C358.745 28.58 359.485 29.99 359.485 32.01C359.485 33.23 359.195 34.26 358.615 35.1C358.055 35.94 357.245 36.45 356.185 36.63V36.78C356.885 36.94 357.525 37.2 358.105 37.56C358.705 37.9 359.175 38.41 359.515 39.09C359.855 39.77 360.025 40.67 360.025 41.79C360.025 43.73 359.315 45.25 357.895 46.35C356.495 47.45 354.585 48 352.165 48H344.155V26.58ZM348.685 35.07H351.325C352.645 35.07 353.555 34.87 354.055 34.47C354.575 34.05 354.835 33.43 354.835 32.61C354.835 31.79 354.535 31.2 353.935 30.84C353.335 30.48 352.385 30.3 351.085 30.3H348.685V35.07ZM348.685 38.67V44.25H351.655C353.015 44.25 353.965 43.99 354.505 43.47C355.045 42.93 355.315 42.22 355.315 41.34C355.315 40.54 355.035 39.9 354.475 39.42C353.935 38.92 352.945 38.67 351.505 38.67H348.685ZM419.361 48H414.831V38.76H406.341V48H401.811V26.58H406.341V34.98H414.831V26.58H419.361V48ZM462.251 48V26.58H466.781V34.8H468.251C470.231 34.8 471.851 35.08 473.111 35.64C474.391 36.2 475.341 36.97 475.961 37.95C476.581 38.93 476.891 40.05 476.891 41.31C476.891 43.43 476.191 45.08 474.791 46.26C473.391 47.42 471.161 48 468.101 48H462.251ZM479.501 48V26.58H484.031V48H479.501ZM466.781 44.28H467.981C469.321 44.28 470.371 44.06 471.131 43.62C471.911 43.18 472.301 42.41 472.301 41.31C472.301 40.17 471.901 39.42 471.101 39.06C470.321 38.7 469.211 38.52 467.771 38.52H466.781V44.28ZM526.938 26.58H531.018V36.93C531.018 37.43 531.008 37.99 530.988 38.61C530.968 39.23 530.948 39.84 530.928 40.44C530.908 41.02 530.888 41.53 530.868 41.97C530.848 42.39 530.828 42.68 530.808 42.84H530.898L540.798 26.58H546.228V48H542.178V37.71C542.178 37.17 542.188 36.58 542.208 35.94C542.228 35.28 542.248 34.65 542.268 34.05C542.308 33.45 542.338 32.93 542.358 32.49C542.398 32.03 542.428 31.73 542.448 31.59H542.328L532.398 48H526.938V26.58ZM544.188 19.53C544.088 20.57 543.798 21.49 543.318 22.29C542.838 23.07 542.088 23.68 541.068 24.12C540.048 24.56 538.678 24.78 536.958 24.78C535.198 24.78 533.818 24.57 532.818 24.15C531.838 23.73 531.138 23.13 530.718 22.35C530.298 21.55 530.048 20.61 529.968 19.53H533.958C534.038 20.63 534.308 21.36 534.768 21.72C535.248 22.08 536.008 22.26 537.048 22.26C537.908 22.26 538.608 22.07 539.148 21.69C539.708 21.29 540.038 20.57 540.138 19.53H544.188ZM678.432 48V26.58H691.962V30.33H682.962V34.8H684.762C686.782 34.8 688.432 35.08 689.712 35.64C691.012 36.2 691.972 36.97 692.592 37.95C693.212 38.93 693.522 40.05 693.522 41.31C693.522 43.43 692.812 45.08 691.392 46.26C689.992 47.42 687.752 48 684.672 48H678.432ZM682.962 44.28H684.492C685.872 44.28 686.952 44.06 687.732 43.62C688.532 43.18 688.932 42.41 688.932 41.31C688.932 40.17 688.502 39.42 687.642 39.06C686.782 38.7 685.612 38.52 684.132 38.52H682.962V44.28ZM741.903 26.58C744.663 26.58 746.673 27.18 747.933 28.38C749.213 29.56 749.853 31.19 749.853 33.27C749.853 34.53 749.593 35.7 749.073 36.78C748.553 37.86 747.683 38.73 746.463 39.39C745.263 40.05 743.623 40.38 741.543 40.38H739.593V48H735.063V26.58H741.903ZM741.663 30.3H739.593V36.66H741.093C742.373 36.66 743.383 36.41 744.123 35.91C744.883 35.39 745.263 34.56 745.263 33.42C745.263 31.34 744.063 30.3 741.663 30.3ZM791.401 26.58H795.481V36.93C795.481 37.43 795.471 37.99 795.451 38.61C795.431 39.23 795.411 39.84 795.391 40.44C795.371 41.02 795.351 41.53 795.331 41.97C795.311 42.39 795.291 42.68 795.271 42.84H795.361L805.261 26.58H810.691V48H806.641V37.71C806.641 37.17 806.651 36.58 806.671 35.94C806.691 35.28 806.711 34.65 806.731 34.05C806.771 33.45 806.801 32.93 806.821 32.49C806.861 32.03 806.891 31.73 806.911 31.59H806.791L796.861 48H791.401V26.58ZM865.838 26.28V28.92C868.158 28.98 870.018 29.39 871.418 30.15C872.818 30.89 873.818 31.85 874.418 33.03C875.038 34.21 875.348 35.5 875.348 36.9C875.348 37.8 875.188 38.72 874.868 39.66C874.568 40.6 874.048 41.47 873.308 42.27C872.588 43.05 871.618 43.69 870.398 44.19C869.178 44.69 867.658 44.96 865.838 45V48.3H861.758V45C859.918 44.96 858.378 44.69 857.138 44.19C855.918 43.69 854.948 43.04 854.228 42.24C853.508 41.44 852.998 40.58 852.698 39.66C852.398 38.72 852.248 37.8 852.248 36.9C852.248 35.5 852.548 34.21 853.148 33.03C853.768 31.85 854.768 30.89 856.148 30.15C857.548 29.39 859.418 28.98 861.758 28.92V26.28H865.838ZM861.758 32.46C859.798 32.54 858.428 32.99 857.648 33.81C856.888 34.63 856.508 35.65 856.508 36.87C856.508 38.21 856.918 39.3 857.738 40.14C858.578 40.96 859.918 41.41 861.758 41.49V32.46ZM865.838 32.46V41.49C867.678 41.41 869.008 40.96 869.828 40.14C870.668 39.3 871.088 38.21 871.088 36.87C871.088 35.65 870.698 34.63 869.918 33.81C869.158 32.99 867.798 32.54 865.838 32.46ZM9.6 100.8V120H2.56V75.2H9.6V94.4H17.6V75.2H24.768V120H17.6V100.8H9.6ZM45.4885 75.2L52.6565 120H45.5525L44.3365 111.872H35.6965L34.4805 120H28.0165L35.1845 75.2H45.4885ZM39.9845 83.136L36.5925 105.792H43.3765L39.9845 83.136ZM76.2405 75.2C83.2378 75.2 86.7365 78.8907 86.7365 86.272V92.096C86.7365 99.4773 83.2378 103.168 76.2405 103.168H72.9125V120H65.8725V75.2H76.2405ZM76.2405 81.6H72.9125V96.768H76.2405C77.3925 96.768 78.2458 96.448 78.8005 95.808C79.3978 95.168 79.6965 94.08 79.6965 92.544V85.824C79.6965 84.288 79.3978 83.2 78.8005 82.56C78.2458 81.92 77.3925 81.6 76.2405 81.6ZM105.614 75.2L112.782 120H105.678L104.462 111.872H95.8215L94.6055 120H88.1415L95.3095 75.2H105.614ZM100.11 83.136L96.7175 105.792H103.502L100.11 83.136ZM129.628 88.704V86.208C129.628 84.288 129.308 82.9653 128.668 82.24C128.071 81.472 127.175 81.088 125.98 81.088C123.505 81.088 122.268 82.56 122.268 85.504V89.152H115.804V85.824C115.804 82.1973 116.679 79.4453 118.428 77.568C120.177 75.648 122.759 74.688 126.172 74.688C129.585 74.688 132.188 75.6693 133.98 77.632C135.772 79.552 136.668 82.3253 136.668 85.952V87.104C136.668 91.8827 135.025 94.9547 131.74 96.32C135.025 97.7707 136.668 100.907 136.668 105.728V109.248C136.668 112.875 135.772 115.669 133.98 117.632C132.188 119.552 129.585 120.512 126.172 120.512C122.759 120.512 120.156 119.552 118.364 117.632C116.572 115.669 115.676 112.875 115.676 109.248V104.32H122.332V109.696C122.332 112.64 123.548 114.112 125.98 114.112C127.175 114.112 128.071 113.749 128.668 113.024C129.308 112.256 129.628 110.933 129.628 109.056V105.536C129.628 103.488 129.265 102.037 128.54 101.184C127.815 100.288 126.641 99.84 125.02 99.84H123.292V93.44H125.404C126.812 93.44 127.857 93.0773 128.54 92.352C129.265 91.6267 129.628 90.4107 129.628 88.704ZM151.803 75.2C158.8 75.2 162.299 78.8907 162.299 86.272V92.096C162.299 99.4773 158.8 103.168 151.803 103.168H148.475V120H141.435V75.2H151.803ZM151.803 81.6H148.475V96.768H151.803C152.955 96.768 153.808 96.448 154.363 95.808C154.96 95.168 155.259 94.08 155.259 92.544V85.824C155.259 84.288 154.96 83.2 154.363 82.56C153.808 81.92 152.955 81.6 151.803 81.6ZM181.176 75.2L188.344 120H181.24L180.024 111.872H171.384L170.168 120H163.704L170.872 75.2H181.176ZM175.672 83.136L172.28 105.792H179.064L175.672 83.136ZM202.823 120H191.687V75.2H211.399V81.6H198.727V93.056H202.823C206.321 93.056 208.967 94.016 210.759 95.936C212.551 97.8133 213.447 100.544 213.447 104.128V108.928C213.447 112.512 212.551 115.264 210.759 117.184C208.967 119.061 206.321 120 202.823 120ZM198.727 113.6H202.823C205.212 113.6 206.407 112.192 206.407 109.376V103.68C206.407 100.864 205.212 99.456 202.823 99.456H198.727V113.6ZM224.649 85.504V109.696C224.649 112.64 225.865 114.112 228.297 114.112C230.729 114.112 231.945 112.64 231.945 109.696V85.504C231.945 82.56 230.729 81.088 228.297 81.088C225.865 81.088 224.649 82.56 224.649 85.504ZM217.609 109.248V85.952C217.609 82.368 218.526 79.5947 220.361 77.632C222.196 75.6693 224.841 74.688 228.297 74.688C231.753 74.688 234.398 75.6693 236.233 77.632C238.068 79.5947 238.985 82.368 238.985 85.952V109.248C238.985 112.832 238.068 115.605 236.233 117.568C234.398 119.531 231.753 120.512 228.297 120.512C224.841 120.512 222.196 119.531 220.361 117.568C218.526 115.605 217.609 112.832 217.609 109.248ZM241.512 81.6V75.2H263.272V81.6H255.912V120H248.872V81.6H241.512ZM282.437 120L275.589 102.144L273.413 106.24V120H266.373V75.2H273.413V94.72L282.628 75.2H289.669L279.877 95.168L289.669 120H282.437ZM316.041 75.2L308.489 108.608C307.593 112.96 306.163 116.032 304.201 117.824C302.238 119.616 298.931 120.363 294.281 120.064V113.792C296.201 113.92 297.651 113.728 298.633 113.216C299.614 112.704 300.233 111.68 300.489 110.144L300.553 109.76L290.825 75.2H297.801L301.641 90.496L303.817 100.992L305.481 90.56L308.681 75.2H316.041Z" fill="#424241"/>
<path d="M338.663 75.2L343.847 107.008L348.647 75.2H358.439V120H351.783V87.872L346.919 120H340.263L335.015 88.32V120H328.871V75.2H338.663ZM370.6 100.8V120H363.56V75.2H370.6V94.4H378.6V75.2H385.768V120H378.6V100.8H370.6ZM397.337 85.504V109.696C397.337 112.64 398.553 114.112 400.985 114.112C403.417 114.112 404.633 112.64 404.633 109.696V85.504C404.633 82.56 403.417 81.088 400.985 81.088C398.553 81.088 397.337 82.56 397.337 85.504ZM390.297 109.248V85.952C390.297 82.368 391.214 79.5947 393.049 77.632C394.883 75.6693 397.529 74.688 400.985 74.688C404.441 74.688 407.086 75.6693 408.921 77.632C410.755 79.5947 411.673 82.368 411.673 85.952V109.248C411.673 112.832 410.755 115.605 408.921 117.568C407.086 119.531 404.441 120.512 400.985 120.512C397.529 120.512 394.883 119.531 393.049 117.568C391.214 115.605 390.297 112.832 390.297 109.248ZM423.352 120H416.312V75.2H434.872V81.6H423.352V120ZM446.087 85.504V109.696C446.087 112.64 447.303 114.112 449.735 114.112C452.167 114.112 453.383 112.64 453.383 109.696V85.504C453.383 82.56 452.167 81.088 449.735 81.088C447.303 81.088 446.087 82.56 446.087 85.504ZM439.047 109.248V85.952C439.047 82.368 439.964 79.5947 441.799 77.632C443.633 75.6693 446.279 74.688 449.735 74.688C453.191 74.688 455.836 75.6693 457.671 77.632C459.505 79.5947 460.423 82.368 460.423 85.952V109.248C460.423 112.832 459.505 115.605 457.671 117.568C455.836 119.531 453.191 120.512 449.735 120.512C446.279 120.512 443.633 119.531 441.799 117.568C439.964 115.605 439.047 112.832 439.047 109.248ZM478.758 103.296H485.414V109.248C485.414 112.875 484.518 115.669 482.726 117.632C480.934 119.552 478.331 120.512 474.918 120.512C471.504 120.512 468.902 119.552 467.11 117.632C465.318 115.669 464.422 112.875 464.422 109.248V85.952C464.422 82.3253 465.318 79.552 467.11 77.632C468.902 75.6693 471.504 74.688 474.918 74.688C478.331 74.688 480.934 75.6693 482.726 77.632C484.518 79.552 485.414 82.3253 485.414 85.952V90.304H478.758V85.504C478.758 82.56 477.542 81.088 475.11 81.088C472.678 81.088 471.462 82.56 471.462 85.504V109.696C471.462 112.597 472.678 114.048 475.11 114.048C477.542 114.048 478.758 112.597 478.758 109.696V103.296ZM487.637 81.6V75.2H509.397V81.6H502.037V120H494.997V81.6H487.637ZM522.866 75.2C529.863 75.2 533.362 78.8907 533.362 86.272V92.096C533.362 99.4773 529.863 103.168 522.866 103.168H519.538V120H512.498V75.2H522.866ZM522.866 81.6H519.538V96.768H522.866C524.018 96.768 524.871 96.448 525.426 95.808C526.023 95.168 526.322 94.08 526.322 92.544V85.824C526.322 84.288 526.023 83.2 525.426 82.56C524.871 81.92 524.018 81.6 522.866 81.6ZM552.239 75.2L559.407 120H552.303L551.087 111.872H542.447L541.231 120H534.767L541.935 75.2H552.239ZM546.735 83.136L543.343 105.792H550.127L546.735 83.136ZM569.725 100.8V120H562.685V75.2H569.725V94.4H577.725V75.2H584.893V120H577.725V100.8H569.725ZM603.118 99.456L597.23 120H589.998V75.2H596.27V103.552L598.83 93.696L604.59 75.2H612.334V120H605.998V88.448L603.118 99.456ZM631.646 75.2H638.686V120H631.646V101.952C630.11 103.616 628.105 104.448 625.63 104.448C622.814 104.448 620.638 103.531 619.102 101.696C617.609 99.8187 616.862 97.3013 616.862 94.144V75.2H623.902V93.568C623.902 95.0187 624.286 96.128 625.054 96.896C625.822 97.6213 626.803 97.984 627.998 97.984C629.15 97.984 630.046 97.6 630.686 96.832C631.326 96.0213 631.646 94.8693 631.646 93.376V75.2ZM650.913 100.8V120H643.873V75.2H650.913V94.4H658.913V75.2H666.081V120H658.913V100.8H650.913ZM677.649 85.504V109.696C677.649 112.64 678.865 114.112 681.297 114.112C683.729 114.112 684.945 112.64 684.945 109.696V85.504C684.945 82.56 683.729 81.088 681.297 81.088C678.865 81.088 677.649 82.56 677.649 85.504ZM670.609 109.248V85.952C670.609 82.368 671.526 79.5947 673.361 77.632C675.196 75.6693 677.841 74.688 681.297 74.688C684.753 74.688 687.398 75.6693 689.233 77.632C691.068 79.5947 691.985 82.368 691.985 85.952V109.248C691.985 112.832 691.068 115.605 689.233 117.568C687.398 119.531 684.753 120.512 681.297 120.512C677.841 120.512 675.196 119.531 673.361 117.568C671.526 115.605 670.609 112.832 670.609 109.248ZM703.664 120H696.624V75.2H715.184V81.6H703.664V120ZM726.399 85.504V109.696C726.399 112.64 727.615 114.112 730.047 114.112C732.479 114.112 733.695 112.64 733.695 109.696V85.504C733.695 82.56 732.479 81.088 730.047 81.088C727.615 81.088 726.399 82.56 726.399 85.504ZM719.359 109.248V85.952C719.359 82.368 720.276 79.5947 722.111 77.632C723.946 75.6693 726.591 74.688 730.047 74.688C733.503 74.688 736.148 75.6693 737.983 77.632C739.818 79.5947 740.735 82.368 740.735 85.952V109.248C740.735 112.832 739.818 115.605 737.983 117.568C736.148 119.531 733.503 120.512 730.047 120.512C726.591 120.512 723.946 119.531 722.111 117.568C720.276 115.605 719.359 112.832 719.359 109.248ZM769.008 103.296H775.664V109.248C775.664 112.875 774.768 115.669 772.976 117.632C771.184 119.552 768.581 120.512 765.168 120.512C761.754 120.512 759.152 119.552 757.36 117.632C755.568 115.669 754.672 112.875 754.672 109.248V85.952C754.672 82.3253 755.568 79.552 757.36 77.632C759.152 75.6693 761.754 74.688 765.168 74.688C768.581 74.688 771.184 75.6693 772.976 77.632C774.768 79.552 775.664 82.3253 775.664 85.952V90.304H769.008V85.504C769.008 82.56 767.792 81.088 765.36 81.088C762.928 81.088 761.712 82.56 761.712 85.504V109.696C761.712 112.597 762.928 114.048 765.36 114.048C767.792 114.048 769.008 112.597 769.008 109.696V103.296ZM795.551 75.2L802.719 120H795.615L794.399 111.872H785.759L784.543 120H778.079L785.247 75.2H795.551ZM790.047 83.136L786.655 105.792H793.439L790.047 83.136ZM813.23 120H805.998V75.2H812.27V103.552L814.83 93.696L820.59 75.2H828.334V120H821.998V88.448L819.118 99.456L813.23 120ZM820.462 65.216C820.376 66.3253 820.078 67.0933 819.566 67.52C819.054 67.9467 818.286 68.16 817.262 68.16C816.28 68.16 815.555 67.968 815.086 67.584C814.616 67.1573 814.339 66.368 814.254 65.216H809.902C809.987 67.4773 810.627 69.2267 811.822 70.464C813.059 71.7013 814.872 72.32 817.262 72.32C819.694 72.32 821.55 71.7013 822.83 70.464C824.11 69.184 824.75 67.4347 824.75 65.216H820.462ZM831.387 81.6V75.2H853.147V81.6H845.787V120H838.747V81.6H831.387ZM871.864 75.2L879.032 120H871.928L870.712 111.872H862.072L860.856 120H854.392L861.56 75.2H871.864ZM866.36 83.136L862.968 105.792H869.752L866.36 83.136Z" fill="#7ECFDA"/>
</svg>
