<svg width="602" height="140" viewBox="0 0 602 140" fill="none" xmlns="http://www.w3.org/2000/svg">
<path d="M20.16 48H15L7.23 37.14V48H2.7V26.58H7.23V36.96L14.91 26.58H19.74L11.94 36.87L20.16 48ZM50.6963 26.58C53.4563 26.58 55.4663 27.18 56.7263 28.38C58.0063 29.56 58.6463 31.19 58.6463 33.27C58.6463 34.53 58.3863 35.7 57.8663 36.78C57.3463 37.86 56.4763 38.73 55.2563 39.39C54.0563 40.05 52.4163 40.38 50.3363 40.38H48.3863V48H43.8563V26.58H50.6963ZM50.4563 30.3H48.3863V36.66H49.8863C51.1663 36.66 52.1763 36.41 52.9163 35.91C53.6763 35.39 54.0563 34.56 54.0563 33.42C54.0563 31.34 52.8563 30.3 50.4563 30.3ZM96.0241 48H83.6941V26.58H96.0241V30.3H88.2241V35.01H95.4841V38.73H88.2241V44.25H96.0241V48ZM134.591 48L133.031 42.9H125.231L123.671 48H118.781L126.341 26.49H131.891L139.481 48H134.591ZM131.951 39.09L130.391 34.11C130.291 33.77 130.161 33.34 130.001 32.82C129.841 32.3 129.681 31.77 129.521 31.23C129.361 30.69 129.231 30.22 129.131 29.82C129.031 30.22 128.891 30.72 128.711 31.32C128.551 31.9 128.391 32.46 128.231 33C128.091 33.52 127.981 33.89 127.901 34.11L126.371 39.09H131.951ZM169.335 48H164.805V30.36H158.985V26.58H175.155V30.36H169.335V48ZM199.458 26.58H203.538V36.93C203.538 37.43 203.528 37.99 203.508 38.61C203.488 39.23 203.468 39.84 203.448 40.44C203.428 41.02 203.408 41.53 203.388 41.97C203.368 42.39 203.348 42.68 203.328 42.84H203.418L213.318 26.58H218.748V48H214.698V37.71C214.698 37.17 214.708 36.58 214.728 35.94C214.748 35.28 214.768 34.65 214.788 34.05C214.828 33.45 214.858 32.93 214.878 32.49C214.918 32.03 214.948 31.73 214.968 31.59H214.848L204.918 48H199.458V26.58ZM245.155 26.58H251.815C254.655 26.58 256.805 26.98 258.265 27.78C259.745 28.58 260.485 29.99 260.485 32.01C260.485 33.23 260.195 34.26 259.615 35.1C259.055 35.94 258.245 36.45 257.185 36.63V36.78C257.885 36.94 258.525 37.2 259.105 37.56C259.705 37.9 260.175 38.41 260.515 39.09C260.855 39.77 261.025 40.67 261.025 41.79C261.025 43.73 260.315 45.25 258.895 46.35C257.495 47.45 255.585 48 253.165 48H245.155V26.58ZM249.685 35.07H252.325C253.645 35.07 254.555 34.87 255.055 34.47C255.575 34.05 255.835 33.43 255.835 32.61C255.835 31.79 255.535 31.2 254.935 30.84C254.335 30.48 253.385 30.3 252.085 30.3H249.685V35.07ZM249.685 38.67V44.25H252.655C254.015 44.25 254.965 43.99 255.505 43.47C256.045 42.93 256.315 42.22 256.315 41.34C256.315 40.54 256.035 39.9 255.475 39.42C254.935 38.92 253.945 38.67 252.505 38.67H249.685ZM303.861 48H299.331V38.76H290.841V48H286.311V26.58H290.841V34.98H299.331V26.58H303.861V48ZM330.251 48V26.58H334.781V34.8H336.251C338.231 34.8 339.851 35.08 341.111 35.64C342.391 36.2 343.341 36.97 343.961 37.95C344.581 38.93 344.891 40.05 344.891 41.31C344.891 43.43 344.191 45.08 342.791 46.26C341.391 47.42 339.161 48 336.101 48H330.251ZM347.501 48V26.58H352.031V48H347.501ZM334.781 44.28H335.981C337.321 44.28 338.371 44.06 339.131 43.62C339.911 43.18 340.301 42.41 340.301 41.31C340.301 40.17 339.901 39.42 339.101 39.06C338.321 38.7 337.211 38.52 335.771 38.52H334.781V44.28ZM378.438 26.58H382.518V36.93C382.518 37.43 382.508 37.99 382.488 38.61C382.468 39.23 382.448 39.84 382.428 40.44C382.408 41.02 382.388 41.53 382.368 41.97C382.348 42.39 382.328 42.68 382.308 42.84H382.398L392.298 26.58H397.728V48H393.678V37.71C393.678 37.17 393.688 36.58 393.708 35.94C393.728 35.28 393.748 34.65 393.768 34.05C393.808 33.45 393.838 32.93 393.858 32.49C393.898 32.03 393.928 31.73 393.948 31.59H393.828L383.898 48H378.438V26.58ZM395.688 19.53C395.588 20.57 395.298 21.49 394.818 22.29C394.338 23.07 393.588 23.68 392.568 24.12C391.548 24.56 390.178 24.78 388.458 24.78C386.698 24.78 385.318 24.57 384.318 24.15C383.338 23.73 382.638 23.13 382.218 22.35C381.798 21.55 381.548 20.61 381.468 19.53H385.458C385.538 20.63 385.808 21.36 386.268 21.72C386.748 22.08 387.508 22.26 388.548 22.26C389.408 22.26 390.108 22.07 390.648 21.69C391.208 21.29 391.538 20.57 391.638 19.53H395.688ZM452.284 48V26.58H465.814V30.33H456.814V34.8H458.614C460.634 34.8 462.284 35.08 463.564 35.64C464.864 36.2 465.824 36.97 466.444 37.95C467.064 38.93 467.374 40.05 467.374 41.31C467.374 43.43 466.664 45.08 465.244 46.26C463.844 47.42 461.604 48 458.524 48H452.284ZM456.814 44.28H458.344C459.724 44.28 460.804 44.06 461.584 43.62C462.384 43.18 462.784 42.41 462.784 41.31C462.784 40.17 462.354 39.42 461.494 39.06C460.634 38.7 459.464 38.52 457.984 38.52H456.814V44.28ZM499.255 26.58C502.015 26.58 504.025 27.18 505.285 28.38C506.565 29.56 507.205 31.19 507.205 33.27C507.205 34.53 506.945 35.7 506.425 36.78C505.905 37.86 505.035 38.73 503.815 39.39C502.615 40.05 500.975 40.38 498.895 40.38H496.945V48H492.415V26.58H499.255ZM499.015 30.3H496.945V36.66H498.445C499.725 36.66 500.735 36.41 501.475 35.91C502.235 35.39 502.615 34.56 502.615 33.42C502.615 31.34 501.415 30.3 499.015 30.3ZM532.253 26.58H536.333V36.93C536.333 37.43 536.323 37.99 536.303 38.61C536.283 39.23 536.263 39.84 536.243 40.44C536.223 41.02 536.203 41.53 536.183 41.97C536.163 42.39 536.143 42.68 536.123 42.84H536.213L546.113 26.58H551.543V48H547.493V37.71C547.493 37.17 547.503 36.58 547.523 35.94C547.543 35.28 547.563 34.65 547.583 34.05C547.623 33.45 547.653 32.93 547.673 32.49C547.713 32.03 547.743 31.73 547.763 31.59H547.643L537.713 48H532.253V26.58ZM590.19 26.28V28.92C592.51 28.98 594.37 29.39 595.77 30.15C597.17 30.89 598.17 31.85 598.77 33.03C599.39 34.21 599.7 35.5 599.7 36.9C599.7 37.8 599.54 38.72 599.22 39.66C598.92 40.6 598.4 41.47 597.66 42.27C596.94 43.05 595.97 43.69 594.75 44.19C593.53 44.69 592.01 44.96 590.19 45V48.3H586.11V45C584.27 44.96 582.73 44.69 581.49 44.19C580.27 43.69 579.3 43.04 578.58 42.24C577.86 41.44 577.35 40.58 577.05 39.66C576.75 38.72 576.6 37.8 576.6 36.9C576.6 35.5 576.9 34.21 577.5 33.03C578.12 31.85 579.12 30.89 580.5 30.15C581.9 29.39 583.77 28.98 586.11 28.92V26.28H590.19ZM586.11 32.46C584.15 32.54 582.78 32.99 582 33.81C581.24 34.63 580.86 35.65 580.86 36.87C580.86 38.21 581.27 39.3 582.09 40.14C582.93 40.96 584.27 41.41 586.11 41.49V32.46ZM590.19 32.46V41.49C592.03 41.41 593.36 40.96 594.18 40.14C595.02 39.3 595.44 38.21 595.44 36.87C595.44 35.65 595.05 34.63 594.27 33.81C593.51 32.99 592.15 32.54 590.19 32.46ZM9.6 100.8V120H2.56V75.2H9.6V94.4H17.6V75.2H24.768V120H17.6V100.8H9.6ZM45.4885 75.2L52.6565 120H45.5525L44.3365 111.872H35.6965L34.4805 120H28.0165L35.1845 75.2H45.4885ZM39.9845 83.136L36.5925 105.792H43.3765L39.9845 83.136ZM76.2405 75.2C83.2378 75.2 86.7365 78.8907 86.7365 86.272V92.096C86.7365 99.4773 83.2378 103.168 76.2405 103.168H72.9125V120H65.8725V75.2H76.2405ZM76.2405 81.6H72.9125V96.768H76.2405C77.3925 96.768 78.2458 96.448 78.8005 95.808C79.3978 95.168 79.6965 94.08 79.6965 92.544V85.824C79.6965 84.288 79.3978 83.2 78.8005 82.56C78.2458 81.92 77.3925 81.6 76.2405 81.6ZM105.614 75.2L112.782 120H105.678L104.462 111.872H95.8215L94.6055 120H88.1415L95.3095 75.2H105.614ZM100.11 83.136L96.7175 105.792H103.502L100.11 83.136ZM129.628 88.704V86.208C129.628 84.288 129.308 82.9653 128.668 82.24C128.071 81.472 127.175 81.088 125.98 81.088C123.505 81.088 122.268 82.56 122.268 85.504V89.152H115.804V85.824C115.804 82.1973 116.679 79.4453 118.428 77.568C120.177 75.648 122.759 74.688 126.172 74.688C129.585 74.688 132.188 75.6693 133.98 77.632C135.772 79.552 136.668 82.3253 136.668 85.952V87.104C136.668 91.8827 135.025 94.9547 131.74 96.32C135.025 97.7707 136.668 100.907 136.668 105.728V109.248C136.668 112.875 135.772 115.669 133.98 117.632C132.188 119.552 129.585 120.512 126.172 120.512C122.759 120.512 120.156 119.552 118.364 117.632C116.572 115.669 115.676 112.875 115.676 109.248V104.32H122.332V109.696C122.332 112.64 123.548 114.112 125.98 114.112C127.175 114.112 128.071 113.749 128.668 113.024C129.308 112.256 129.628 110.933 129.628 109.056V105.536C129.628 103.488 129.265 102.037 128.54 101.184C127.815 100.288 126.641 99.84 125.02 99.84H123.292V93.44H125.404C126.812 93.44 127.857 93.0773 128.54 92.352C129.265 91.6267 129.628 90.4107 129.628 88.704ZM151.803 75.2C158.8 75.2 162.299 78.8907 162.299 86.272V92.096C162.299 99.4773 158.8 103.168 151.803 103.168H148.475V120H141.435V75.2H151.803ZM151.803 81.6H148.475V96.768H151.803C152.955 96.768 153.808 96.448 154.363 95.808C154.96 95.168 155.259 94.08 155.259 92.544V85.824C155.259 84.288 154.96 83.2 154.363 82.56C153.808 81.92 152.955 81.6 151.803 81.6ZM181.176 75.2L188.344 120H181.24L180.024 111.872H171.384L170.168 120H163.704L170.872 75.2H181.176ZM175.672 83.136L172.28 105.792H179.064L175.672 83.136ZM202.823 120H191.687V75.2H211.399V81.6H198.727V93.056H202.823C206.321 93.056 208.967 94.016 210.759 95.936C212.551 97.8133 213.447 100.544 213.447 104.128V108.928C213.447 112.512 212.551 115.264 210.759 117.184C208.967 119.061 206.321 120 202.823 120ZM198.727 113.6H202.823C205.212 113.6 206.407 112.192 206.407 109.376V103.68C206.407 100.864 205.212 99.456 202.823 99.456H198.727V113.6ZM224.649 85.504V109.696C224.649 112.64 225.865 114.112 228.297 114.112C230.729 114.112 231.945 112.64 231.945 109.696V85.504C231.945 82.56 230.729 81.088 228.297 81.088C225.865 81.088 224.649 82.56 224.649 85.504ZM217.609 109.248V85.952C217.609 82.368 218.526 79.5947 220.361 77.632C222.196 75.6693 224.841 74.688 228.297 74.688C231.753 74.688 234.398 75.6693 236.233 77.632C238.068 79.5947 238.985 82.368 238.985 85.952V109.248C238.985 112.832 238.068 115.605 236.233 117.568C234.398 119.531 231.753 120.512 228.297 120.512C224.841 120.512 222.196 119.531 220.361 117.568C218.526 115.605 217.609 112.832 217.609 109.248ZM241.512 81.6V75.2H263.272V81.6H255.912V120H248.872V81.6H241.512ZM282.437 120L275.589 102.144L273.413 106.24V120H266.373V75.2H273.413V94.72L282.628 75.2H289.669L279.877 95.168L289.669 120H282.437ZM316.041 75.2L308.489 108.608C307.593 112.96 306.163 116.032 304.201 117.824C302.238 119.616 298.931 120.363 294.281 120.064V113.792C296.201 113.92 297.651 113.728 298.633 113.216C299.614 112.704 300.233 111.68 300.489 110.144L300.553 109.76L290.825 75.2H297.801L301.641 90.496L303.817 100.992L305.481 90.56L308.681 75.2H316.041Z" fill="#424241"/>
<path d="M328.935 120V75.2H335.975V113.6H347.559V120H328.935ZM366.239 75.2L373.407 120H366.303L365.087 111.872H356.447L355.231 120H348.767L355.935 75.2H366.239ZM360.735 83.136L357.343 105.792H364.127L360.735 83.136ZM391.725 120L382.957 87.552V120H376.621V75.2H385.453L392.685 102.016V75.2H398.957V120H391.725ZM403.998 120V75.2H415.134C422.131 75.2 425.63 78.8907 425.63 86.272V108.928C425.63 116.309 422.131 120 415.134 120H403.998ZM415.006 81.6H411.038V113.6H415.006C417.395 113.6 418.59 112.149 418.59 109.248V85.952C418.59 83.0507 417.395 81.6 415.006 81.6ZM430.123 120V75.2H437.163V120H430.123ZM457.35 120L448.582 87.552V120H442.246V75.2H451.078L458.31 102.016V75.2H464.582V120H457.35ZM480.183 101.44V95.04H490.039V109.248C490.039 112.875 489.143 115.669 487.351 117.632C485.559 119.552 482.956 120.512 479.543 120.512C476.129 120.512 473.527 119.552 471.735 117.632C469.943 115.669 469.047 112.875 469.047 109.248V85.952C469.047 82.3253 469.943 79.552 471.735 77.632C473.527 75.6693 476.129 74.688 479.543 74.688C482.956 74.688 485.559 75.6693 487.351 77.632C489.143 79.552 490.039 82.3253 490.039 85.952V90.304H483.383V85.504C483.383 82.56 482.167 81.088 479.735 81.088C477.303 81.088 476.087 82.56 476.087 85.504V109.696C476.087 112.597 477.303 114.048 479.735 114.048C482.167 114.048 483.383 112.597 483.383 109.696V101.44H480.183ZM514.866 75.2C521.863 75.2 525.362 78.8907 525.362 86.272V92.096C525.362 99.4773 521.863 103.168 514.866 103.168H511.538V120H504.498V75.2H514.866ZM514.866 81.6H511.538V96.768H514.866C516.018 96.768 516.871 96.448 517.426 95.808C518.023 95.168 518.322 94.08 518.322 92.544V85.824C518.322 84.288 518.023 83.2 517.426 82.56C516.871 81.92 516.018 81.6 514.866 81.6ZM543.739 75.2L550.907 120H543.803L542.587 111.872H533.947L532.731 120H526.267L533.435 75.2H543.739ZM538.235 83.136L534.843 105.792H541.627L538.235 83.136ZM564.745 101.44V95.04H574.601V109.248C574.601 112.875 573.705 115.669 571.913 117.632C570.121 119.552 567.518 120.512 564.105 120.512C560.692 120.512 558.089 119.552 556.297 117.632C554.505 115.669 553.609 112.875 553.609 109.248V85.952C553.609 82.3253 554.505 79.552 556.297 77.632C558.089 75.6693 560.692 74.688 564.105 74.688C567.518 74.688 570.121 75.6693 571.913 77.632C573.705 79.552 574.601 82.3253 574.601 85.952V90.304H567.945V85.504C567.945 82.56 566.729 81.088 564.297 81.088C561.865 81.088 560.649 82.56 560.649 85.504V109.696C560.649 112.597 561.865 114.048 564.297 114.048C566.729 114.048 567.945 112.597 567.945 109.696V101.44H564.745ZM586.163 81.6V94.08H595.827V100.48H586.163V113.6H598.323V120H579.123V75.2H598.323V81.6H586.163Z" fill="#7ECFDA"/>
</svg>
