<svg width="323" height="159" viewBox="0 0 323 159" fill="none" xmlns="http://www.w3.org/2000/svg">
<path d="M16.144 26H11.5L4.507 16.226V26H0.43V6.722H4.507V16.064L11.419 6.722H15.766L8.746 15.983L16.144 26ZM28.2366 6.722C30.7206 6.722 32.5296 7.262 33.6636 8.342C34.8156 9.404 35.3916 10.871 35.3916 12.743C35.3916 13.877 35.1576 14.93 34.6896 15.902C34.2216 16.874 33.4386 17.657 32.3406 18.251C31.2606 18.845 29.7846 19.142 27.9126 19.142H26.1576V26H22.0806V6.722H28.2366ZM28.0206 10.07H26.1576V15.794H27.5076C28.6596 15.794 29.5686 15.569 30.2346 15.119C30.9186 14.651 31.2606 13.904 31.2606 12.878C31.2606 11.006 30.1806 10.07 28.0206 10.07ZM53.6417 26H42.5447V6.722H53.6417V10.07H46.6217V14.309H53.1557V17.657H46.6217V22.625H53.6417V26ZM72.9621 26L71.5581 21.41H64.5381L63.1341 26H58.7331L65.5371 6.641H70.5321L77.3631 26H72.9621ZM70.5861 17.981L69.1821 13.499C69.0921 13.193 68.9751 12.806 68.8311 12.338C68.6871 11.87 68.5431 11.393 68.3991 10.907C68.2551 10.421 68.1381 9.998 68.0481 9.638C67.9581 9.998 67.8321 10.448 67.6701 10.988C67.5261 11.51 67.3821 12.014 67.2381 12.5C67.1121 12.968 67.0131 13.301 66.9411 13.499L65.5641 17.981H70.5861ZM88.8413 26H84.7643V10.124H79.5263V6.722H94.0793V10.124H88.8413V26ZM100.562 6.722H104.234V16.037C104.234 16.487 104.225 16.991 104.207 17.549C104.189 18.107 104.171 18.656 104.153 19.196C104.135 19.718 104.117 20.177 104.099 20.573C104.081 20.951 104.063 21.212 104.045 21.356H104.126L113.036 6.722H117.923V26H114.278V16.739C114.278 16.253 114.287 15.722 114.305 15.146C114.323 14.552 114.341 13.985 114.359 13.445C114.395 12.905 114.422 12.437 114.44 12.041C114.476 11.627 114.503 11.357 114.521 11.231H114.413L105.476 26H100.562V6.722ZM126.3 6.722H132.294C134.85 6.722 136.785 7.082 138.099 7.802C139.431 8.522 140.097 9.791 140.097 11.609C140.097 12.707 139.836 13.634 139.314 14.39C138.81 15.146 138.081 15.605 137.127 15.767V15.902C137.757 16.046 138.333 16.28 138.855 16.604C139.395 16.91 139.818 17.369 140.124 17.981C140.43 18.593 140.583 19.403 140.583 20.411C140.583 22.157 139.944 23.525 138.666 24.515C137.406 25.505 135.687 26 133.509 26H126.3V6.722ZM130.377 14.363H132.753C133.941 14.363 134.76 14.183 135.21 13.823C135.678 13.445 135.912 12.887 135.912 12.149C135.912 11.411 135.642 10.88 135.102 10.556C134.562 10.232 133.707 10.07 132.537 10.07H130.377V14.363ZM130.377 17.603V22.625H133.05C134.274 22.625 135.129 22.391 135.615 21.923C136.101 21.437 136.344 20.798 136.344 20.006C136.344 19.286 136.092 18.71 135.588 18.278C135.102 17.828 134.211 17.603 132.915 17.603H130.377ZM163.745 26H159.668V17.684H152.027V26H147.95V6.722H152.027V14.282H159.668V6.722H163.745V26ZM172.106 26V6.722H176.183V14.12H177.506C179.288 14.12 180.746 14.372 181.88 14.876C183.032 15.38 183.887 16.073 184.445 16.955C185.003 17.837 185.282 18.845 185.282 19.979C185.282 21.887 184.652 23.372 183.392 24.434C182.132 25.478 180.125 26 177.371 26H172.106ZM187.631 26V6.722H191.708V26H187.631ZM176.183 22.652H177.263C178.469 22.652 179.414 22.454 180.098 22.058C180.8 21.662 181.151 20.969 181.151 19.979C181.151 18.953 180.791 18.278 180.071 17.954C179.369 17.63 178.37 17.468 177.074 17.468H176.183V22.652ZM200.084 6.722H203.756V16.037C203.756 16.487 203.747 16.991 203.729 17.549C203.711 18.107 203.693 18.656 203.675 19.196C203.657 19.718 203.639 20.177 203.621 20.573C203.603 20.951 203.585 21.212 203.567 21.356H203.648L212.558 6.722H217.445V26H213.8V16.739C213.8 16.253 213.809 15.722 213.827 15.146C213.845 14.552 213.863 13.985 213.881 13.445C213.917 12.905 213.944 12.437 213.962 12.041C213.998 11.627 214.025 11.357 214.043 11.231H213.935L204.998 26H200.084V6.722ZM215.609 0.376998C215.519 1.313 215.258 2.141 214.826 2.861C214.394 3.563 213.719 4.112 212.801 4.508C211.883 4.904 210.65 5.102 209.102 5.102C207.518 5.102 206.276 4.913 205.376 4.535C204.494 4.157 203.864 3.617 203.486 2.915C203.108 2.195 202.883 1.349 202.811 0.376998H206.402C206.474 1.367 206.717 2.024 207.131 2.348C207.563 2.672 208.247 2.834 209.183 2.834C209.957 2.834 210.587 2.663 211.073 2.321C211.577 1.961 211.874 1.313 211.964 0.376998H215.609ZM235.766 26V6.722H247.943V10.097H239.843V14.12H241.463C243.281 14.12 244.766 14.372 245.918 14.876C247.088 15.38 247.952 16.073 248.51 16.955C249.068 17.837 249.347 18.845 249.347 19.979C249.347 21.887 248.708 23.372 247.43 24.434C246.17 25.478 244.154 26 241.382 26H235.766ZM239.843 22.652H241.22C242.462 22.652 243.434 22.454 244.136 22.058C244.856 21.662 245.216 20.969 245.216 19.979C245.216 18.953 244.829 18.278 244.055 17.954C243.281 17.63 242.228 17.468 240.896 17.468H239.843V22.652ZM262.649 6.722C265.133 6.722 266.942 7.262 268.076 8.342C269.228 9.404 269.804 10.871 269.804 12.743C269.804 13.877 269.57 14.93 269.102 15.902C268.634 16.874 267.851 17.657 266.753 18.251C265.673 18.845 264.197 19.142 262.325 19.142H260.57V26H256.493V6.722H262.649ZM262.433 10.07H260.57V15.794H261.92C263.072 15.794 263.981 15.569 264.647 15.119C265.331 14.651 265.673 13.904 265.673 12.878C265.673 11.006 264.593 10.07 262.433 10.07ZM276.957 6.722H280.629V16.037C280.629 16.487 280.62 16.991 280.602 17.549C280.584 18.107 280.566 18.656 280.548 19.196C280.53 19.718 280.512 20.177 280.494 20.573C280.476 20.951 280.458 21.212 280.44 21.356H280.521L289.431 6.722H294.318V26H290.673V16.739C290.673 16.253 290.682 15.722 290.7 15.146C290.718 14.552 290.736 13.985 290.754 13.445C290.79 12.905 290.817 12.437 290.835 12.041C290.871 11.627 290.898 11.357 290.916 11.231H290.808L281.871 26H276.957V6.722ZM313.711 6.452V8.828C315.799 8.882 317.473 9.251 318.733 9.935C319.993 10.601 320.893 11.465 321.433 12.527C321.991 13.589 322.27 14.75 322.27 16.01C322.27 16.82 322.126 17.648 321.838 18.494C321.568 19.34 321.1 20.123 320.434 20.843C319.786 21.545 318.913 22.121 317.815 22.571C316.717 23.021 315.349 23.264 313.711 23.3V26.27H310.039V23.3C308.383 23.264 306.997 23.021 305.881 22.571C304.783 22.121 303.91 21.536 303.262 20.816C302.614 20.096 302.155 19.322 301.885 18.494C301.615 17.648 301.48 16.82 301.48 16.01C301.48 14.75 301.75 13.589 302.29 12.527C302.848 11.465 303.748 10.601 304.99 9.935C306.25 9.251 307.933 8.882 310.039 8.828V6.452H313.711ZM310.039 12.014C308.275 12.086 307.042 12.491 306.34 13.229C305.656 13.967 305.314 14.885 305.314 15.983C305.314 17.189 305.683 18.17 306.421 18.926C307.177 19.664 308.383 20.069 310.039 20.141V12.014ZM313.711 12.014V20.141C315.367 20.069 316.564 19.664 317.302 18.926C318.058 18.17 318.436 17.189 318.436 15.983C318.436 14.885 318.085 13.967 317.383 13.229C316.699 12.491 315.475 12.086 313.711 12.014ZM7.6 78.8V98H0.56V53.2H7.6V72.4H15.6V53.2H22.768V98H15.6V78.8H7.6ZM44.1285 53.2L51.2965 98H44.1925L42.9765 89.872H34.3365L33.1205 98H26.6565L33.8245 53.2H44.1285ZM38.6245 61.136L35.2325 83.792H42.0165L38.6245 61.136ZM76.1605 53.2C83.1578 53.2 86.6565 56.8907 86.6565 64.272V70.096C86.6565 77.4773 83.1578 81.168 76.1605 81.168H72.8325V98H65.7925V53.2H76.1605ZM76.1605 59.6H72.8325V74.768H76.1605C77.3125 74.768 78.1658 74.448 78.7205 73.808C79.3178 73.168 79.6165 72.08 79.6165 70.544V63.824C79.6165 62.288 79.3178 61.2 78.7205 60.56C78.1658 59.92 77.3125 59.6 76.1605 59.6ZM106.173 53.2L113.341 98H106.237L105.021 89.872H96.3815L95.1655 98H88.7015L95.8695 53.2H106.173ZM100.669 61.136L97.2775 83.792H104.061L100.669 61.136ZM130.828 66.704V64.208C130.828 62.288 130.508 60.9653 129.868 60.24C129.271 59.472 128.375 59.088 127.18 59.088C124.705 59.088 123.468 60.56 123.468 63.504V67.152H117.004V63.824C117.004 60.1973 117.879 57.4453 119.628 55.568C121.377 53.648 123.959 52.688 127.372 52.688C130.785 52.688 133.388 53.6693 135.18 55.632C136.972 57.552 137.868 60.3253 137.868 63.952V65.104C137.868 69.8827 136.225 72.9547 132.94 74.32C136.225 75.7707 137.868 78.9067 137.868 83.728V87.248C137.868 90.8747 136.972 93.6693 135.18 95.632C133.388 97.552 130.785 98.512 127.372 98.512C123.959 98.512 121.356 97.552 119.564 95.632C117.772 93.6693 116.876 90.8747 116.876 87.248V82.32H123.532V87.696C123.532 90.64 124.748 92.112 127.18 92.112C128.375 92.112 129.271 91.7493 129.868 91.024C130.508 90.256 130.828 88.9333 130.828 87.056V83.536C130.828 81.488 130.465 80.0373 129.74 79.184C129.015 78.288 127.841 77.84 126.22 77.84H124.492V71.44H126.604C128.012 71.44 129.057 71.0773 129.74 70.352C130.465 69.6267 130.828 68.4107 130.828 66.704ZM153.643 53.2C160.64 53.2 164.139 56.8907 164.139 64.272V70.096C164.139 77.4773 160.64 81.168 153.643 81.168H150.315V98H143.275V53.2H153.643ZM153.643 59.6H150.315V74.768H153.643C154.795 74.768 155.648 74.448 156.203 73.808C156.8 73.168 157.099 72.08 157.099 70.544V63.824C157.099 62.288 156.8 61.2 156.203 60.56C155.648 59.92 154.795 59.6 153.643 59.6ZM183.656 53.2L190.824 98H183.72L182.504 89.872H173.864L172.648 98H166.184L173.352 53.2H183.656ZM178.152 61.136L174.76 83.792H181.544L178.152 61.136ZM205.942 98H194.806V53.2H214.518V59.6H201.846V71.056H205.942C209.441 71.056 212.086 72.016 213.878 73.936C215.67 75.8133 216.566 78.544 216.566 82.128V86.928C216.566 90.512 215.67 93.264 213.878 95.184C212.086 97.0613 209.441 98 205.942 98ZM201.846 91.6H205.942C208.332 91.6 209.526 90.192 209.526 87.376V81.68C209.526 78.864 208.332 77.456 205.942 77.456H201.846V91.6ZM228.409 63.504V87.696C228.409 90.64 229.625 92.112 232.057 92.112C234.489 92.112 235.705 90.64 235.705 87.696V63.504C235.705 60.56 234.489 59.088 232.057 59.088C229.625 59.088 228.409 60.56 228.409 63.504ZM221.369 87.248V63.952C221.369 60.368 222.286 57.5947 224.121 55.632C225.956 53.6693 228.601 52.688 232.057 52.688C235.513 52.688 238.158 53.6693 239.993 55.632C241.828 57.5947 242.745 60.368 242.745 63.952V87.248C242.745 90.832 241.828 93.6053 239.993 95.568C238.158 97.5307 235.513 98.512 232.057 98.512C228.601 98.512 225.956 97.5307 224.121 95.568C222.286 93.6053 221.369 90.832 221.369 87.248ZM245.912 59.6V53.2H267.672V59.6H260.312V98H253.272V59.6H245.912ZM287.477 98L280.629 80.144L278.453 84.24V98H271.413V53.2H278.453V72.72L287.669 53.2H294.709L284.917 73.168L294.709 98H287.477ZM321.72 53.2L314.168 86.608C313.272 90.96 311.843 94.032 309.88 95.824C307.918 97.616 304.611 98.3627 299.96 98.064V91.792C301.88 91.92 303.331 91.728 304.312 91.216C305.294 90.704 305.912 89.68 306.168 88.144L306.232 87.76L296.504 53.2H303.48L307.32 68.496L309.496 78.992L311.16 68.56L314.36 53.2H321.72Z" fill="#424241"/>
<path d="M0.56 158V113.2H7.6V151.6H19.184V158H0.56ZM42.3435 113.2L49.5115 158H42.4075L41.1915 149.872H32.5515L31.3355 158H24.8715L32.0395 113.2H42.3435ZM36.8395 121.136L33.4475 143.792H40.2315L36.8395 121.136ZM72.31 158L63.542 125.552V158H57.206V113.2H66.038L73.27 140.016V113.2H79.542V158H72.31ZM89.0625 158V113.2H100.199C107.196 113.2 110.695 116.891 110.695 124.272V146.928C110.695 154.309 107.196 158 100.199 158H89.0625ZM100.071 119.6H96.1025V151.6H100.071C102.46 151.6 103.655 150.149 103.655 147.248V123.952C103.655 121.051 102.46 119.6 100.071 119.6ZM119.667 158V113.2H126.707V158H119.667ZM151.375 158L142.607 125.552V158H136.271V113.2H145.103L152.335 140.016V113.2H158.607V158H151.375ZM178.688 139.44V133.04H188.544V147.248C188.544 150.875 187.648 153.669 185.856 155.632C184.064 157.552 181.461 158.512 178.048 158.512C174.634 158.512 172.032 157.552 170.24 155.632C168.448 153.669 167.552 150.875 167.552 147.248V123.952C167.552 120.325 168.448 117.552 170.24 115.632C172.032 113.669 174.634 112.688 178.048 112.688C181.461 112.688 184.064 113.669 185.856 115.632C187.648 117.552 188.544 120.325 188.544 123.952V128.304H181.888V123.504C181.888 120.56 180.672 119.088 178.24 119.088C175.808 119.088 174.592 120.56 174.592 123.504V147.696C174.592 150.597 175.808 152.048 178.24 152.048C180.672 152.048 181.888 150.597 181.888 147.696V139.44H178.688ZM222.33 113.2C229.328 113.2 232.826 116.891 232.826 124.272V130.096C232.826 137.477 229.328 141.168 222.33 141.168H219.002V158H211.962V113.2H222.33ZM222.33 119.6H219.002V134.768H222.33C223.482 134.768 224.336 134.448 224.89 133.808C225.488 133.168 225.786 132.08 225.786 130.544V123.824C225.786 122.288 225.488 121.2 224.89 120.56C224.336 119.92 223.482 119.6 222.33 119.6ZM255.684 113.2L262.852 158H255.748L254.532 149.872H245.892L244.676 158H238.212L245.38 113.2H255.684ZM250.18 121.136L246.788 143.792H253.572L250.18 121.136ZM281.17 139.44V133.04H291.026V147.248C291.026 150.875 290.13 153.669 288.338 155.632C286.546 157.552 283.943 158.512 280.53 158.512C277.117 158.512 274.514 157.552 272.722 155.632C270.93 153.669 270.034 150.875 270.034 147.248V123.952C270.034 120.325 270.93 117.552 272.722 115.632C274.514 113.669 277.117 112.688 280.53 112.688C283.943 112.688 286.546 113.669 288.338 115.632C290.13 117.552 291.026 120.325 291.026 123.952V128.304H284.37V123.504C284.37 120.56 283.154 119.088 280.722 119.088C278.29 119.088 277.074 120.56 277.074 123.504V147.696C277.074 150.597 278.29 152.048 280.722 152.048C283.154 152.048 284.37 150.597 284.37 147.696V139.44H281.17ZM307.067 119.6V132.08H316.732V138.48H307.067V151.6H319.227V158H300.027V113.2H319.227V119.6H307.067Z" fill="#7ECFDA"/>
</svg>
